<svg id="Layer_1" data-name="Layer 1" xmlns="http://www.w3.org/2000/svg" viewBox="0 0 250 250"><defs><style>.cls-1{fill:#f5712e;}</style></defs><title>brand-logo</title><circle cx="125" cy="124.68" r="125"/><path class="cls-1" d="M202.21,131.8l-1,3.44a2.53,2.53,0,0,1-2.67,1.79c1.68,6.33,1,16.78-2.19,28-3.73,13-9.84,23.34-15.26,26.69v8.44c0,2.54-8.59,4.65-20.25,5.27h11.33v4.25H138.61c-50.21,0-90.92-38.05-90.92-85s40.71-85,90.92-85h33.58v4.25H158.33c12.92.43,22.78,2.68,22.78,5.38V67.5a3.63,3.63,0,0,1-3.65,3.63H130.19a3.63,3.63,0,0,1-3.63-3.63v-9a68.2,68.2,0,0,0,0,132.3V182a3.64,3.64,0,0,1,3.63-3.65h46.87c3.55-5,6.94-12.25,9.33-20.62,2.51-8.76,3.47-17.07,3-23.3l-2.89-.82a2.5,2.5,0,0,1-1.71-3.09l1-3.43a2.5,2.5,0,0,1,3.08-1.72l11.67,3.36A2.49,2.49,0,0,1,202.21,131.8Z"/></svg>