<svg id="Layer_1" data-name="Layer 1" xmlns="http://www.w3.org/2000/svg" viewBox="0 0 250 250"><defs><style>.cls-1{fill:#231f20;stroke:#231f20;stroke-miterlimit:10;stroke-width:1.79px;}</style></defs><title>brand-logo-bw</title><path class="cls-1" d="M238.26,135.47l-1.45,5.05a3.71,3.71,0,0,1-3.91,2.65c2.47,9.3,1.51,24.67-3.21,41.17-5.47,19.16-14.43,34.33-22.39,39.25V236c0,3.74-12.59,6.84-29.69,7.75h16.62V250H145C71.31,250,11.61,194,11.61,125S71.31,0,145,0h49.27V6.25H173.89c19,.63,33.41,3.93,33.41,7.92V40.92A5.34,5.34,0,0,1,202,46.25H132.62a5.33,5.33,0,0,1-5.33-5.33V27.74a100.36,100.36,0,0,0,0,194.55v-13a5.34,5.34,0,0,1,5.33-5.35h68.75c5.2-7.36,10.17-18,13.68-30.33,3.69-12.89,5.09-25.1,4.34-34.26l-4.23-1.22a3.67,3.67,0,0,1-2.52-4.53l1.46-5.06a3.68,3.68,0,0,1,4.53-2.52l17.12,4.93A3.68,3.68,0,0,1,238.26,135.47Z"/></svg>