<?xml version="1.0" encoding="utf-8"?>
<!-- Generator: Adobe Illustrator 22.0.1, SVG Export Plug-In . SVG Version: 6.00 Build 0)  -->
<svg version="1.1" id="Layer_1" xmlns="http://www.w3.org/2000/svg" xmlns:xlink="http://www.w3.org/1999/xlink" x="0px" y="0px"
	 viewBox="0 0 250 250" style="enable-background:new 0 0 250 250;" xml:space="preserve">
<style type="text/css">
	.st0{fill:#0C0D0D;}
	.st1{fill:url(#SVGID_1_);}
	.st2{fill:#3B3B3B;}
	.st3{fill:#1960AE;}
	.st4{fill:#669073;}
	.st5{fill:#F38118;}
	.st6{fill:none;stroke:#F38118;stroke-width:0.25;stroke-miterlimit:10;}
</style>
<g>
	<circle class="st0" cx="125" cy="125" r="125"/>
	<linearGradient id="SVGID_1_" gradientUnits="userSpaceOnUse" x1="2.704339e-06" y1="125" x2="250" y2="125">
		<stop  offset="0" style="stop-color:#FFF42E"/>
		<stop  offset="5.948725e-02" style="stop-color:#FFDC21"/>
		<stop  offset="0.1303" style="stop-color:#FFCA15"/>
		<stop  offset="0.2032" style="stop-color:#FCC010"/>
		<stop  offset="0.2809" style="stop-color:#FCBC0F"/>
		<stop  offset="0.6685" style="stop-color:#EE7D31"/>
		<stop  offset="0.8876" style="stop-color:#E6522F"/>
		<stop  offset="1" style="stop-color:#E0272C"/>
	</linearGradient>
	<path class="st1" d="M125,3c32.6,0,63.2,12.7,86.3,35.7c23,23,35.7,53.7,35.7,86.3s-12.7,63.2-35.7,86.3
		c-23,23-53.7,35.7-86.3,35.7s-63.2-12.7-86.3-35.7C15.7,188.2,3,157.6,3,125s12.7-63.2,35.7-86.3C61.8,15.7,92.4,3,125,3 M125,0
		C56,0,0,56,0,125s56,125,125,125s125-56,125-125S194,0,125,0L125,0z"/>
</g>
<path class="st2" d="M116.6,251.1c6.1-2.2,12.2-2.4,18.3,0C128.7,251.1,122.7,251.1,116.6,251.1z"/>
<path class="st3" d="M109.9,223.5c-16.5-0.6-31-7.2-44-17c-29.1-21.8-42.3-51.4-40.5-87.5c1.5-29.6,24.9-54.9,53.9-59.5
	c15.9-2.5,32.3,6.7,39.8,22.5c7.7,15.9,4.7,32.7-8.1,43.9c-3.7,3.2-7.8,6-11.9,8.6c-17.9,11.2-26.6,27.1-24.5,48.3
	c2,20.4,14.3,32.7,32.8,39.7C108.2,222.8,109.1,223.1,109.9,223.5z"/>
<path class="st4" d="M207.6,114.2c-4.6,19.1-22.9,30.7-43.2,28.7c-19.5-1.9-32.6-16.5-33.7-37.5c-0.3-6.5-0.7-13.1-2.2-19.4
	c-6.9-29.9-46-47.4-72.4-27.7c-1.2,0.9-2.7,1.6-4,2.4c0,0,0,0-0.1,0c-0.9,0.6-1.8,1.3-2.7,2c-0.7,0.6-1.5,1.1-2.2,1.7
	c1.2-1.7,2.4-3.4,3.7-4.9c0,0,0,0,0,0C55,53.8,60.4,49.2,66.1,45c38.3-28.2,94.7-24.5,126.2,8.7C208.6,70.8,213,91.7,207.6,114.2z"
	/>
<path class="st5" d="M217.7,91c4.2,6,5.1,13.1,6.4,20.1c8,46.1-22.2,95.8-65.9,108.1c-22.5,6.4-43,2.2-61-12.7
	c-12.6-10.5-17.4-24.1-13.2-40.1c4.4-16.7,15.1-27.3,32.3-29.9c10.6-1.6,20.1,3,29.2,7.8c13.4,7,27.2,9.2,41.8,3.6
	C211.2,138.6,221.3,119.5,217.7,91z"/>
<g>
	<g>
		<g>
			<path d="M71.9,99.9l-6.3,4.3l-5.5,3.7L38.7,91.5l26.4,5.1l6.4,1.3c0,0,0,0.1,0,0.1C71.5,98.7,71.7,99.4,71.9,99.9z"/>
		</g>
		<g>
			<polygon points="113.4,91.5 86.3,95 84.3,93.4 88.3,93.1 			"/>
		</g>
		<g>
			<path d="M90.8,108.3h-29l5.7-3.8l5.2-3.4c0.9,1,2.2,1.7,3.7,1.7c1.5,0,2.8-0.7,3.7-1.7l5.2,3.4L90.8,108.3z"/>
		</g>
		<g>
			<path d="M113.7,91.5l-21.4,16.5l-5.5-3.7l-6.1-4.1c0.3-0.6,0.5-1.3,0.5-2.1c0-0.1,0-0.1,0-0.2l6.1-1.2L113.7,91.5z"/>
		</g>
		<path d="M76.3,87.9l-0.4,5.3c-2,0.2-3.6,1.5-4.2,3.4l-5-1L76.3,87.9z"/>
		<path d="M85.9,95.6l-5,1c-0.6-1.8-2.2-3.2-4.2-3.4l-0.4-5.3l4.3,3.4l2.5,2l2,1.6L85.9,95.6z"/>
		<g>
			<polygon points="39.1,91.5 66.2,95 68.2,93.4 64.3,93.1 			"/>
		</g>
		<g>
			<path d="M71.8,96.6c0.6-1.8,2.2-3.1,4.2-3.3l-0.4,4L71.8,96.6z"/>
			<path class="st3" d="M75.8,93.4l-0.3,3.9l-3.7-0.7C72.5,94.8,74,93.6,75.8,93.4 M75.9,93.3c-2,0.2-3.6,1.5-4.2,3.4l3.9,0.8
				L75.9,93.3L75.9,93.3z"/>
		</g>
		<g>
			<path d="M76.8,93.2c1.9,0.2,3.5,1.5,4.1,3.4l-3.8,0.7L76.8,93.2z"/>
			<path class="st3" d="M76.8,93.4c1.8,0.2,3.4,1.4,3.9,3.2l-3.7,0.7L76.8,93.4 M76.7,93.3l0.3,4.1l3.9-0.8
				C80.3,94.8,78.7,93.4,76.7,93.3L76.7,93.3z"/>
		</g>
		<g>
			<path d="M78.2,98.4l3-0.5c-0.1,0-0.1,0.1-0.1,0.2c0,0.7-0.1,1.4-0.4,2L78.2,98.4z"/>
			<path class="st3" d="M81,97.9C81,98,81,98,81,97.9c0,0.8-0.1,1.4-0.4,2l-2.2-1.5L81,97.9 M81.1,97.8l-3,0.6l2.5,1.7
				c0.3-0.6,0.5-1.3,0.5-2.1C81.1,98,81.1,97.9,81.1,97.8L81.1,97.8z"/>
		</g>
		<g>
			<path d="M76.3,102.8c-1.4,0-2.7-0.6-3.6-1.7l3.7-2.4l3.6,2.4C79.1,102.2,77.7,102.8,76.3,102.8z"/>
			<path class="st3" d="M76.3,98.8l3.5,2.3c-0.9,1-2.2,1.6-3.5,1.6s-2.6-0.6-3.5-1.6L76.3,98.8 M76.3,98.7l-3.7,2.4
				c0.9,1,2.2,1.7,3.7,1.7s2.8-0.7,3.7-1.7L76.3,98.7L76.3,98.7z"/>
		</g>
		<g>
			<path d="M71.9,99.9c-0.2-0.6-0.4-1.2-0.4-1.8c0,0,0-0.1,0-0.1l2.6,0.6L71.9,99.9z"/>
			<path class="st3" d="M71.6,98l2.3,0.5l-2,1.3C71.7,99.2,71.6,98.6,71.6,98C71.6,98,71.6,98,71.6,98 M71.5,97.9c0,0,0,0.1,0,0.1
				c0,0.7,0.1,1.3,0.4,1.9l2.3-1.5L71.5,97.9L71.5,97.9z"/>
		</g>
	</g>
	<g>
		<path d="M95.6,108.7c-0.6,0.5-4.6,0.8-7.1,0.6c-1.9-0.1-3.8-0.4-5.7-0.6c-2.7-0.4-5.3-0.9-7.9-1.3c-2.4-0.4-4.7-0.7-7.2-0.9
			c-6.5-0.5-11.7,1.1-15.7,4.5c-0.3,0.3-0.6,0.5-0.9,0.8c-0.3,0.3-0.6,0.5-0.9,0.9c-0.2-0.3,0-0.5,0.1-0.6c1.4-2.2,3.2-4.2,6.1-5.7
			c2.7-1.4,5.8-2.1,9.1-2.2c4-0.1,7.8,0.6,11.5,1.5c2.4,0.6,4.8,1.2,7.2,1.8c0.4,0.1,0.8,0.2,1.2,0.3c2.1,0.5,4.3,0.9,6.5,1.1
			C93.1,108.8,94.4,108.9,95.6,108.7z"/>
		<path d="M93,110c0.1,0,0.1,0,0.2,0C93.1,110,93.1,110,93,110z"/>
		<path d="M96.3,117.7c-0.4,0.5-1.1,0.8-1.9,0.9c-1.7,0.3-3.4,0.3-5.1,0c-2.7-0.3-5.1-1.1-7.3-2.2c-0.1,0-0.2-0.1-0.2-0.2
			c0.2-0.1,0.4,0,0.5,0.1c2.8,0.7,5.6,1.1,8.6,1.1c1.5,0,2.9-0.3,4.2-0.6c0.4-0.1,0.7-0.2,1,0C96.5,117.1,96.5,117.4,96.3,117.7z"/>
		<path d="M60.5,114.3L60.5,114.3L60.5,114.3C60.4,114.3,60.4,114.3,60.5,114.3z"/>
		<path d="M61.1,110.9c-0.1,0-0.1,0-0.2,0C61,110.9,61.1,110.9,61.1,110.9z"/>
		<path d="M77.6,119.3c-0.2,0.3-0.6,0.4-1.4,0.4c-0.8,0-1.6-0.3-2.3-0.7c-1.8-1-2.7-2.4-3.3-3.9c0-0.1-0.1-0.2,0-0.2
			c0.1,0,0.2,0,0.3,0.1c0.3,0.2,0.6,0.5,0.9,0.7c1.5,0.9,2.9,1.9,4.7,2.6c0.2,0.1,0.4,0.2,0.6,0.3C77.5,118.7,77.8,118.9,77.6,119.3
			z"/>
		<path d="M61.1,110.9c-0.1,0-0.1,0-0.2,0C61,110.9,61.1,110.9,61.1,110.9z"/>
		<path d="M93.2,110c-0.1,0-0.1,0-0.2,0C93.1,110,93.1,110,93.2,110z"/>
		<path d="M60.5,114.3L60.5,114.3L60.5,114.3C60.4,114.3,60.4,114.3,60.5,114.3z"/>
		<path d="M88.2,109.9c-0.2,0-0.4,0-0.5-0.1C87.9,109.9,88,109.9,88.2,109.9z"/>
		<path d="M101.3,112.4c-0.4,0.6-1,1.1-1.7,1.5c-2.2,1.5-4.9,2.3-8,2.5c-3.2,0.2-6.2-0.2-9.1-1c-1-0.2-2-0.5-2.9-0.8l-0.1,0
			c-0.1,0-0.1,0-0.2-0.1c-2.1-0.6-4.1-1.4-6.2-2.1c-2.7-0.9-5.4-1.8-8.4-2.3c-4.5-0.7-8.5,0-11.9,2c-1.4,0.8-2.5,1.7-3.6,2.7
			c-0.1,0.1-0.1,0.2-0.4,0.2c0.4-0.7,1-1.3,1.6-1.8c1.7-1.7,3.8-3.1,6.6-4c3.2-1,6.5-1,9.9-0.5c3.4,0.5,6.6,1.4,9.9,2.3
			c3.2,0.9,6.4,1.8,9.9,2.2c3.3,0.4,6.5,0.2,9.6-0.7c0.2-0.1,0.5-0.1,0.7-0.2c0.6-0.2,1.1-0.4,1.7-0.5l0,0c0.1-0.1,0.1-0.1,0.2-0.1
			c0.4-0.2,0.9-0.3,1.3-0.4c0.4-0.1,0.8,0,1.1,0.2C101.6,111.9,101.5,112.2,101.3,112.4z"/>
		<path d="M84.7,118.9c-0.1,0.3-0.5,0.3-0.9,0.4c-1.2,0.2-2.2-0.1-3.2-0.4c-2.7-0.8-5-1.9-7.1-3.2c-2.6-1.5-5-3.2-8.1-4.3
			c-0.4-0.2-0.9-0.3-1.3-0.5c0,0,0-0.1,0.1-0.1c0.8,0,1.6,0.2,2.4,0.4c2.9,0.7,5.6,1.7,8.1,2.9c2.5,1.1,4.9,2.2,7.5,3.2
			c0.7,0.3,1.5,0.6,2.1,1C84.5,118.4,84.8,118.6,84.7,118.9z"/>
		<path d="M106.7,103.8c-1.3,2.5-3.2,4.7-6.3,6.4c-0.7,0.4-1.3,0.7-2.1,0.9c-0.1,0.1-0.3,0.1-0.5,0.2c-0.4,0.2-0.8,0.3-1.2,0.4
			c-2.1,0.6-4.3,0.8-6.5,0.7c-3.3,0-6.4-0.6-9.4-1.3c-1.4-0.3-2.8-0.6-4.1-1c-1.6-0.4-3.2-0.8-4.9-1.2c-1-0.2-2.1-0.4-3.1-0.7
			c-2.4-0.4-4.9-0.7-7.4-0.5c0,0-0.1,0-0.2-0.1c2.7-0.6,5.3-0.6,8-0.4c2.4,0.1,4.8,0.5,7.2,0.9c1.9,0.3,3.7,0.6,5.6,1
			c0.4,0.1,0.7,0.1,1.1,0.2c0.2,0,0.4,0.1,0.7,0.1c0.3,0.1,0.7,0,1,0.2c0.8,0.1,1.6,0.2,2.4,0.3c0.1,0,0.3,0,0.4,0
			c0.2,0,0.4,0,0.5,0c0.2,0.1,0.3,0,0.5,0.1c0.1,0,0.3,0,0.4,0c0.3,0,0.5,0,0.8,0.1c0.4,0,0.7,0,1.1,0c0.5,0,1,0,1.4,0
			c0.4,0,0.7,0,1.1,0c0.1,0,0.1,0,0.2,0c0.2,0,0.3,0,0.5,0c2.8-0.3,5.3-1,7.5-2.2c1.9-1.1,3.5-2.4,4.9-3.8c0.2-0.2,0.2-0.4,0.6-0.4
			C106.7,103.6,106.7,103.7,106.7,103.8z"/>
		<path d="M67.7,115.9c-1.6,0.1-3.1-0.2-4.5-0.7c-0.9-0.3-1.7-0.6-2.7-0.9c0,0-0.1,0-0.1-0.1v0c0,0,0,0,0,0l0,0
			c-0.2,0-0.3,0-0.5-0.1l0,0c-1.5-0.2-3.1-0.2-4.6,0c-2.3,0.4-4.5,1-6.5,1.9c0-0.3,0.3-0.5,0.5-0.6c1.6-1.5,3.5-2.9,6-3.8
			c0.2-0.1,0.4-0.1,0.6-0.2c1.6-0.5,3.4-0.8,5.2-0.6c0.1,0,0.1,0,0.2,0c1.9,0.1,3.6,0.6,5.2,1.3c0.8,0.3,1.5,0.7,2.1,1.2
			c0.3,0.2,0.6,0.5,0.8,0.7C69.9,115.1,69.3,115.8,67.7,115.9z"/>
	</g>
</g>
<g id="N1UUZS.tif">
	<g>
		<path d="M158.6,103.8C158.6,103.8,158.6,103.8,158.6,103.8C158.6,103.8,158.6,103.8,158.6,103.8L158.6,103.8
			C158.6,103.8,158.6,103.8,158.6,103.8z"/>
		<path d="M157,92.1C157,92.1,157,92.1,157,92.1L157,92.1C157,92.1,157,92.1,157,92.1z"/>
		<path d="M158.6,103.8C158.6,103.8,158.6,103.8,158.6,103.8C158.6,103.8,158.6,103.8,158.6,103.8
			C158.6,103.8,158.6,103.8,158.6,103.8C158.6,103.8,158.6,103.8,158.6,103.8z"/>
		<path d="M161.5,101.6C161.5,101.6,161.5,101.6,161.5,101.6C161.5,101.6,161.5,101.6,161.5,101.6
			C161.5,101.6,161.5,101.6,161.5,101.6z"/>
		<path d="M161.5,101.6C161.5,101.6,161.5,101.6,161.5,101.6C161.5,101.6,161.5,101.6,161.5,101.6L161.5,101.6z"/>
		<path d="M163.1,101.6C163.1,101.6,163.1,101.6,163.1,101.6C163.1,101.6,163.1,101.6,163.1,101.6
			C163.1,101.6,163.1,101.6,163.1,101.6z"/>
		<path d="M163.2,101.6L163.2,101.6C163.1,101.6,163.1,101.6,163.2,101.6C163.2,101.6,163.2,101.6,163.2,101.6z"/>
		<path d="M159.9,87.6c0,0.3,0,0.7,0,1C159.9,88.3,159.9,88,159.9,87.6z"/>
		<path d="M168,100.8C168,100.9,168,100.9,168,100.8C168,100.9,168,100.9,168,100.8C168,100.9,168,100.9,168,100.8L168,100.8z"/>
		<path d="M170,100.2C170,100.1,170,100.1,170,100.2C170,100.1,170,100.1,170,100.2C170,100.1,170,100.1,170,100.2z"/>
		<path d="M173.9,98.7L173.9,98.7C173.9,98.7,173.9,98.7,173.9,98.7C173.9,98.7,173.9,98.7,173.9,98.7
			C173.9,98.7,173.9,98.7,173.9,98.7z"/>
		<path d="M174.2,96.4L174.2,96.4C174.2,96.4,174.2,96.4,174.2,96.4L174.2,96.4C174.2,96.4,174.2,96.4,174.2,96.4z"/>
		<path d="M173.9,98.7C173.9,98.7,173.9,98.7,173.9,98.7L173.9,98.7L173.9,98.7C173.9,98.7,173.9,98.7,173.9,98.7
			C173.9,98.7,173.9,98.7,173.9,98.7L173.9,98.7z"/>
		<path d="M174.2,96.4L174.2,96.4C174.2,96.4,174.2,96.4,174.2,96.4L174.2,96.4C174.2,96.4,174.2,96.4,174.2,96.4L174.2,96.4z"/>
		<path d="M141,98.7C141,98.7,141,98.7,141,98.7C141,98.7,141,98.7,141,98.7C141,98.7,141,98.7,141,98.7L141,98.7L141,98.7z"/>
		<path d="M157,92.1L157,92.1C157,92.1,157,92.1,157,92.1L157,92.1C156.9,92,156.9,92,157,92.1C157,92,157,92.1,157,92.1z"/>
		<path d="M194.1,98.7C194.1,98.7,194.1,98.7,194.1,98.7C194.1,98.7,194.1,98.7,194.1,98.7C194.1,98.7,194,98.7,194.1,98.7
			L194.1,98.7C194.1,98.7,194.1,98.7,194.1,98.7z"/>
		<path d="M196,98.7L196,98.7C196,98.7,196,98.7,196,98.7L196,98.7L196,98.7L196,98.7C196,98.7,196.1,98.7,196,98.7L196,98.7
			L196,98.7C196,98.7,196,98.7,196,98.7z"/>
		<path d="M196.1,98.7L196.1,98.7C196,98.7,196,98.7,196.1,98.7C196,98.7,196,98.7,196.1,98.7L196.1,98.7L196.1,98.7z"/>
		<path d="M141,98.7L141,98.7C141,98.7,141,98.7,141,98.7L141,98.7C141,98.7,141,98.7,141,98.7z"/>
		<path d="M141,98.7L141,98.7C141,98.7,141,98.7,141,98.7C141,98.7,141,98.7,141,98.7C141,98.7,141,98.7,141,98.7z"/>
		<path d="M142.6,98.7L142.6,98.7C142.6,98.7,142.6,98.7,142.6,98.7C142.6,98.7,142.6,98.7,142.6,98.7L142.6,98.7z"/>
		<path d="M194.1,98.7C194.1,98.7,194.1,98.7,194.1,98.7C194.1,98.7,194.1,98.7,194.1,98.7C194.1,98.7,194,98.7,194.1,98.7
			L194.1,98.7z"/>
		<path d="M142.6,98.7L142.6,98.7L142.6,98.7C142.6,98.7,142.6,98.7,142.6,98.7L142.6,98.7C142.6,98.7,142.6,98.7,142.6,98.7
			L142.6,98.7z"/>
		<path d="M174.2,96.4L174.2,96.4C174.2,96.4,174.2,96.4,174.2,96.4L174.2,96.4C174.2,96.4,174.2,96.4,174.2,96.4z"/>
		<path d="M157,92.1L157,92.1C157,92.1,157,92.1,157,92.1L157,92.1C156.9,92,156.9,92,157,92.1C157,92,157,92.1,157,92.1z"/>
		<path d="M199.3,96.6c-0.6-0.3-1.1-0.1-1.6,0.5c-0.5-1.2-1.1-0.5-1.6-0.5h-1.7c-0.4,0-1-0.5-1.3,0.6c-5.3,0.1-10.6,0.3-15.9-0.7
			c-1-0.2-2,1.1-2.9,0l0,0.1h0c0,0,0,0,0,0c0,0-0.1-0.1-0.1-0.1c0,0,0,0,0,0c-0.5-0.6-1-2.5-1.5,0.1c-0.5,0.6-0.8,0.3-1-0.8
			c-0.7-1.8-1.3-2.5-1.9,0.1h-0.3c0,0-0.1-0.1-0.1-0.1c0,0,0,0,0,0c-0.4-0.6-0.6-2.3-1.2-0.6c0-0.2,0-0.5,0-0.8
			c0-1.2,0.3-2.6-0.6-3.2v3.2c-0.2,1-0.5,1.9-0.7,2.9c-0.4-0.5-0.8-1.3-1-2.2c0.1-1.1,0-2.3-0.6-2.3c-0.5,0-1.3-0.5-1.4,1.6
			c-0.1,0-0.2,0-0.3,0c-0.2-2.2-1.2-3.6-1-6.9c-0.4,1.8-0.3,2.9-0.3,3.9c-0.1,2.2-0.1,2.2-0.7,2.2c0.2-2.5-1.4-2.8-1.6-4.9
			c0,0.9,0,1.9-0.1,2.9c-0.7-2.4-2.5-2.9-2-7c-0.3,1.8-0.2,3.6-0.2,5.3c0,1.2,0,2.4-0.1,3.6c-0.2-0.5-0.4-1-0.6-1.4v0c0,0,0,0,0,0v0
			c0,0,0,0,0,0c0,0,0,0,0,0.1c-0.1-3.3-0.2-6.7-1.3-9.7V87c-0.2,2.9,0.3,6-0.6,8.9c-0.2-1.8-0.3-3.6-0.5-5.3c0-1.9,0.3-3.8-0.4-6.1
			c-0.4,2.4-0.2,4.3-0.2,6.1c-0.1,1,0.2,2.6-0.4,3c-0.3,0.2-0.2-1-0.3-1.6c0-1.7,0.2-3.4-0.2-4.9c-0.2-0.7,0.2-2.2-0.3-2.1
			c-0.5,0.1-1,1.2-0.7,2.7c-0.2,1.9,0.3,4-0.4,5.8c0-2-0.5-3.8-0.4-6c-0.2,1.2-0.4,2.2-0.8,3.1c-0.1,0.7,0.1,1.6-0.2,2.2
			c-0.4-0.8-0.4-1.9-0.5-2.9v-4c-0.8,1.6-0.6,3.2-0.6,4.7c0,1.2-0.1,2.4-0.7,3V90c-0.3,1.1-0.5,1.6-0.6,2.2
			c-0.7,1.1-0.2,3.1-0.7,4.2c-1.2,0.1-2.4,0.1-3.6,0.2c-0.4,0-0.8,0-1.3,0c-0.3,0-0.7,0-1,0v0c-3.7-0.7-7.3,1.1-11,0.7
			c0,0.2,0,0.4,0,0.6c3.6,0.3,7.1,0.6,10.7,0.9l0-0.1h0.1c0,0,0,0,0,0c0,0,0,0,0,0c0.5,1,1.1,1,1.6,0v0c0,0,0,0,0,0h0l0,0l0,0
			c0.2-0.1,0.4-0.1,0.6-0.2c1.4,0.1,2.8,0.1,4.2,0.2c0,1.5,0,2.9,0,4.4c0,1.4-0.3,3,0.4,3.9c0.5-0.9-0.2-3.2,0.9-3.2
			c0,0.7,0,1.5,0.1,2.2v5.9c0.1,0,0.1,0,0.2,0c0-1.3,0.1-2.5,0.1-4.4c0.2,1.1,0.3,1.6,0.6,3.2c-0.1-3.2,0.5-5.2,0.3-7.5
			c0.7-0.3,0.2,1,0.4,1.4v5.8c0.3-2.5,0.8-4.8,0.6-7.3c0,0.1-0.1,0.2-0.1,0.3c0-0.1,0.1-0.2,0.1-0.3c0.3-0.5,0.6-0.9,1-1.7v14.2
			c0.3-3.7,0.4-7.5,0.9-11c0.5-0.6,0.1-2.1,0.6-3c0,1.2,0.1,2.1,0.1,3.1v8.1c0.1,0,0.2,0,0.3,0v-8.1c1.3-0.3,0.6-4,1.7-5.2v8.9
			c0,2-0.2,4,0.1,6.3c0.3-2.3,0.1-4.3,0.1-6.3c0-0.2,0-0.5,0-0.8c0.2-1.5,1.3-2.1,0.9-4.3c0.1-1,0-2.4,0.7-2.9v5.1
			c0,0.6-0.3,1.6,0.3,1.7c0.6,0.1,0.6-0.5,0.6-1.4c0-0.6,0-1.2,0-1.8h0c0,0,0,0,0,0v0c0,0,0,0,0,0c0,0,0,0,0,0c0,0,0,0,0,0
			c0.3-0.2,0.6-0.5,0.9-0.7c0,0.2,0,0.5,0,0.8c0,2.2-0.1,4.4,0.2,6.7v-6.7c0-0.2,0-0.5,0-0.8c0.4,0.2,0.2,1.3,0.5,1.7
			c0-1.7,1.4-0.9,1.2-3c0,0,0,0,0,0v0c0,0,0,0,0-0.1c0,0,0,0,0,0c0,0,0,0,0,0c0,0,0,0.1,0,0.1c0.2,0.2,0.4,0.4,0.6,0.6
			c0,0.5,0,1,0.1,1.5v4.3c0.9-1.7,1-4,1-6.5c0,0,0,0,0,0.1c0,0,0,0,0,0c0,0,0,0,0,0c0,0,0,0,0,0c0,0,0,0,0,0c0,0,0,0,0,0v0
			c0.3-0.4,0.9,1.4,1-0.7l0.2,0h0.1v5.2c0.1-2.4,0.7-4.1,1.3-5.9c0.4-0.5,0.9-0.9,1.3-1.4c0,0.7,0,1.4,0.1,2.2v4.3
			c0-1.8,1-2.6,1-4.3c0.6-1.1,1.3-0.2,1.9-0.7c0,0,0,0,0,0c0,0,0,0,0,0c0,0,0,0,0,0c0,0,0,0,0,0c0,0,0,0,0,0
			c0.1,0.8,0.1,1.6,0.2,2.3c-0.1-2.4,1.5-0.8,1.5-3.1l0,0c0,0,0,0,0,0c0,0,0,0,0,0h0c0.7-0.6,1.6,1.3,2.3-0.7h0v0c0,0,0,0,0,0
			c0,0,0,0,0,0h0c0,0,0,0,0,0.1c2.5-0.6,5-0.3,7.5-0.6c4-0.4,8.1-0.9,12.1,0.4c0.2,0.1,0.4,0.1,0.6,0.2c0,0,0,0,0-0.1h0c0,0,0,0,0,0
			c0,0,0,0,0,0c0.7,1.8,1.3,1.3,2,0c0,0,0,0,0,0v0h0l0,0.1c0.5-0.1,1.1-0.1,1.6-0.2h1.3c3.6,0.6,7.2-1.1,10.7-0.6v-0.7
			C206.2,97,202.8,96.8,199.3,96.6z M168,100.9C168,100.9,168,100.9,168,100.9C168,100.9,168,100.9,168,100.9L168,100.9
			C168,100.9,168,100.9,168,100.9z"/>
		<path d="M163.2,101.6L163.2,101.6C163.1,101.6,163.1,101.6,163.2,101.6C163.1,101.6,163.1,101.6,163.2,101.6
			C163.1,101.6,163.1,101.6,163.2,101.6C163.1,101.6,163.1,101.6,163.2,101.6C163.1,101.6,163.1,101.6,163.2,101.6
			C163.2,101.6,163.2,101.6,163.2,101.6z"/>
		<path d="M158.6,103.8L158.6,103.8L158.6,103.8C158.6,103.8,158.6,103.8,158.6,103.8L158.6,103.8
			C158.6,103.8,158.6,103.8,158.6,103.8C158.6,103.8,158.6,103.8,158.6,103.8C158.6,103.8,158.6,103.8,158.6,103.8z"/>
		<path d="M161.5,101.7C161.5,101.7,161.5,101.6,161.5,101.7L161.5,101.7c0-0.1,0-0.1,0-0.1C161.5,101.6,161.5,101.6,161.5,101.7
			C161.5,101.6,161.5,101.6,161.5,101.7C161.5,101.6,161.5,101.6,161.5,101.7z"/>
		<path d="M170,100.2C170,100.2,170,100.2,170,100.2C169.9,100.2,169.9,100.2,170,100.2C169.9,100.1,169.9,100.1,170,100.2
			C170,100.1,170,100.1,170,100.2C170,100.1,170,100.1,170,100.2z"/>
		<path d="M171.6,99.4L171.6,99.4C171.6,99.4,171.6,99.4,171.6,99.4C171.6,99.4,171.6,99.4,171.6,99.4L171.6,99.4z"/>
		<path d="M168,100.8C168,100.9,168,100.9,168,100.8C168,100.9,168,100.9,168,100.8C168,100.9,168,100.9,168,100.8L168,100.8z"/>
		<path d="M168,100.8C168,100.9,168,100.9,168,100.8C168,100.9,168,100.9,168,100.8C168,100.9,168,100.9,168,100.8L168,100.8z"/>
		<path d="M170,100.2C170,100.2,170,100.2,170,100.2C169.9,100.2,169.9,100.2,170,100.2C169.9,100.1,169.9,100.1,170,100.2
			C170,100.1,170,100.1,170,100.2C170,100.1,170,100.1,170,100.2z"/>
		<path d="M194.1,98.7C194.1,98.7,194.1,98.7,194.1,98.7C194.1,98.7,194.1,98.7,194.1,98.7C194.1,98.7,194,98.7,194.1,98.7
			L194.1,98.7z"/>
		<path d="M196,98.7L196,98.7L196,98.7L196,98.7C196,98.7,196,98.7,196,98.7C196,98.7,196,98.7,196,98.7L196,98.7L196,98.7z"/>
		<path d="M171.6,99.4L171.6,99.4C171.6,99.4,171.6,99.4,171.6,99.4C171.6,99.4,171.6,99.4,171.6,99.4L171.6,99.4z"/>
		<path d="M173.9,98.7C173.9,98.7,173.9,98.7,173.9,98.7L173.9,98.7L173.9,98.7C173.9,98.7,173.9,98.7,173.9,98.7
			C173.9,98.7,173.9,98.7,173.9,98.7L173.9,98.7z"/>
		<path d="M158.6,103.8L158.6,103.8L158.6,103.8C158.6,103.8,158.6,103.8,158.6,103.8L158.6,103.8
			C158.6,103.8,158.6,103.8,158.6,103.8L158.6,103.8C158.6,103.8,158.6,103.8,158.6,103.8C158.6,103.8,158.6,103.8,158.6,103.8
			C158.6,103.8,158.6,103.8,158.6,103.8z"/>
		<path d="M163.2,101.6L163.2,101.6C163.1,101.6,163.1,101.6,163.2,101.6C163.1,101.6,163.1,101.6,163.2,101.6
			C163.1,101.6,163.1,101.6,163.2,101.6C163.1,101.6,163.1,101.6,163.2,101.6C163.1,101.6,163.1,101.6,163.2,101.6
			C163.2,101.6,163.2,101.6,163.2,101.6z"/>
		<path d="M161.5,101.7C161.5,101.7,161.5,101.6,161.5,101.7L161.5,101.7c0-0.1,0-0.1,0-0.1C161.5,101.6,161.5,101.6,161.5,101.7
			C161.5,101.6,161.5,101.6,161.5,101.7C161.5,101.6,161.5,101.6,161.5,101.7z"/>
		<path d="M141,98.7C141,98.7,141,98.7,141,98.7C141,98.7,141,98.7,141,98.7C141,98.7,141,98.7,141,98.7C141,98.7,141,98.7,141,98.7
			L141,98.7z"/>
		<path d="M142.6,98.7L142.6,98.7C142.6,98.7,142.6,98.7,142.6,98.7L142.6,98.7C142.6,98.7,142.6,98.7,142.6,98.7L142.6,98.7z"/>
	</g>
</g>
<g>
	<path d="M134.6,165.6c-0.8-1.3-2.1-2-3.6-1.8c-0.1,0-0.2,0-0.3,0.1c-1-4-2.9-7.5-5.7-10.5c0.3-0.1,0.4-0.2,0.5-0.6
		c0.1-0.7-0.5-1.2-1-1.6c-0.7-0.4,0.1-0.3,0.4-0.5c0.5-0.2,0.8-0.8,1.1-1.2c-0.2-0.2-0.2-0.5-0.4-0.8c-0.3-0.3-0.7-0.4-1.1-0.4
		c-0.4,0-0.7,0.1-1,0.3c-0.1,0.1-0.6,0.6-0.8,0.5c-0.3-0.2,0.7-1.1,0.8-1.2c0.3-0.5,0.5-1.1,0-1.6c-0.7-0.7-1.7-0.1-2.3,0.4
		c-0.8,0.7-1.5,1.8-1.5,3c0,0.4-0.1,1-0.5,0.4c-0.2-0.3-0.3-0.6-0.5-0.8c-0.4-0.3-0.8-0.1-0.9,0.4c-0.1,0.4,0,1,0.1,1.4
		c0.2,0.4,0.4,0.8,0.7,1.1c-3,2.8-5.2,6.3-6.5,10.3c-1.1,3.4-1.1,6.9-1.1,10.4c0,0.4,0.3,1-0.4,1.3c-0.8,0.3-0.8,0.9-0.8,1.6v15
		c0,1.9,0,3.8,0,5.6c0,0.7-0.1,1.3,0.8,1.6c0.7,0.2,0.6,1.1,0.3,1.2c-1.5,0.6-1,1.8-1,2.8c0,1.3-0.5,2.8,0.6,4H132
		c0.4-0.5,0.7-1.1,0.6-1.8c-0.1-1.1,0-2.2,0-3.3c0-0.7,0-1.2-0.8-1.6c-0.7-0.4-0.7-1,0-1.3c0.7-0.3,0.7-0.9,0.7-1.5v-4
		c0-1.8,0-3.6,0-5.4v-11.4c0-0.6,0-1.2-0.6-1.4c-0.7-0.2-0.6-0.7-0.6-1.2c0-0.6,0-1.1,0-1.7c0,0,0,0,0,0c0.4-0.4,0.8-0.8,1.2-1.2
		c0.8-0.9,1.2-0.9,1.8,0.1C135.4,169.7,135.3,166.8,134.6,165.6z M118.7,151.1C118.7,151.1,118.7,151.1,118.7,151.1
		c-0.1,0.1-0.2,0-0.2,0c-0.1-0.3-0.2-0.7-0.1-1c0-0.1,0-0.2,0.1-0.2c0,0.1,0,0.3,0,0.4C118.5,150.5,118.6,150.8,118.7,151.1
		C118.7,151.1,118.7,151.1,118.7,151.1z M123.8,149.5c0.3-0.2,0.6-0.4,1-0.4c0.1,0,0.2,0,0.2,0c-0.1,0.1-0.3,0.1-0.4,0.1
		c-0.3,0.1-0.5,0.3-0.8,0.5c0,0,0,0,0,0c0,0,0,0,0,0C123.8,149.6,123.8,149.5,123.8,149.5z M120.3,150.3c0.2-1.1,0.6-2.1,1.4-2.9
		c0.2-0.2,0.3-0.4,0.6-0.5c-0.1,0.4-0.4,0.7-0.6,1.1c-0.4,0.7-0.6,1.5-0.8,2.3c0,0.1,0,0.2-0.1,0.3c0,0,0,0,0,0c-0.1,0-0.1,0-0.2,0
		c0,0-0.1,0-0.1,0C120.3,150.7,120.3,150.6,120.3,150.3z M125.4,167L125.4,167C125.4,167,125.4,167.1,125.4,167
		C125.4,167.1,125.4,167,125.4,167z"/>
	<path class="st5" d="M115.1,194.7c-0.4,0-0.8,0-1.2,0.1c-0.9,0.1-1.2-0.2-1.2-1.2c0-2.7,0-5.4,0-8.1h0c0-3.1,0-6.1,0-9.2
		c0-2.1,1.5-0.8,2.4-1.1c0,3.5,0,7,0,10.5c0,0,0,0,0,0c0,2.9,0,5.7,0,8.6C115.2,194.5,115.2,194.6,115.1,194.7z"/>
	<path class="st5" d="M116.9,171.2c-0.1,0.1-0.1,0.1,0,0.2c-0.3,0-0.6,0-0.9,0.1c-1.1,0.2-1.5-0.2-1.5-1.4
		c-0.1-4.8,0.3-9.5,2.9-13.7c0.5-0.9,1-2,1.9-2.6c-0.2,1.8-1.1,3.5-1.5,5.3C116.8,163.1,116.8,167.2,116.9,171.2z"/>
	<path class="st5" d="M115.3,204.3c-0.1,0.1-0.1,0.1,0,0.2c-0.3,0-0.6,0-0.9,0.1c-1,0.1-1.5,0-1.5-1.3c0-1.4,0.8-1.1,1.5-1.1
		c0.3,0,0.6,0,0.9,0C115.2,203,115.2,203.6,115.3,204.3z"/>
	<path class="st5" d="M116.5,198.9c-0.1,0.1-0.1,0.1-0.1,0.2c-0.5,0-1.1,0-1.6,0.1c-0.5,0-0.7-0.1-0.8-0.6c0-0.6,0.3-0.6,0.8-0.6
		c0.5,0,1.1,0.1,1.6,0.1C116.4,198.3,116.5,198.6,116.5,198.9z"/>
	<path class="st5" d="M128.4,161.8c-0.1,0.1-0.2,0.1-0.3,0.2c-0.2,0.1-0.4,0.1-0.6,0.1c-0.4-0.1-0.8-0.3-1.1-0.5
		c-0.7-0.5-1.4-1-2.1-1.6c-0.5-0.4-1.1-0.8-1.7-1.2c-0.5-0.3-1-0.6-1.6-0.8c-0.2-0.1-0.3-0.1-0.5-0.1c0,0.1,0.1,0.1,0.1,0.1
		c0.3,0.5,0.6,1,0.8,1.5c0.1,0.2,0.2,0.3,0.4,0.3c0.3,0.1,0.6,0.2,0.9,0.3c0.7,0.3,1.4,0.5,2,0.9c0.5,0.3,0.9,0.7,1.2,1.1
		c0.2,0.2,0.4,0.5,0.6,0.7c0.2,0.2,0.5,0.3,0.7,0.3c0.3,0,0.5-0.1,0.7-0.3C128.2,162.6,128.4,162,128.4,161.8z"/>
	<g>
		<path class="st5" d="M118.5,150.2c0,0.3,0.1,0.6,0.2,0.9c0,0,0,0,0,0c0,0,0,0-0.1,0c-0.1,0-0.1,0-0.1-0.1c-0.1-0.3-0.2-0.7-0.1-1
			c0-0.1,0-0.2,0.1-0.2C118.5,149.9,118.5,150.1,118.5,150.2z"/>
		<path class="st5" d="M122.3,147c-0.1,0.4-0.4,0.7-0.6,1.1c-0.4,0.7-0.6,1.5-0.8,2.3c0,0.1,0,0.2-0.1,0.3c0,0,0,0,0,0
			c-0.1,0-0.1,0-0.2,0c0,0-0.1,0-0.1,0c-0.2,0-0.2-0.1-0.2-0.4c0.2-1.1,0.6-2.1,1.4-2.9C121.9,147.3,122,147.1,122.3,147z"/>
		<path class="st5" d="M125.1,149.1c-0.1,0.1-0.3,0.1-0.4,0.1c-0.3,0.1-0.5,0.3-0.8,0.5c0,0,0,0,0,0c0,0,0,0,0,0
			c-0.1-0.1,0-0.1,0-0.2c0.3-0.2,0.6-0.4,1-0.4C124.9,149.1,125,149,125.1,149.1z"/>
		<path class="st5" d="M122.3,147c-0.1,0.4-0.4,0.7-0.6,1.1c-0.4,0.7-0.6,1.5-0.8,2.3c0,0.1,0,0.2-0.1,0.3c0,0,0,0,0,0
			c-0.1,0-0.1,0-0.2,0c0,0-0.1,0-0.1,0c-0.2,0-0.2-0.1-0.2-0.4c0.2-1.1,0.6-2.1,1.4-2.9C121.9,147.3,122,147.1,122.3,147z"/>
		<path class="st5" d="M118.7,151.1C118.7,151.1,118.7,151.1,118.7,151.1C118.7,151.1,118.7,151.1,118.7,151.1
			c-0.1,0.1-0.2,0.1-0.2,0c-0.1-0.3-0.2-0.7-0.1-1c0-0.1,0-0.2,0.1-0.2c0,0.1,0,0.3,0,0.4C118.5,150.5,118.6,150.8,118.7,151.1z"/>
		<path class="st5" d="M125.1,149.1c-0.1,0.1-0.3,0.1-0.4,0.1c-0.3,0.1-0.5,0.3-0.8,0.5c0,0,0,0,0,0c0,0,0,0,0,0
			c-0.1-0.1,0-0.1,0-0.2c0.3-0.2,0.6-0.4,1-0.4C124.9,149.1,125,149,125.1,149.1z"/>
	</g>
	<path class="st5" d="M122.3,163.3L122.3,163.3c0,0-0.1,0-0.1,0c-0.4-0.1-0.6-0.5-0.5-0.8c0.1-0.4,0.5-0.6,0.8-0.5c0,0,0.1,0,0.1,0
		l0,0l2.4,1.4L122.3,163.3z"/>
	<path class="st6" d="M123.4,164.3c0,0-1.5-0.3-1.9-0.3c-0.1,0-0.2,0.3-0.2,0.3"/>
</g>
</svg>
