<?xml version="1.0" encoding="utf-8"?>
<!-- Generator: Adobe Illustrator 22.0.1, SVG Export Plug-In . SVG Version: 6.00 Build 0)  -->
<svg version="1.1" id="Layer_1" xmlns="http://www.w3.org/2000/svg" xmlns:xlink="http://www.w3.org/1999/xlink" x="0px" y="0px"
	 viewBox="0 0 250 250" style="enable-background:new 0 0 250 250;" xml:space="preserve">
<style type="text/css">
	.st0{fill:url(#SVGID_1_);}
	.st1{opacity:0.15;}
	.st2{fill:url(#SVGID_2_);}
	.st3{fill:none;stroke:#F5712E;stroke-width:8;stroke-linecap:round;stroke-miterlimit:10;}
</style>
<g>
	<circle cx="125" cy="124.7" r="125"/>
	<linearGradient id="SVGID_1_" gradientUnits="userSpaceOnUse" x1="0" y1="124.6843" x2="250" y2="124.6843">
		<stop  offset="0" style="stop-color:#FF8700"/>
		<stop  offset="0.1981" style="stop-color:#FA9000"/>
		<stop  offset="0.5265" style="stop-color:#EBAA00"/>
		<stop  offset="0.5521" style="stop-color:#EAAC00"/>
		<stop  offset="0.8652" style="stop-color:#EACC00"/>
		<stop  offset="0.9944" style="stop-color:#CB8100"/>
	</linearGradient>
	<path class="st0" d="M125,4.7c32.1,0,62.2,12.5,84.9,35.1S245,92.6,245,124.7s-12.5,62.2-35.1,84.9s-52.8,35.1-84.9,35.1
		s-62.2-12.5-84.9-35.1S5,156.7,5,124.7s12.5-62.2,35.1-84.9S92.9,4.7,125,4.7 M125-0.3c-69,0-125,56-125,125s56,125,125,125
		s125-56,125-125S194-0.3,125-0.3L125-0.3z"/>
</g>
<g class="st1">
	
		<linearGradient id="SVGID_2_" gradientUnits="userSpaceOnUse" x1="-2.6485" y1="123.9221" x2="247.3515" y2="123.9221" gradientTransform="matrix(-0.6428 -0.766 0.766 -0.6428 108.7197 298.6955)">
		<stop  offset="0" style="stop-color:#FF8700"/>
		<stop  offset="0.1981" style="stop-color:#FA9000"/>
		<stop  offset="0.5265" style="stop-color:#EBAA00"/>
		<stop  offset="0.5521" style="stop-color:#EAAC00"/>
		<stop  offset="0.8652" style="stop-color:#EACC00"/>
		<stop  offset="0.9944" style="stop-color:#CB8100"/>
	</linearGradient>
	<circle class="st2" cx="125" cy="125.3" r="125"/>
</g>
<g>
	<line class="st3" x1="45.5" y1="75.7" x2="136.5" y2="75.7"/>
	<line class="st3" x1="45.5" y1="76.3" x2="25" y2="165"/>
	<line class="st3" x1="25" y1="165.6" x2="116" y2="165.6"/>
	<line class="st3" x1="170.5" y1="74.8" x2="116" y2="165.4"/>
	<line class="st3" x1="170.6" y1="74.5" x2="225" y2="165.1"/>
	<line class="st3" x1="92.6" y1="129.2" x2="183.6" y2="129.2"/>
</g>
</svg>
