<svg id="Layer_1" data-name="Layer 1" xmlns="http://www.w3.org/2000/svg" xmlns:xlink="http://www.w3.org/1999/xlink" viewBox="50 0 200 900" height="900" width="300"><defs><style>.cls-1{fill:#231f20;}.cls-2{fill:#f3712f;}.cls-3{fill:url(#linear-gradient);}.cls-4{fill:url(#linear-gradient-2);}.cls-5{fill:url(#linear-gradient-3);}.cls-6{fill:url(#linear-gradient-4);}.cls-7{fill:url(#linear-gradient-5);}.cls-8{fill:url(#linear-gradient-6);}.cls-9{fill:url(#linear-gradient-7);}.cls-10{stroke:#010101;fill:url(#radial-gradient);}.cls-10,.cls-12{stroke-miterlimit:10;stroke-width:0.58px;}.cls-11,.cls-12{fill:#010101;}.cls-12{stroke:#f79421;}.cls-13{fill:#faa326;}.cls-14{font-size:10px;fill:#bcbec0;font-family:RogueSansExt-Light, Rogue Sans Ext;}.cls-15{letter-spacing:-0.02em;}.cls-16{letter-spacing:-0.02em;}.cls-17{letter-spacing:0em;}.cls-18{letter-spacing:-0.01em;}.cls-19{letter-spacing:-0.02em;}.cls-20{letter-spacing:-0.05em;}.cls-21{letter-spacing:-0.02em;}.cls-22{letter-spacing:0em;}.cls-23{letter-spacing:-0.01em;}.cls-24{letter-spacing:-0.02em;}.cls-25{letter-spacing:0em;}.cls-26{letter-spacing:-0.05em;}</style><linearGradient id="linear-gradient" x1="-510.27" y1="-76.67" x2="-510.21" y2="-76.67" gradientTransform="translate(-17.36 650.73) rotate(90)" gradientUnits="userSpaceOnUse"><stop offset="0" stop-color="#00aeef"/><stop offset="0.03" stop-color="#03acec"/><stop offset="0.06" stop-color="#0da6e4"/><stop offset="0.08" stop-color="#1e9bd5"/><stop offset="0.11" stop-color="#368dc1"/><stop offset="0.13" stop-color="#557aa6"/><stop offset="0.15" stop-color="#7b6286"/><stop offset="0.17" stop-color="#a74760"/><stop offset="0.19" stop-color="#da2834"/><stop offset="0.2" stop-color="#ed1c24"/><stop offset="0.22" stop-color="#e72125"/><stop offset="0.25" stop-color="#d72f29"/><stop offset="0.29" stop-color="#bc462e"/><stop offset="0.33" stop-color="#966636"/><stop offset="0.37" stop-color="#668f40"/><stop offset="0.4" stop-color="#39b54a"/><stop offset="0.6" stop-color="#ffde17"/><stop offset="0.62" stop-color="#e1b935"/><stop offset="0.65" stop-color="#c39453"/><stop offset="0.67" stop-color="#aa756c"/><stop offset="0.7" stop-color="#975d80"/><stop offset="0.73" stop-color="#8a4c8d"/><stop offset="0.76" stop-color="#824295"/><stop offset="0.8" stop-color="#7f3f98"/><stop offset="0.88" stop-color="#f7941d"/></linearGradient><linearGradient id="linear-gradient-2" x1="-408.19" y1="-77.01" x2="-408.14" y2="-77.01" xlink:href="#linear-gradient"/><linearGradient id="linear-gradient-3" x1="-305.82" y1="-76.95" x2="-305.76" y2="-76.95" xlink:href="#linear-gradient"/><linearGradient id="linear-gradient-4" x1="-203.74" y1="-77.29" x2="-203.69" y2="-77.29" xlink:href="#linear-gradient"/><linearGradient id="linear-gradient-5" x1="-97.53" y1="-77.54" x2="-97.47" y2="-77.54" xlink:href="#linear-gradient"/><linearGradient id="linear-gradient-6" x1="4.55" y1="-77.88" x2="4.6" y2="-77.88" xlink:href="#linear-gradient"/><linearGradient id="linear-gradient-7" x1="-550.73" y1="-62.36" x2="71.27" y2="-62.36" xlink:href="#linear-gradient"/><radialGradient id="radial-gradient" cx="44.03" cy="808.28" r="78.69" gradientTransform="translate(0 -11.57) scale(1 1.01)" gradientUnits="userSpaceOnUse"><stop offset="0" stop-color="#fcbc4c"/><stop offset="0.19" stop-color="#fcb643"/><stop offset="0.52" stop-color="#faa529"/><stop offset="0.55" stop-color="#faa326"/><stop offset="0.87" stop-color="#f3712f"/><stop offset="0.99" stop-color="#ef3932"/></radialGradient></defs><title>roadmap-vertical</title><path class="cls-2" d="M58.06,50.51l-.22.77a.56.56,0,0,1-.6.4,13,13,0,0,1-.48,6.25c-.84,2.91-2.2,5.21-3.41,6v1.89c0,.56-1.92,1-4.52,1.17h2.53v1h-7.5c-11.21,0-20.29-8.49-20.29-19s9.08-19,20.29-19h7.5v.95h-3.1c2.89.1,5.09.6,5.09,1.2v4.06a.81.81,0,0,1-.81.81H42a.81.81,0,0,1-.81-.81v-2a15.23,15.23,0,0,0,0,29.53v-2A.82.82,0,0,1,42,60.9H52.45a15.69,15.69,0,0,0,2.08-4.6,15.43,15.43,0,0,0,.66-5.2l-.65-.18a.57.57,0,0,1-.38-.69l.22-.77a.55.55,0,0,1,.69-.38l2.61.75A.56.56,0,0,1,58.06,50.51Z"/><path class="cls-2" d="M64.51,67.9c-3.06,0-4.33-1.11-4.33-3.53V64c0-2.37,1.37-3.44,3.26-3.36,1.11.06,2.3.16,3.42.21V60c0-.93-.55-1.38-2.93-1.38H60.79V57.38L64.16,57c3.94,0,5.19,1.07,5.19,3.67v6.85ZM66.86,62H64.55c-1.4,0-1.81.54-1.81,2v.43c0,1.44.43,2,1.87,2h2.25Z"/><path class="cls-2" d="M86.84,67.74h-.16a4.12,4.12,0,0,1-2-.29c-.29-.25-.37-.82-.37-2.36V60.6c0-1.4-.47-2-1.87-2H80a4.6,4.6,0,0,1,.57,2.07v7.08H78V60.6c0-1.4-.45-1.93-1.87-1.93h-2v9.07H71.64V57.44l4.7-.37a6.42,6.42,0,0,1,2.5.45L82.7,57c2.68,0,4.14,1.17,4.14,3.53Z"/><path class="cls-2" d="M98.16,60.85c0,2.62-.66,3.36-3.26,3.36l-3.4-.29v1.13c0,.61.3,1.33,1.86,1.33h4.39v1.21l-4.59.31c-2.89,0-4.17-1.15-4.17-3.53V60.54C89,58.18,90.55,57,93.22,57h.7c2.78,0,4.24,1.13,4.24,3.53Zm-2.56-.41c0-1.4-.43-2-1.85-2h-.39c-1.37,0-1.86.65-1.86,2v2.42h1.86A3.26,3.26,0,0,0,95,62.59c.45-.33.58-.88.58-1.74Z"/><path class="cls-2" d="M108,61.11h-1.76c0-2-.76-2.52-2.17-2.52h-1.29v9.15h-2.47V57.34L104.6,57c2.05,0,3.94,1.13,3.59,3.12Z"/><path class="cls-2" d="M114,67.9c-3.07,0-4.34-1.11-4.34-3.53V64c0-2.37,1.37-3.44,3.26-3.36,1.11.06,2.31.16,3.42.21V60c0-.93-.55-1.38-2.93-1.38h-3.14V57.38l3.37-.35c3.95,0,5.2,1.07,5.2,3.67v6.85ZM116.35,62H114c-1.4,0-1.81.54-1.81,2v.43c0,1.44.43,2,1.87,2h2.25Z"/><path class="cls-2" d="M136.33,67.74h-.15a4.1,4.1,0,0,1-2-.29c-.3-.25-.37-.82-.37-2.36V60.6c0-1.4-.47-2-1.88-2h-2.5a4.6,4.6,0,0,1,.57,2.07v7.08h-2.54V60.6c0-1.4-.45-1.93-1.87-1.93h-2v9.07h-2.48V57.44l4.7-.37a6.42,6.42,0,0,1,2.5.45L132.2,57c2.67,0,4.13,1.17,4.13,3.53Z"/><path class="cls-2" d="M154,67.74h-.16a4.1,4.1,0,0,1-2-.29c-.29-.25-.37-.82-.37-2.36V60.6c0-1.4-.47-2-1.88-2h-2.49a4.57,4.57,0,0,1,.56,2.07v7.08H145.1V60.6c0-1.4-.45-1.93-1.88-1.93h-2v9.07h-2.48V57.44l4.71-.37a6.37,6.37,0,0,1,2.49.45l3.87-.53c2.67,0,4.14,1.17,4.14,3.53Z"/><path class="cls-2" d="M165.27,64.35c0,2.44-1.46,3.55-4.23,3.53h-.7c-2.79,0-4.24-1.11-4.24-3.53V60.6c0-2.38,1.5-3.53,4.24-3.53h.7c2.73,0,4.23,1.15,4.23,3.53ZM162.7,60.5c0-1.4-.61-2-2-2h-.12c-1.4,0-2,.61-2,2v4c0,1.83,1,2,2.09,2,1.42,0,2-.55,2-2Z"/><path class="cls-2" d="M189.23,67l-5.85-8.42V57.29c4.66,0,5.48-1,5.48-2.31V53.76c0-1.6-.46-2.72-3.74-2.72h-2.65c0,5.25,0,10.71,0,15.95h-4.75V48.93h8.74c4.68,0,7.46,1.35,7.46,4.72v1c0,3.09-2,4.29-5.73,4.34,2.1,2.53,4.63,5.49,6.7,8Z"/><path class="cls-2" d="M206.4,64.18c0,2-1.64,2.94-4.74,2.92h-.79c-3.12,0-4.73-.92-4.73-2.92v-3.1c0-2,1.68-2.92,4.73-2.92h.79c3.06,0,4.74,1,4.74,2.92ZM203.52,61c0-1.16-.68-1.66-2.23-1.66h-.13c-1.57,0-2.23.5-2.23,1.66v3.26c0,1.52,1.12,1.66,2.34,1.66,1.59,0,2.25-.45,2.25-1.66Z"/><path class="cls-2" d="M213.34,67.12c-3.43,0-4.85-.92-4.85-2.93V63.9c0-1.95,1.53-2.84,3.65-2.77,1.24,0,2.57.13,3.82.17v-.69c0-.77-.62-1.15-3.28-1.15h-3.51V58.41l3.77-.29c4.41,0,5.81.89,5.81,3v5.67ZM216,62.24h-2.58c-1.57,0-2,.45-2,1.66v.36c0,1.19.48,1.66,2.1,1.66H216Z"/><path class="cls-2" d="M228.48,58.09c0-2.45.29-2.53,2.77-2.53V66.83l-5.58.3c-3,0-4.67-.93-4.67-2.89V61.05c0-2.18,2-2.88,3.69-2.88l3.79.24Zm-.06,1.33h-2.51c-1.59,0-2.07.48-2.07,1.63v3.19c0,1.15.5,1.65,2.07,1.65h2.51Z"/><path class="cls-2" d="M251,67h-.17a6.24,6.24,0,0,1-2.23-.24c-.33-.21-.41-.68-.41-2V61.08c0-1.16-.53-1.66-2.1-1.66h-2.79a3,3,0,0,1,.63,1.71V67h-2.84V61.08c0-1.16-.5-1.6-2.09-1.6h-2.23V67H234V58.46l5.26-.3a9.48,9.48,0,0,1,2.79.37l4.33-.44c3,0,4.62,1,4.62,2.92Z"/><path class="cls-2" d="M258.21,67.12c-3.43,0-4.85-.92-4.85-2.93V63.9c0-1.95,1.53-2.84,3.65-2.77,1.24,0,2.57.13,3.82.17v-.69c0-.77-.61-1.15-3.28-1.15H254V58.41l3.78-.29c4.4,0,5.8.89,5.8,3v5.67Zm2.62-4.88h-2.58c-1.57,0-2,.45-2,1.66v.36c0,1.19.48,1.66,2.1,1.66h2.51Z"/><path class="cls-2" d="M276.43,64.11c0,2.26-2.11,2.85-3.69,2.88L269,66.73v.16a4.65,4.65,0,0,1-.31,2.2c-.39.53-1.09.56-2.46.56V58.38l5.52-.3c2.94,0,4.73.93,4.73,2.87Zm-2.83-3c0-1.13-.59-1.62-2.16-1.62H269v6.28h2.51c1.6,0,2.08-.46,2.08-1.63Z"/><path class="cls-3" d="M58.6,140.48l1.43,0A7.86,7.86,0,0,0,58.6,140.48Z"/><path class="cls-4" d="M58.94,242.56l1.43,0A7.78,7.78,0,0,0,58.94,242.56Z"/><path class="cls-5" d="M58.88,344.93l1.43,0A7.86,7.86,0,0,0,58.88,344.93Z"/><path class="cls-6" d="M59.22,447l1.43,0A8.78,8.78,0,0,0,59.22,447Z"/><path class="cls-7" d="M59.47,553.22l1.43,0A7.86,7.86,0,0,0,59.47,553.22Z"/><path class="cls-8" d="M59.81,655.3c.48,0,.95,0,1.43,0A8.78,8.78,0,0,0,59.81,655.3Z"/><path class="cls-9" d="M48.12,722h-.95c.2-4.45-1.7-8.89-1-13.35v-1.78c-.09-.73-.18-1.47-.26-2.21h0c-1.75-.9-2.49-1.8,0-2.69.08-.3.17-.59.26-.88,1.73-5.48,1.11-11,.51-16.48-.37-3.39,0-6.8-.77-10.19-2.71-.88-.09-2.09-.93-3.09-3.14,0-1.06-2.12-4.31-2.05l3.21-.25c-.67-.84.55-1.81-.91-2.59-2.36,0-3.4-1.32-5.9-1.32H43l3-.08L44,663.3a30.16,30.16,0,0,0-8.09-1.82H43v-.2l0-.21c-2.86,0-.46-.9-1-1.31-3.38.1-6.56-.09-8.94-1.3H39l2-.08c.29-.27.6-.55.88-.83-2.91.26-1.8-1.59-4.18-1.62.56-.35,2-.08,2.29-.65l-1-.07H29.81a49.13,49.13,0,0,1,9.15-.32l1-.06c-.33-.44-.68-.87-1-1.29h0c-.82,0-1.63,0-2.44,0-1.25,0-2.13,0-1.94-.8s1.54-.4,2.41-.47h7c-.79-1.09-2.63-.87-4.05-1-3,.51-3.88-.93-5.95-1.27l-1-.07a60.22,60.22,0,0,1-8.63-.15,60.38,60.38,0,0,1,8.63-.17H45.17c-1.67-1.5-6.7-.47-7.15-2.26H26.83a2.61,2.61,0,0,1,0-.4H38l4.22-.14c-1.32-.63-3.38-.11-4.16-.8-4.89-.79-10.08-.85-15.18-1.28H42.41L40,643.28a.88.88,0,0,0-.35-.14l.35.14c-3.5.21-6.7-.48-10.07-.83h8c.57-.24,2.34.32,1.93-.58-3.16.38-5.94-.55-10.36-.35l4.34-.83-6-.17c0-.1,0-.2,0-.3H36l3-.07c0-1.53-3.2-.46-4.38-1.2,1.27-1,3.48-.46,5.35-.51l6-.07.21-5.78c-.09-.29-.18-.58-.26-.87h0c-1.4-.74-1.41-1.49,0-2.23l0,0,.9-10.89c-.15-4-1.62-8-1-12V604.8c-.08-.74-.17-1.48-.25-2.22h0c-1.75-.89-2.49-1.79,0-2.69.08-.3.17-.58.25-.87,1.73-5.49,1.12-11,.52-16.48-.37-3.4,0-6.81-.77-10.19-2.72-.88-.1-2.1-.94-3.1-3.14,0-1.06-2.12-4.3-2,1.07-.07,2.15-.16,3.21-.25-.67-.83.54-1.81-.91-2.59-2.36,0-3.4-1.31-5.9-1.31h5.85l3-.08-1.9-1.75a30.47,30.47,0,0,0-8.09-1.81h7.09V559c-2.87,0-.47-.9-1-1.32-3.38.1-6.55-.08-8.93-1.3h5.9l2-.07.88-.84c-2.91.26-1.81-1.59-4.18-1.61.56-.36,2-.09,2.29-.66-.35,0-.7,0-1-.06H29.46a48.33,48.33,0,0,1,9.16-.32l1-.07c-.35-.43-.68-.86-1-1.29h0c-.83,0-1.64,0-2.45,0-1.25,0-2.13,0-1.93-.81s1.53-.4,2.4-.46h7c-.79-1.09-2.62-.88-4.06-1-3,.5-3.87-.93-5.93-1.27l-1-.07a61.65,61.65,0,0,1-8.62-.16,61.65,61.65,0,0,1,8.62-.16H44.82c-1.67-1.51-6.69-.47-7.14-2.26H26.49v-.41H37.61l4.22-.14c-1.31-.63-3.37-.1-4.15-.79-4.9-.8-10.09-.85-15.19-1.29H42.06l-2.38-1.38a.76.76,0,0,0-.35-.15l.35.15c-3.51.21-6.7-.48-10.08-.84h8c.57-.24,2.35.32,1.94-.57-3.17.37-5.94-.56-10.37-.36l4.35-.83-6-.16c0-.11,0-.2,0-.31h8.06c1,0,2,0,3-.07,0-1.53-3.2-.45-4.38-1.2,1.27-1,3.49-.46,5.36-.51l6-.07c.07-1.92.14-3.84.21-5.78-.08-.28-.17-.57-.25-.87h0c-1.4-.74-1.41-1.48,0-2.23h0c.33-4.12.68-8.24,1-12.35h-.14c.72-4.9-1.65-9.77-.84-14.68v-1.78c-.09-.74-.18-1.48-.25-2.22h0c-1.75-.89-2.49-1.79,0-2.69.07-.29.16-.58.25-.88,1.73-5.47,1.12-11,.51-16.47-.37-3.39,0-6.81-.76-10.19-2.72-.88-.1-2.09-.94-3.09-3.15,0-1.06-2.12-4.31-2.05l3.22-.25c-.67-.84.54-1.82-.91-2.59-2.36,0-3.41-1.31-5.9-1.31h5.85l3-.09L43.44,455a29.71,29.71,0,0,0-8.09-1.81h7.09v-.42c-2.88,0-.47-.9-1-1.31-3.37.1-6.54-.09-8.93-1.3H38.4l2-.07.88-.85c-2.92.27-1.82-1.58-4.19-1.61.56-.36,2-.08,2.3-.65l-1-.06H29.22a47.44,47.44,0,0,1,9.15-.32l1-.07c-.35-.43-.69-.87-1-1.3h0c-.82,0-1.63,0-2.44,0-1.25,0-2.13,0-1.93-.8s1.53-.41,2.4-.47h7c-.79-1.09-2.62-.87-4.06-1-3,.51-3.87-.93-5.93-1.27l-1-.06a60.4,60.4,0,0,1-8.63-.17,60.24,60.24,0,0,1,8.63-.15H44.58c-1.67-1.51-6.7-.48-7.15-2.28H26.25v-.39H37.37l4.22-.14c-1.31-.64-3.38-.11-4.16-.8-4.9-.79-10.09-.84-15.18-1.28H41.82c-1.08-.64-1.74-1-2.38-1.38a.86.86,0,0,0-.35-.15l.35.15c-3.51.21-6.7-.49-10.08-.85h8c.57-.24,2.34.32,1.94-.56-3.17.36-5.94-.57-10.37-.36l4.34-.84-6-.16a1.45,1.45,0,0,0,0-.3H35.4l3-.07c0-1.53-3.2-.46-4.39-1.2,1.28-1,3.49-.46,5.36-.51l6-.07.21-5.78c-.09-.29-.18-.58-.25-.87h0c-1.4-.74-1.41-1.48,0-2.23,0,0,0,0,0,0,.29-3.63.6-7.26.9-10.88-.16-4-1.63-8-1-12v-1.77c-.09-.74-.19-1.48-.26-2.22h0c-1.75-.89-2.49-1.79,0-2.69.07-.29.17-.59.26-.88,1.72-5.47,1.11-11,.51-16.47-.37-3.4,0-6.81-.77-10.2-2.72-.87-.09-2.09-.93-3.09-3.15,0-1.07-2.11-4.31-2l3.22-.26c-.68-.83.54-1.81-.91-2.59-2.37,0-3.41-1.31-5.9-1.31H42l3-.08-1.91-1.75A30.17,30.17,0,0,0,35,351.12h7.09v-.41c-2.88,0-.48-.91-1-1.32-3.37.11-6.54-.08-8.93-1.3h5.91l2-.07c.29-.28.59-.55.88-.84-2.92.26-1.81-1.59-4.19-1.61.57-.36,2.05-.08,2.29-.65l-1-.07H28.87a49.2,49.2,0,0,1,9.16-.32l1-.07-1-1.3h0c-.82,0-1.63,0-2.45,0-1.25,0-2.13,0-1.93-.79s1.53-.41,2.41-.48h7c-.78-1.08-2.62-.87-4-1-3,.51-3.88-.92-5.94-1.26l-1-.07a60.27,60.27,0,0,1-8.63-.16,60.27,60.27,0,0,1,8.63-.16H44.24c-1.68-1.51-6.7-.47-7.16-2.27H25.9c0-.13,0-.26,0-.4H37l4.21-.13c-1.31-.64-3.37-.11-4.16-.81-4.89-.79-10.08-.84-15.17-1.27H41.47l-2.38-1.39a.76.76,0,0,0-.35-.15l.35.15c-3.51.21-6.7-.48-10.08-.84h8c.58-.24,2.35.32,1.93-.57-3.16.36-5.93-.56-10.36-.36l4.35-.83-6-.16c0-.11,0-.2,0-.3h8.06c1,0,2-.06,3-.07,0-1.54-3.2-.46-4.39-1.21,1.27-1,3.48-.46,5.36-.51l6-.07.21-5.77c-.09-.3-.19-.59-.26-.88h0q-2.1-1.12,0-2.23l0,0c.38-4.48.75-8.94,1.12-13.41-.43-3.26-1.29-6.51-.76-9.78v-1.78c-.09-.74-.18-1.48-.26-2.22h0c-1.75-.89-2.49-1.79,0-2.69.08-.29.17-.58.26-.87,1.72-5.48,1.12-11,.51-16.48-.37-3.4,0-6.81-.77-10.19-2.71-.88-.09-2.1-.93-3.09-3.15,0-1.06-2.12-4.31-2l3.22-.25c-.67-.84.54-1.82-.91-2.6-2.36,0-3.41-1.31-5.9-1.31h5.84l3-.08-1.9-1.75a30.28,30.28,0,0,0-8.09-1.8h7.09v-.42c-2.88,0-.48-.9-1-1.31-3.37.1-6.54-.09-8.93-1.31h5.91l2-.07c.29-.28.58-.56.88-.83-2.92.26-1.82-1.6-4.19-1.62.56-.36,2.05-.09,2.3-.65l-1-.07H28.94a48.23,48.23,0,0,1,9.15-.32l1-.07c-.35-.42-.69-.86-1-1.29h0c-.82,0-1.63,0-2.44,0-1.25,0-2.13,0-1.93-.8s1.52-.41,2.4-.47h7c-.79-1.09-2.62-.87-4.06-1-3,.5-3.87-.93-5.93-1.27l-1.05-.06a60.38,60.38,0,0,1-8.63-.17,60.22,60.22,0,0,1,8.63-.15H44.3c-1.67-1.51-6.7-.48-7.15-2.27H26v-.41H37.09l4.22-.13c-1.31-.64-3.38-.11-4.16-.8-4.9-.8-10.09-.84-15.18-1.29H41.53l-2.37-1.38a.86.86,0,0,0-.35-.14c.11,0,.22.1.35.14-3.51.21-6.7-.48-10.08-.84h8c.57-.24,2.34.32,1.93-.57-3.16.37-5.93-.56-10.37-.35l4.35-.84-6-.16a1.55,1.55,0,0,0,0-.31h8.06c1,0,2,0,3-.07,0-1.52-3.2-.45-4.39-1.2,1.27-1,3.49-.46,5.36-.5l6-.07.21-5.78c-.09-.29-.18-.58-.26-.88h0q-2.1-1.11,0-2.23l0,0,.9-10.88c-.16-4-1.62-8-1-12v-1.78c-.09-.74-.19-1.48-.27-2.21h0c-1.75-.89-2.49-1.79,0-2.69.08-.29.18-.58.27-.88,1.72-5.47,1.11-11,.51-16.48-.37-3.39,0-6.81-.78-10.19-2.71-.87-.08-2.09-.92-3.09-3.15,0-1.07-2.11-4.31-2l3.21-.26c-.67-.83.54-1.82-.9-2.59-2.37,0-3.41-1.31-5.9-1.31h5.84l3-.08c-.63-.59-1.28-1.17-1.91-1.75a30.17,30.17,0,0,0-8.09-1.81h7.09v-.42c-2.88,0-.48-.9-1-1.3-3.37.1-6.55-.09-8.93-1.31h5.91l2-.07.88-.84c-2.92.27-1.81-1.59-4.19-1.61.56-.37,2.05-.09,2.29-.65l-1-.07H28.59a48.36,48.36,0,0,1,9.16-.32l1-.07-1-1.3h0c-.82,0-1.63,0-2.45,0-1.25,0-2.13,0-1.93-.79s1.53-.41,2.4-.48h7c-.79-1.08-2.62-.87-4.05-1-3,.51-3.88-.93-5.94-1.26l-1-.07a58.85,58.85,0,0,1-8.63-.16,60.27,60.27,0,0,1,8.63-.16H44c-1.68-1.5-6.7-.48-7.16-2.27H25.62c0-.13,0-.26,0-.4H36.74l4.22-.14c-1.31-.64-3.38-.11-4.16-.8-4.89-.79-10.08-.84-15.17-1.28H41.19l-2.38-1.38a.75.75,0,0,0-.36-.15l.36.15c-3.51.21-6.71-.49-10.08-.84h8c.58-.25,2.35.31,1.93-.57-3.16.37-5.93-.56-10.36-.35l4.35-.85-6-.15a3,3,0,0,0,0-.31h8.06l3-.07c0-1.53-3.21-.46-4.39-1.2,1.27-1,3.48-.46,5.36-.51l6-.07.21-5.77c-.09-.3-.19-.59-.27-.88h0c-1.4-.75-1.42-1.49,0-2.23t0,0q.61-7.31,1.22-14.6a2.26,2.26,0,0,1,.82,0c-.56,5,1.88,10,.95,15h0c0,.46,0,.94,0,1.41l0,1.73.21,4.9c1.6.73,4.37,0,5.83.94l3,.86H51.85c.75.84,2.44.87,4.09.93,2.13-.07,4.32-.26,6.48.76H56.89a9.79,9.79,0,0,0-4,.69c.81.49,2.07.17,3,.34a13.43,13.43,0,0,0,4.2,1.13c-3-.15-5.48.59-8.23.59,2.46.86,5.39.2,8,.5,2.15-.41,3.63.22,3.74.92s-2,.15-2.9.4a24.48,24.48,0,0,1-6.76.34c-.77.14-2.48,0-2.16.42.59.85,2.72.39,4.12.59a43.33,43.33,0,0,1,8.42.28c-3.15.83-5.84.47-8.42.48l-7.25.69c4,1.16,8.25.5,12.22.78h6.28c-4.11,1.45-8.7,1.59-13.3,1.75q-1,.41-2,.84l5,.07a36.74,36.74,0,0,1,7.3.24c-5.57-.69-6.38,1.72-9.63,2.75l4.06.08c-2.89.24-3.3,2.37-6.7,2.14,0,.85,0,.85,3,1a18,18,0,0,1,5.41.36c-4.49-.27-6.38,1.15-9.45,1.37,0,.14,0,.28,0,.41,2.91.09,2.26,1.14,2.24,1.85s-1.61.92-3.17.78a7,7,0,0,0-3,1.35l4,1h4.42c-.89,1.18-2.84.74-4.42.76l-1,.07c2.37.85.05,1.18-.85,1.67a0,0,0,0,0,0,0,.74.74,0,0,0-.16.1v.41c3.55.87,2.56,1.74.07,2.63-1.51.29-1.93.73-1.07,1.38,3.56.69,1,1.38.18,2.06,0,0,0,0,0,0a.67.67,0,0,0-.14.16h.05c-1.54,1.33.22,2.66,0,4-1.42,7.22-1.08,14.47-1,21.71,1.53.48.8,1.17.81,1.78v2.3c-.07.75.86,1.56-.74,2.21.85.69,1.1,1.42.71,2.2q-.3,5.28-.62,10.58c.27,4.1,1.75,8.18,1,12.29h0c0,.47,0,1,0,1.42s0,1.15,0,1.72l.21,4.9c1.6.74,4.36,0,5.83.94l3,.86H52.19c.77.84,2.45.88,4.1.94,2.12-.08,4.32-.27,6.47.76H57.24a9.58,9.58,0,0,0-4,.69c.81.48,2.07.16,3,.33a13.07,13.07,0,0,0,4.21,1.14c-3-.15-5.5.58-8.25.59,2.46.86,5.4.2,8,.49,2.15-.4,3.63.23,3.74.92s-2,.16-2.91.41a24,24,0,0,1-6.75.33c-.78.14-2.49-.05-2.16.43.58.85,2.72.38,4.12.58a45,45,0,0,1,8.42.28c-3.15.84-5.85.47-8.42.48l-7.26.7c4,1.16,8.25.49,12.22.77H67.5c-4.1,1.45-8.7,1.6-13.3,1.75l-2,.85,5,.07a36.62,36.62,0,0,1,7.29.23c-5.57-.68-6.38,1.73-9.62,2.75l4,.09c-2.88.23-3.3,2.36-6.69,2.13,0,.85,0,.85,3,1a18.65,18.65,0,0,1,5.41.36c-4.48-.27-6.37,1.15-9.44,1.37,0,.14,0,.28,0,.42,2.9.09,2.25,1.14,2.23,1.85s-1.6.91-3.17.77a7.08,7.08,0,0,0-3,1.35l4,1h4.42c-.88,1.18-2.84.74-4.42.76l-1,.07c2.36.85,0,1.18-.85,1.67l0,0a.69.69,0,0,0-.17.1v.41c3.55.86,2.57,1.74.07,2.63-1.51.28-1.93.73-1.06,1.37,3.56.69,1,1.38.18,2.07h0a.7.7,0,0,0-.14.17h0c-1.54,1.34.22,2.67,0,4-1.42,7.23-1.09,14.47-1,21.72,1.53.47.79,1.16.81,1.78v2.29c-.07.76.86,1.57-.74,2.22.85.68,1.1,1.42.71,2.19-.25,4.4-.52,8.8-.77,13.2.49,3.32,1.34,6.63.73,10h0c0,.46,0,.94,0,1.41l0,1.73.21,4.9c1.6.73,4.37,0,5.83.94l3,.86H52.13c.76.84,2.44.87,4.09.93,2.13-.07,4.32-.26,6.48.77H57.17a9.64,9.64,0,0,0-4,.68c.81.49,2.07.17,3,.34a13,13,0,0,0,4.2,1.13c-3-.14-5.49.59-8.24.6,2.46.85,5.39.19,8,.5,2.16-.42,3.64.21,3.74.91s-2,.15-2.9.4a24.48,24.48,0,0,1-6.76.34c-.77.14-2.48,0-2.16.43.59.84,2.72.38,4.13.58a44.81,44.81,0,0,1,8.41.27c-3.15.84-5.84.49-8.41.49l-7.26.69c4,1.16,8.25.5,12.22.78h6.28c-4.11,1.45-8.7,1.6-13.3,1.74-.67.28-1.33.56-2,.85l5,.07a36.74,36.74,0,0,1,7.3.24c-5.57-.69-6.38,1.73-9.63,2.75l4.06.08c-2.89.24-3.3,2.37-6.7,2.14,0,.85,0,.85,3,1a18,18,0,0,1,5.41.36c-4.49-.27-6.38,1.15-9.45,1.37,0,.14,0,.28,0,.41,2.91.09,2.26,1.15,2.24,1.86s-1.61.91-3.17.77a7.12,7.12,0,0,0-3,1.35q2,.51,4,1h4.42c-.89,1.19-2.84.74-4.42.77l-1,.07c2.36.85,0,1.17-.86,1.66,0,0,0,0,0,0a.85.85,0,0,0-.17.1v.41c3.55.86,2.57,1.74.07,2.63-1.51.29-1.93.73-1.07,1.38,3.57.69,1,1.38.18,2.06v0a.67.67,0,0,0-.14.16h.05c-1.54,1.33.22,2.66,0,4-1.42,7.22-1.08,14.47-1,21.71,1.53.49.8,1.17.81,1.78v2.3c-.07.75.86,1.56-.74,2.21.85.69,1.1,1.42.71,2.2q-.3,5.28-.62,10.58c.27,4.1,1.75,8.17,1,12.29h0c0,.47,0,1,0,1.42s0,1.15,0,1.72l.21,4.91c1.6.72,4.36,0,5.83.93l3,.87H52.47c.77.83,2.45.87,4.1.93,2.12-.08,4.32-.26,6.48.76H57.52a9.74,9.74,0,0,0-4,.68c.81.49,2.07.17,3,.34a13.07,13.07,0,0,0,4.21,1.14c-3-.15-5.49.58-8.25.59,2.46.85,5.4.2,8,.5,2.14-.41,3.62.22,3.73.91s-1.95.16-2.9.41a24.12,24.12,0,0,1-6.76.33c-.78.14-2.49,0-2.15.43.57.84,2.71.39,4.11.58a45,45,0,0,1,8.42.28c-3.15.83-5.85.48-8.42.48l-7.25.7c4,1.16,8.24.49,12.21.77h6.28c-4.1,1.45-8.7,1.6-13.3,1.75l-2,.85,5,.07a37.38,37.38,0,0,1,7.29.23c-5.57-.69-6.38,1.73-9.62,2.75l4,.09c-2.88.23-3.3,2.36-6.69,2.14,0,.85,0,.85,3,1a18.3,18.3,0,0,1,5.42.35c-4.49-.27-6.38,1.15-9.45,1.38,0,.14,0,.27,0,.41,2.91.08,2.25,1.14,2.23,1.85s-1.6.92-3.17.77a7.08,7.08,0,0,0-3,1.35l4,1H56c-.89,1.18-2.85.73-4.43.76l-1,.07c2.36.85,0,1.18-.85,1.66l0,0a.69.69,0,0,0-.17.1v.41c3.55.86,2.58,1.74.07,2.63-1.51.28-1.93.73-1.06,1.38,3.57.68,1,1.38.18,2.06h0a1,1,0,0,0-.14.17h0c-1.55,1.33.22,2.67,0,4-1.42,7.23-1.09,14.48-1,21.72,1.53.48.79,1.16.81,1.78v2.3c-.07.75.86,1.56-.74,2.21.85.68,1.1,1.42.71,2.19-.23,4-.47,8-.7,12h0c-.55,5,1.87,10,1,15h0c0,.48,0,1,0,1.43l0,1.72.21,4.9c1.61.73,4.36,0,5.83.94l3,.86H52.71c.77.83,2.45.87,4.1.94,2.12-.08,4.32-.27,6.48.76H57.76a9.8,9.8,0,0,0-4,.68c.81.49,2.07.17,3,.34A13.41,13.41,0,0,0,61,541.51c-3-.15-5.49.57-8.25.59,2.47.86,5.4.19,8,.49,2.14-.4,3.62.23,3.73.92s-2,.16-2.9.41a24.48,24.48,0,0,1-6.76.33c-.77.13-2.49,0-2.15.42.57.86,2.71.39,4.11.59a45,45,0,0,1,8.42.28c-3.15.84-5.85.47-8.42.48l-7.25.69c4,1.16,8.24.49,12.22.77H68c-4.1,1.45-8.69,1.61-13.29,1.76-.68.28-1.32.56-2,.85,1.66,0,3.34,0,5,.07a36.6,36.6,0,0,1,7.29.22c-5.57-.68-6.38,1.74-9.62,2.75l4.05.1c-2.88.23-3.29,2.36-6.68,2.13,0,.85,0,.85,3,1a18.33,18.33,0,0,1,5.41.36c-4.49-.27-6.38,1.15-9.44,1.37v.41c2.91.1,2.26,1.15,2.24,1.86s-1.6.91-3.18.76a7.2,7.2,0,0,0-3,1.36l4,1H56.2c-.89,1.18-2.85.73-4.43.76-.33,0-.68,0-1,.06,2.36.86,0,1.19-.85,1.68h0a.49.49,0,0,0-.16.1v.42c3.55.85,2.57,1.73.07,2.62-1.51.28-1.93.73-1.07,1.38,3.57.69,1,1.38.18,2.07h0a1,1,0,0,0-.14.18h0c-1.55,1.34.22,2.68,0,4-1.42,7.23-1.09,14.48-1,21.73,1.53.47.8,1.16.81,1.77v2.3c-.07.76.86,1.57-.74,2.21.85.69,1.1,1.42.71,2.19q-.3,5.29-.62,10.58c.27,4.1,1.75,8.19,1,12.3h0c0,.47,0,1,0,1.43s0,1.14,0,1.72l.21,4.9c1.61.72,4.37,0,5.83.93l3,.87H53.06c.76.83,2.44.87,4.09.93,2.13-.07,4.32-.27,6.49.76H58.11a9.88,9.88,0,0,0-4,.68c.81.5,2.07.18,3,.35a13.62,13.62,0,0,0,4.2,1.14c-3-.16-5.49.57-8.24.59,2.47.85,5.4.19,8,.49,2.14-.41,3.63.22,3.74.92s-2,.15-2.91.4a24.46,24.46,0,0,1-6.76.33c-.76.14-2.48-.05-2.15.43.58.85,2.71.39,4.11.58a45.1,45.1,0,0,1,8.43.28c-3.16.84-5.85.48-8.43.49l-7.24.69c4,1.16,8.24.49,12.21.77h6.28c-4.1,1.45-8.7,1.6-13.3,1.75l-2,.85,5,.07a37.38,37.38,0,0,1,7.29.23c-5.57-.69-6.38,1.73-9.63,2.75l4.06.09c-2.88.24-3.29,2.36-6.69,2.14,0,.84,0,.84,3,1a17.59,17.59,0,0,1,5.4.36c-4.49-.27-6.38,1.14-9.44,1.37,0,.13,0,.27,0,.41,2.9.09,2.26,1.14,2.23,1.85s-1.6.92-3.17.77a7.19,7.19,0,0,0-3,1.36l4,1h4.43c-.9,1.18-2.85.74-4.43.77l-1,.06c2.36.86,0,1.18-.85,1.67h0a.5.5,0,0,0-.16.11v.41c3.54.86,2.56,1.73.07,2.63-1.51.28-1.94.73-1.08,1.37,3.57.69,1,1.38.19,2.07h0a1,1,0,0,0-.14.17h.06c-1.55,1.33.22,2.67,0,4-1.43,7.23-1.08,14.47-1,21.72,1.54.48.81,1.17.81,1.78v2.3c-.07.75.87,1.57-.74,2.21.85.69,1.1,1.42.71,2.19Q48.51,715.55,48.12,722Z"/><path class="cls-10" d="M33.08,837.57a90.92,90.92,0,0,1,7-29c3.44-8.44,7.6-17.06,14.17-23.67,3.19-3.2,7-6.17,11.7-6.85s8.86,1.13,12.34,3.85c7.41,5.8,12,14.31,15.76,22.61a100.13,100.13,0,0,1,8.16,27.73,38,38,0,0,1,.08,11.95,31.89,31.89,0,0,1-3.69,10.1,35.57,35.57,0,0,1-15.77,14.45,35.17,35.17,0,0,1-21.54,2.74,35.8,35.8,0,0,1-17.45-9,34.07,34.07,0,0,1-10.2-19A37,37,0,0,1,33.08,837.57Z"/><path class="cls-11" d="M47.66,826.87H46.25a.25.25,0,0,1-.25-.33l.29-1.43a.42.42,0,0,1,.39-.33H48.1a.26.26,0,0,1,.25.33l-.3,1.43A.42.42,0,0,1,47.66,826.87Z"/><path class="cls-11" d="M50.4,826.87H49a.26.26,0,0,1-.25-.33l.3-1.43a.42.42,0,0,1,.39-.33h1.41a.25.25,0,0,1,.25.33l-.29,1.43A.42.42,0,0,1,50.4,826.87Z"/><path class="cls-11" d="M57.7,819.61l-3.15,15.2a.49.49,0,0,1-.45.39H52.8a.3.3,0,0,1-.3-.39l3.14-15.2a.5.5,0,0,1,.46-.38h1.3A.3.3,0,0,1,57.7,819.61Z"/><path class="cls-11" d="M84.34,825.16l-.85,4.1a.49.49,0,0,1-.46.38h-1.3a.3.3,0,0,1-.3-.38l.85-4.1a.51.51,0,0,1,.46-.38H84A.31.31,0,0,1,84.34,825.16Z"/><path class="cls-11" d="M61.58,814.06l-4.87,23.53a.48.48,0,0,1-.45.38H55a.3.3,0,0,1-.3-.38l4.87-23.53a.5.5,0,0,1,.45-.39h1.31A.3.3,0,0,1,61.58,814.06Z"/><path class="cls-11" d="M64.9,811.28l-6,29.09a.5.5,0,0,1-.46.38h-1.3a.3.3,0,0,1-.3-.38l6-29.09a.49.49,0,0,1,.46-.38h1.3A.3.3,0,0,1,64.9,811.28Z"/><path class="cls-11" d="M74.15,819.61,71.58,832a.48.48,0,0,1-.46.38h-1.3a.29.29,0,0,1-.29-.38l2.57-12.43a.49.49,0,0,1,.45-.38h1.3A.3.3,0,0,1,74.15,819.61Z"/><path class="cls-11" d="M69.25,816.83,65,837.59a.49.49,0,0,1-.46.38H63.2a.3.3,0,0,1-.3-.38l4.3-20.76a.49.49,0,0,1,.45-.38H69A.3.3,0,0,1,69.25,816.83Z"/><path class="cls-11" d="M76.42,822.39,75,829.26a.47.47,0,0,1-.44.38H73.24a.3.3,0,0,1-.3-.38l1.42-6.87a.5.5,0,0,1,.46-.38h1.31A.3.3,0,0,1,76.42,822.39Z"/><path class="cls-11" d="M71.41,819.61l-3.14,15.2a.5.5,0,0,1-.46.39h-1.3a.31.31,0,0,1-.3-.39l3.15-15.2a.49.49,0,0,1,.45-.38h1.3A.29.29,0,0,1,71.41,819.61Z"/><path class="cls-11" d="M65.91,819.61,63.34,832a.5.5,0,0,1-.46.38h-1.3a.29.29,0,0,1-.29-.38l2.57-12.43a.49.49,0,0,1,.45-.38h1.3A.3.3,0,0,1,65.91,819.61Z"/><path class="cls-11" d="M78.15,826.87H76.73a.26.26,0,0,1-.25-.33l.3-1.43a.42.42,0,0,1,.38-.33h1.42a.25.25,0,0,1,.25.33l-.29,1.43A.42.42,0,0,1,78.15,826.87Z"/><path class="cls-11" d="M80.88,826.87H79.46a.26.26,0,0,1-.25-.33l.3-1.43a.41.41,0,0,1,.38-.33h1.42a.26.26,0,0,1,.25.33l-.3,1.43A.41.41,0,0,1,80.88,826.87Z"/><path class="cls-11" d="M86.4,826.87H85a.26.26,0,0,1-.25-.33l.3-1.43a.42.42,0,0,1,.39-.33h1.41a.25.25,0,0,1,.25.33l-.29,1.43A.42.42,0,0,1,86.4,826.87Z"/><path class="cls-11" d="M89.14,826.87H87.72a.26.26,0,0,1-.25-.33l.3-1.43a.42.42,0,0,1,.38-.33h1.42a.25.25,0,0,1,.25.33l-.3,1.43A.41.41,0,0,1,89.14,826.87Z"/><path class="cls-11" d="M54.38,822.39,53,829.26a.48.48,0,0,1-.45.38h-1.3a.29.29,0,0,1-.3-.38l1.42-6.87a.49.49,0,0,1,.46-.38h1.3A.29.29,0,0,1,54.38,822.39Z"/><polygon class="cls-11" points="60.91 782.26 60.91 782.26 60.91 782.26 60.91 782.26"/><path class="cls-12" d="M67.15,773.42c-22.44,0-40.63,19.73-40.63,44.07v16.29h2v-6.73c.2,6.27,1.28,11.05,2.57,11.05h8.7a1.75,1.75,0,0,0,1.73-1.77V813.41a1.75,1.75,0,0,0-1.73-1.76H35.53a32.49,32.49,0,0,1,63.23,0H94.53a1.75,1.75,0,0,0-1.74,1.76v22.73a33.15,33.15,0,0,1-9.85,4.52A32.5,32.5,0,0,1,71.8,842.1l-.39-1.41a1.2,1.2,0,0,0-1.48-.83l-1.64.49a1.21,1.21,0,0,0-.82,1.49l1.6,5.66a1.2,1.2,0,0,0,1.48.83l1.64-.48a1.22,1.22,0,0,0,.86-1.29c3,.82,8,.5,13.38-1.06,6.23-1.81,11.16-4.77,12.76-7.4h4c1.22,0,2.23-4.16,2.52-9.82v5.5h2V817.49C107.77,793.15,89.58,773.42,67.15,773.42ZM83.9,844.07a32.2,32.2,0,0,1-11.13,1.44l-.67-2.36c3,.81,8,.49,13.37-1.07a35,35,0,0,0,9.08-4h1C93.26,840.32,89,842.59,83.9,844.07Zm21.84-22.6c-.29-5.65-1.3-9.82-2.52-9.82h-3.5c0-.25,0-.51,0-.77a32.59,32.59,0,1,0-65.17,0c0,.26,0,.52,0,.77H31.12c-1.29,0-2.37,4.78-2.57,11.05v-5.21c0-23.13,17.28-41.87,38.6-41.87s38.59,18.74,38.59,41.87Z"/><path class="cls-13" d="M147.47,820.85v3.95H152v-3.95h1.23v9.44H152v-4.43h-4.57v4.43h-1.22v-9.44Z"/><path class="cls-13" d="M159.11,830.29l-.1-.85h0a2.54,2.54,0,0,1-2.08,1,1.93,1.93,0,0,1-2.07-2c0-1.64,1.46-2.54,4.08-2.52v-.14a1.4,1.4,0,0,0-1.55-1.57,3.35,3.35,0,0,0-1.76.5l-.28-.81a4.15,4.15,0,0,1,2.23-.6c2.07,0,2.58,1.41,2.58,2.77v2.54a8.9,8.9,0,0,0,.11,1.62Zm-.19-3.46c-1.34,0-2.87.21-2.87,1.53a1.09,1.09,0,0,0,1.17,1.18,1.69,1.69,0,0,0,1.64-1.14,1.37,1.37,0,0,0,.06-.39Z"/><path class="cls-13" d="M163.54,821.56v2h1.77v.94h-1.77v3.66c0,.84.24,1.31.93,1.31a2.82,2.82,0,0,0,.71-.08l.06.92a3,3,0,0,1-1.1.17,1.69,1.69,0,0,1-1.33-.52,2.49,2.49,0,0,1-.48-1.76v-3.7h-1.05v-.94h1.05v-1.63Z"/><path class="cls-13" d="M171.45,830a4.57,4.57,0,0,1-1.95.39,3.22,3.22,0,0,1-3.38-3.46,3.44,3.44,0,0,1,3.64-3.6,4.07,4.07,0,0,1,1.71.35l-.28.95a2.81,2.81,0,0,0-1.43-.32,2.56,2.56,0,0,0,0,5.1,3.61,3.61,0,0,0,1.52-.33Z"/><path class="cls-13" d="M172.89,820.34h1.24v4.23h0a2.3,2.3,0,0,1,.89-.86,2.53,2.53,0,0,1,1.26-.35c.91,0,2.37.56,2.37,2.9v4h-1.24V826.4c0-1.1-.4-2-1.57-2a1.78,1.78,0,0,0-1.65,1.23,1.51,1.51,0,0,0-.08.59v4.09h-1.24Z"/><path class="cls-13" d="M182.05,821.6a.77.77,0,0,1-1.53,0,.75.75,0,0,1,.77-.77A.74.74,0,0,1,182.05,821.6Zm-1.38,8.69v-6.78h1.24v6.78Z"/><path class="cls-13" d="M184,825.35c0-.71,0-1.28-.06-1.84H185l.07,1.12h0a2.5,2.5,0,0,1,2.24-1.27c.94,0,2.4.56,2.4,2.88v4H188.5v-3.91c0-1.09-.41-2-1.57-2a1.75,1.75,0,0,0-1.66,1.26,1.91,1.91,0,0,0-.08.57v4.08H184Z"/><path class="cls-13" d="M197.58,823.51c0,.49-.05,1-.05,1.86v3.94c0,1.56-.31,2.51-1,3.1a3.58,3.58,0,0,1-2.47.81,4.29,4.29,0,0,1-2.25-.56l.3-.94a3.84,3.84,0,0,0,2,.53c1.27,0,2.19-.65,2.19-2.36v-.76h0a2.41,2.41,0,0,1-2.16,1.13,3,3,0,0,1-2.88-3.3c0-2.3,1.5-3.6,3.05-3.6a2.26,2.26,0,0,1,2.12,1.17h0l.05-1Zm-1.27,2.68a1.91,1.91,0,0,0-.07-.56,1.79,1.79,0,0,0-1.73-1.31c-1.17,0-2,1-2,2.57,0,1.33.68,2.44,2,2.44a1.81,1.81,0,0,0,1.71-1.27,2.1,2.1,0,0,0,.1-.65Z"/><path class="cls-13" d="M202.55,820.34h1.23v9.95h-1.23Z"/><path class="cls-13" d="M209.62,830.29l-.1-.85h-.05a2.51,2.51,0,0,1-2.07,1,1.93,1.93,0,0,1-2.07-2c0-1.64,1.45-2.54,4.07-2.52v-.14a1.4,1.4,0,0,0-1.54-1.57,3.33,3.33,0,0,0-1.76.5l-.28-.81a4.15,4.15,0,0,1,2.23-.6c2.07,0,2.57,1.41,2.57,2.77v2.54a8.84,8.84,0,0,0,.12,1.62Zm-.19-3.46c-1.34,0-2.87.21-2.87,1.53a1.09,1.09,0,0,0,1.16,1.18,1.67,1.67,0,0,0,1.64-1.14,1.4,1.4,0,0,0,.07-.39Z"/><path class="cls-13" d="M214.05,821.56v2h1.76v.94h-1.76v3.66c0,.84.23,1.31.92,1.31a3,3,0,0,0,.72-.08l.05.92a3,3,0,0,1-1.09.17,1.68,1.68,0,0,1-1.33-.52,2.49,2.49,0,0,1-.48-1.76v-3.7h-1.05v-.94h1.05v-1.63Z"/><path class="cls-13" d="M217.81,827.13a2.17,2.17,0,0,0,2.32,2.35,4.41,4.41,0,0,0,1.88-.35l.21.88a5.43,5.43,0,0,1-2.26.42,3.14,3.14,0,0,1-3.33-3.42c0-2,1.2-3.65,3.18-3.65,2.21,0,2.8,1.94,2.8,3.19,0,.25,0,.45,0,.58Zm3.61-.89a1.75,1.75,0,0,0-1.71-2,2,2,0,0,0-1.89,2Z"/><path class="cls-13" d="M226.72,830.29v-.75l1-.94c2.33-2.22,3.38-3.39,3.39-4.77a1.63,1.63,0,0,0-1.81-1.78,3.11,3.11,0,0,0-1.93.77L227,822a4,4,0,0,1,2.58-.92,2.56,2.56,0,0,1,2.79,2.65c0,1.68-1.22,3-3.14,4.89l-.73.67v0h4.09v1Z"/><path class="cls-13" d="M240,825.64c0,3.1-1.15,4.81-3.17,4.81-1.78,0-3-1.67-3-4.68S235.11,821,237,821,240,822.74,240,825.64Zm-4.95.14c0,2.37.73,3.71,1.85,3.71s1.87-1.47,1.87-3.79-.58-3.72-1.85-3.72C235.81,822,235,823.3,235,825.78Z"/><path class="cls-13" d="M243.79,822.33h0l-1.58.86-.24-.94,2-1.07h1v9.11h-1.19Z"/><path class="cls-13" d="M248.19,828a2.61,2.61,0,0,1,1.81-2.44v0a2.27,2.27,0,0,1-1.45-2,2.55,2.55,0,0,1,2.82-2.42,2.36,2.36,0,0,1,2.65,2.24,2.31,2.31,0,0,1-1.5,2.13v0a2.53,2.53,0,0,1,1.83,2.36,2.81,2.81,0,0,1-3.09,2.65C249.34,830.45,248.19,829.31,248.19,828Zm4.91-.06c0-1.1-.77-1.64-2-2a2,2,0,0,0-1.64,1.88,1.68,1.68,0,0,0,1.82,1.74A1.66,1.66,0,0,0,253.1,827.92Zm-3.39-4.55c0,.91.68,1.4,1.73,1.68a1.8,1.8,0,0,0,1.39-1.65,1.42,1.42,0,0,0-1.54-1.49A1.45,1.45,0,0,0,249.71,823.37Z"/><path class="cls-2" d="M102.63,102.08v3.54h3.08V107h-3.08v5.28H100V100.74h6.52v1.34Z"/><path class="cls-2" d="M115.54,106.14c0,2.32-.59,3-2.89,3l-3-.26v1c0,.54.26,1.18,1.64,1.18h3.89v1.07l-4.06.27c-2.56,0-3.7-1-3.7-3.13v-3.39c0-2.09,1.38-3.13,3.75-3.13h.62c2.46,0,3.76,1,3.76,3.13Zm-2.27-.36c0-1.25-.38-1.77-1.64-1.77h-.35c-1.21,0-1.64.57-1.64,1.77v2.14h1.64a3,3,0,0,0,1.47-.24c.4-.29.52-.78.52-1.54Z"/><path class="cls-2" d="M125.57,109.29c0,2.09-1.33,3.09-3.75,3.09h-.62c-2.44,0-3.75-1-3.75-3.09V100c2,0,2.19.09,2.19,2.72v.43l3-.3a2.8,2.8,0,0,1,2.92,3.08Zm-2.26-3.36c0-1.24-.45-1.74-1.71-1.74h-2v5.18c0,1.23.49,1.77,1.71,1.77h.32c1.24,0,1.64-.54,1.64-1.77Z"/><path class="cls-2" d="M134.3,106.37h-1.56c0-1.75-.67-2.24-1.92-2.24h-1.14v8.12h-2.2V103l3.81-.33c1.81,0,3.49,1,3.18,2.77Z"/><path class="cls-2" d="M140,112.37c-2.78,0-4-1-4-3.13v-6.37c2.1,0,2.27.16,2.27,3.1v3.27c0,1.26.5,1.78,1.76,1.78h1.85v-8.15h2.25v9.2Z"/><path class="cls-2" d="M149.91,112.38c-2.71,0-3.84-1-3.84-3.13v-.31c0-2.09,1.21-3,2.89-3,1,0,2,.14,3,.19v-.75c0-.83-.49-1.22-2.6-1.22h-2.78v-1.13l3-.31c3.49,0,4.6,1,4.6,3.25v6.07Zm2.08-5.22h-2c-1.25,0-1.61.49-1.61,1.78v.38c0,1.28.38,1.78,1.66,1.78h2Z"/><path class="cls-2" d="M163,106.37h-1.55c0-1.75-.68-2.24-1.92-2.24h-1.14v8.12h-2.2V103l3.81-.33c1.81,0,3.49,1,3.18,2.77Z"/><path class="cls-2" d="M172.93,112.51c0,1.76-.89,2.61-3.53,2.61l-4.74-.3v-1h4.69c1.14,0,1.38-.52,1.38-.78v-.94l-3,.28c-1.47,0-2.84-.64-2.84-3.08v-6.4c2.23,0,2.23,0,2.23,2.37v4c0,1.3.21,1.75,1.73,1.75h1.89v-8.15h2.2Z"/><path class="cls-2" d="M186.15,105.17l-4.74,5.74h4.88v1.34h-7.84v-1.47l5.16-6.35v0a2.08,2.08,0,0,0-2.27-2.44h-2.78v-1.21l3.27-.23c3.51,0,4.58,1.46,4.58,2.89A7.5,7.5,0,0,1,186.15,105.17Z"/><path class="cls-2" d="M197.17,109.24c0,3.23-3.47,3.09-4.93,3.09-2.64,0-4.23-.91-4.23-3.09v-5.49c0-2.18,1.57-3.09,4.23-3.09H193c2.65,0,4.22.91,4.22,3.09Zm-2.63-5.57c0-1.3-.58-1.77-1.88-1.77h-.12c-1.3,0-1.91.47-1.91,1.77v5.65c0,1.28.61,1.75,1.91,1.75h.12c1.3,0,1.88-.47,1.88-1.75Z"/><path class="cls-2" d="M200.07,112.25V102l-1.73-.22v-1.06h4.39v11.51Z"/><path class="cls-2" d="M213.8,109.36c0,2.09-1.36,3-4.25,3h-.68c-2.88,0-4.23-.93-4.23-3V109a2.28,2.28,0,0,1,1.88-2.61,2.18,2.18,0,0,1-1.88-2.56v-.17c0-2.06,1.26-3.05,4.15-3.05h.85c2.88,0,4.16,1,4.16,3.05v.17a2.26,2.26,0,0,1-2.21,2.55c1.33.22,2.21.63,2.21,2.62Zm-2.68-5.73c0-1.29-.5-1.76-1.85-1.76h-.21c-1.34,0-1.85.47-1.85,1.76v.75a1.38,1.38,0,0,0,1.53,1.31h.9a1.37,1.37,0,0,0,1.48-1.31Zm0,4.78a1.36,1.36,0,0,0-1.48-1.44h-.9a1.4,1.4,0,0,0-1.53,1.44v1c0,1.27.51,1.77,1.91,1.77h.1c1.4,0,1.92-.49,1.9-1.77Z"/><text class="cls-14" transform="translate(100 133.27)"><tspan class="cls-15" x="0" y="0">Clutchat Initialization</tspan><tspan x="0" y="24"></tspan></text><path class="cls-2" d="M111.75,222.23V212h-.68v-.05l-3.49,10.31h-1.79l-3.59-10.31V212h-.63v10.26H100v-11.5h4.43l2.87,8.59c.83-2.59,1.92-6,2.73-8.59h4.38v11.5Z"/><path class="cls-2" d="M120.14,222.37c-2.71,0-3.84-1-3.84-3.13v-.31c0-2.1,1.21-3.05,2.89-3,1,.05,2,.14,3,.19v-.74c0-.83-.49-1.23-2.6-1.23h-2.78V213l3-.31c3.5,0,4.6,1,4.6,3.26v6.07Zm2.08-5.23h-2c-1.25,0-1.61.49-1.61,1.79v.38c0,1.28.38,1.78,1.66,1.78h2Z"/><path class="cls-2" d="M133.28,216.35h-1.56c0-1.75-.67-2.23-1.92-2.23h-1.14v8.11h-2.2V213l3.81-.33c1.81,0,3.49,1,3.18,2.77Z"/><path class="cls-2" d="M138.92,222.37c-2.27,0-4.15-.43-4.15-3.13V215.9c0-3.15,2.46-3.18,4.15-3.18l2.23.22v1.12H139c-1.66,0-2,.3-2,1.79v3.39c0,1.48.31,1.78,2,1.78h2.11v1.12Z"/><path class="cls-2" d="M150.74,222.23c-2.27,0-2.23,0-2.23-2.39v-3.92c0-1.25-.38-1.77-1.73-1.77h-1.89v8.08H142.7V210c2.16,0,2.19.05,2.19,3.06l3-.24a2.76,2.76,0,0,1,2.84,3.1Z"/><path class="cls-2" d="M163.82,215.15l-4.74,5.75H164v1.33h-7.83v-1.47l5.15-6.35v.05A2.08,2.08,0,0,0,159,212h-2.78v-1.21l3.27-.22c3.51,0,4.58,1.45,4.58,2.89A7.49,7.49,0,0,1,163.82,215.15Z"/><path class="cls-2" d="M174.85,219.22c0,3.23-3.48,3.1-4.93,3.1-2.65,0-4.24-.92-4.24-3.1v-5.48c0-2.18,1.57-3.1,4.24-3.1h.71c2.64,0,4.22.92,4.22,3.1Zm-2.63-5.57c0-1.3-.59-1.76-1.89-1.76h-.12c-1.3,0-1.9.46-1.9,1.76v5.66c0,1.28.6,1.74,1.9,1.74h.12c1.3,0,1.89-.46,1.89-1.74Z"/><path class="cls-2" d="M177.74,222.23V212l-1.73-.23v-1.05h4.4v11.5Z"/><path class="cls-2" d="M191.48,219.34c0,2.09-1.37,3-4.26,3h-.67c-2.89,0-4.24-.94-4.24-3V219a2.27,2.27,0,0,1,1.89-2.61,2.19,2.19,0,0,1-1.89-2.56v-.18c0-2.06,1.26-3,4.15-3h.85c2.89,0,4.17,1,4.17,3v.18c0,1.86-1,2.31-2.22,2.54,1.34.22,2.22.64,2.22,2.63Zm-2.68-5.72c0-1.3-.5-1.77-1.85-1.77h-.21c-1.35,0-1.85.47-1.85,1.77v.74a1.37,1.37,0,0,0,1.52,1.31h.9a1.37,1.37,0,0,0,1.49-1.31Zm0,4.77a1.37,1.37,0,0,0-1.49-1.44h-.9a1.39,1.39,0,0,0-1.52,1.44v1c0,1.26.5,1.76,1.9,1.76h.11c1.4,0,1.91-.48,1.9-1.76Z"/><text class="cls-14" transform="translate(100 243.27)">Clutchat Alpha<tspan x="0" y="24">Bounty Rewards Begin</tspan></text><path class="cls-2" d="M107.4,332.39l-.59-2.65v.07h-4.18v-.07c-.19.85-.43,1.8-.62,2.65h-2l2.94-11.51h4.13l3.17,11.51Zm-2.25-10.26h-.9l-1.33,6.35h3.64Z"/><path class="cls-2" d="M119.64,329.31a2.81,2.81,0,0,1-2.93,3.08l-3-.28v.17a6.57,6.57,0,0,1-.24,2.35c-.31.57-.86.61-1.95.61V323.17l4.37-.33c2.34,0,3.76,1,3.76,3.08Zm-2.25-3.26c0-1.21-.47-1.73-1.71-1.73h-1.92v6.73h2c1.26,0,1.64-.5,1.64-1.74Z"/><path class="cls-2" d="M128.36,326.5H126.8c0-1.74-.67-2.23-1.92-2.23h-1.14v8.12h-2.19v-9.22l3.8-.33c1.82,0,3.5,1,3.18,2.76Z"/><path class="cls-2" d="M132.6,321.37c0,.27-.24.58-1.17.58h-.28c-1,0-1.18-.31-1.18-.58v-.76c0-.28.25-.61,1.18-.61h.28c.93,0,1.17.33,1.17.61Zm-2.4,11V323h2.2v9.38Z"/><path class="cls-2" d="M136.81,332.39h-2.2V320.16c2.1,0,2.2.13,2.2,2.85Z"/><path class="cls-2" d="M150,325.31l-4.74,5.74h4.88v1.34h-7.84v-1.48l5.16-6.34v.05a2.09,2.09,0,0,0-2.27-2.44h-2.78V321l3.26-.23c3.52,0,4.59,1.46,4.59,2.89A7.5,7.5,0,0,1,150,325.31Z"/><path class="cls-2" d="M161.05,329.38c0,3.23-3.47,3.09-4.93,3.09-2.64,0-4.23-.92-4.23-3.09v-5.49c0-2.18,1.57-3.09,4.23-3.09h.71c2.65,0,4.22.91,4.22,3.09Zm-2.63-5.57c0-1.3-.58-1.77-1.88-1.77h-.12c-1.3,0-1.91.47-1.91,1.77v5.65c0,1.28.61,1.75,1.91,1.75h.12c1.3,0,1.88-.47,1.88-1.75Z"/><path class="cls-2" d="M164,332.39V322.16l-1.73-.22v-1.06h4.39v11.51Z"/><path class="cls-2" d="M177.68,329.5c0,2.09-1.36,3-4.25,3h-.68c-2.88,0-4.23-.93-4.23-3v-.37a2.28,2.28,0,0,1,1.88-2.61,2.18,2.18,0,0,1-1.88-2.56v-.17c0-2.06,1.26-3.05,4.15-3.05h.85c2.88,0,4.16,1,4.16,3.05V324a2.24,2.24,0,0,1-2.21,2.54c1.33.23,2.21.64,2.21,2.63ZM175,323.77c0-1.3-.5-1.76-1.85-1.76h-.21c-1.34,0-1.85.46-1.85,1.76v.74a1.38,1.38,0,0,0,1.53,1.32h.9a1.37,1.37,0,0,0,1.48-1.32Zm0,4.78a1.36,1.36,0,0,0-1.48-1.44h-.9a1.39,1.39,0,0,0-1.53,1.44v1c0,1.27.51,1.77,1.91,1.77h.1c1.4,0,1.92-.49,1.9-1.77Z"/><text class="cls-14" transform="translate(100 353.27)"><tspan class="cls-17" x="0" y="0">Moment of Tokenization</tspan></text><path class="cls-2" d="M111.54,441.44V431.36h-.66v-.05l-3.43,10.13h-1.76l-3.53-10.13v.05h-.61v10.08H100v-11.3h4.35l2.82,8.44c.82-2.55,1.89-5.89,2.69-8.44h4.3v11.3Z"/><path class="cls-2" d="M119.79,441.58c-2.67,0-3.78-1-3.78-3.08v-.31c0-2.05,1.19-3,2.84-2.92,1,.05,2,.14,3,.19v-.73c0-.82-.48-1.21-2.55-1.21h-2.74v-1.11l2.94-.3c3.44,0,4.52.93,4.52,3.19v6Zm2-5.14h-2c-1.22,0-1.58.48-1.58,1.75v.38c0,1.26.38,1.75,1.63,1.75h2Z"/><path class="cls-2" d="M134,441.69c0,1.74-.87,2.57-3.47,2.57l-4.66-.29v-1h4.61c1.12,0,1.36-.51,1.36-.76v-.92l-3,.27c-1.44,0-2.78-.63-2.78-3v-6.29c2.19,0,2.19,0,2.19,2.33v4c0,1.27.2,1.71,1.7,1.71h1.85v-8H134Z"/><path class="cls-2" d="M147,434.49l-4.66,5.64h4.79v1.31h-7.7V440l5.07-6.24v.05a2.05,2.05,0,0,0-2.23-2.4h-2.74v-1.19l3.22-.22c3.45,0,4.5,1.43,4.5,2.84A8.14,8.14,0,0,1,147,434.49Z"/><path class="cls-2" d="M157.82,438.48c0,3.18-3.42,3-4.85,3-2.6,0-4.16-.9-4.16-3v-5.39c0-2.14,1.54-3,4.16-3h.7c2.6,0,4.15.9,4.15,3ZM155.23,433c0-1.28-.58-1.74-1.85-1.74h-.12c-1.27,0-1.87.46-1.87,1.74v5.56c0,1.26.6,1.71,1.87,1.71h.12c1.27,0,1.85-.45,1.85-1.71Z"/><path class="cls-2" d="M160.66,441.44V431.39l-1.7-.22v-1h4.31v11.3Z"/><path class="cls-2" d="M174.15,438.6c0,2.06-1.34,3-4.18,3h-.66c-2.84,0-4.17-.92-4.17-3v-.36a2.24,2.24,0,0,1,1.86-2.56,2.15,2.15,0,0,1-1.86-2.52V433c0-2,1.24-3,4.08-3h.84c2.83,0,4.09,1,4.09,3v.17a2.21,2.21,0,0,1-2.17,2.5c1.31.22,2.17.63,2.17,2.58ZM171.52,433c0-1.27-.5-1.73-1.82-1.73h-.21c-1.32,0-1.81.46-1.81,1.73v.74a1.34,1.34,0,0,0,1.49,1.29h.89a1.35,1.35,0,0,0,1.46-1.29Zm0,4.7a1.34,1.34,0,0,0-1.46-1.41h-.89a1.36,1.36,0,0,0-1.49,1.41v.95c0,1.24.49,1.73,1.87,1.73h.1c1.37,0,1.88-.47,1.87-1.73Z"/><text class="cls-14" transform="translate(100 463.27)"><tspan class="cls-21" x="0" y="0">Clutchat Closed Beta</tspan><tspan x="0" y="24">Whitepaper Final</tspan></text><path class="cls-2" d="M106.24,548.6c0,3.11-2.73,3.16-4.67,3.16l-1.57-.22v-1.23h1.5c1.89,0,2.1-.59,2.12-1.64,0-2.58,0-5.95,0-8.53h2.66Z"/><path class="cls-2" d="M112.25,551.76c-2.78,0-4-1-4-3.13v-6.36c2.09,0,2.27.15,2.27,3.09v3.27c0,1.26.5,1.78,1.76,1.78h1.85v-8.14h2.25v9.2Z"/><path class="cls-2" d="M124.43,549.24v-3.88c0-1.24-.39-1.78-1.64-1.78h-2v8.06h-2.25v-9.17l4.43-.32c2.39,0,3.7,1,3.7,3.13v6.36C124.42,551.64,124.43,551.61,124.43,549.24Z"/><path class="cls-2" d="M136.7,545.54c0,2.31-.59,3-2.89,3l-3-.26v1c0,.54.26,1.18,1.65,1.18h3.89v1.07l-4.07.28c-2.56,0-3.7-1-3.7-3.13v-3.39c0-2.09,1.39-3.13,3.76-3.13H133c2.46,0,3.75,1,3.75,3.13Zm-2.26-.37c0-1.24-.38-1.76-1.65-1.76h-.34c-1.21,0-1.65.57-1.65,1.76v2.15h1.65a3,3,0,0,0,1.47-.25c.4-.29.52-.77.52-1.53Z"/><path class="cls-2" d="M149.68,544.57l-4.74,5.74h4.88v1.33H142v-1.47l5.15-6.35v0a2.08,2.08,0,0,0-2.27-2.43h-2.78v-1.21l3.27-.23c3.51,0,4.58,1.45,4.58,2.89A7.6,7.6,0,0,1,149.68,544.57Z"/><path class="cls-2" d="M160.71,548.63c0,3.24-3.48,3.1-4.93,3.1-2.65,0-4.24-.92-4.24-3.1v-5.48c0-2.18,1.57-3.1,4.24-3.1h.71c2.64,0,4.22.92,4.22,3.1Zm-2.63-5.57c0-1.3-.59-1.76-1.89-1.76h-.12c-1.3,0-1.9.46-1.9,1.76v5.66c0,1.28.6,1.75,1.9,1.75h.12c1.3,0,1.89-.47,1.89-1.75Z"/><path class="cls-2" d="M163.6,551.64V541.42l-1.73-.23v-1.05h4.39v11.5Z"/><path class="cls-2" d="M177.34,548.75c0,2.1-1.37,3-4.26,3h-.67c-2.89,0-4.24-.93-4.24-3v-.36a2.27,2.27,0,0,1,1.89-2.61,2.19,2.19,0,0,1-1.89-2.56V543c0-2,1.26-3,4.15-3h.85c2.89,0,4.17,1,4.17,3v.18a2.25,2.25,0,0,1-2.22,2.54c1.34.23,2.22.64,2.22,2.63ZM174.66,543c0-1.3-.5-1.77-1.85-1.77h-.21c-1.35,0-1.85.47-1.85,1.77v.74a1.37,1.37,0,0,0,1.52,1.32h.9a1.38,1.38,0,0,0,1.49-1.32Zm0,4.77a1.36,1.36,0,0,0-1.49-1.43h-.9a1.39,1.39,0,0,0-1.52,1.43v1c0,1.26.5,1.76,1.9,1.76h.1c1.41,0,1.92-.48,1.91-1.76Z"/><path class="cls-2" d="M106.24,659.19c0,3.11-2.73,3.16-4.67,3.16l-1.57-.22V660.9h1.5c1.89,0,2.1-.59,2.12-1.65,0-2.57,0-6,0-8.52h2.66Z"/><path class="cls-2" d="M112.25,662.35c-2.78,0-4-1-4-3.13v-6.37c2.09,0,2.27.16,2.27,3.1v3.27c0,1.26.5,1.78,1.76,1.78h1.85v-8.15h2.25v9.21Z"/><path class="cls-2" d="M120.75,662.23h-2.2V650c2.1,0,2.2.14,2.2,2.85Z"/><path class="cls-2" d="M131,662.49c0,1.76-.88,2.61-3.53,2.61l-4.74-.29v-1h4.69c1.14,0,1.39-.52,1.39-.78v-.93l-3,.27c-1.47,0-2.84-.64-2.84-3.08v-6.4c2.23,0,2.23,0,2.23,2.37v4c0,1.3.21,1.75,1.73,1.75h1.89v-8.15H131Z"/><path class="cls-2" d="M144.27,655.15l-4.74,5.75h4.87v1.33h-7.83v-1.47l5.15-6.35v.05a2.08,2.08,0,0,0-2.26-2.44h-2.79v-1.21l3.27-.22c3.51,0,4.59,1.45,4.59,2.89A7.49,7.49,0,0,1,144.27,655.15Z"/><path class="cls-2" d="M155.29,659.22c0,3.23-3.48,3.1-4.93,3.1-2.65,0-4.24-.92-4.24-3.1v-5.48c0-2.18,1.58-3.1,4.24-3.1h.71c2.65,0,4.22.92,4.22,3.1Zm-2.63-5.57c0-1.3-.59-1.76-1.89-1.76h-.12c-1.29,0-1.9.46-1.9,1.76v5.66c0,1.28.61,1.74,1.9,1.74h.12c1.3,0,1.89-.46,1.89-1.74Z"/><path class="cls-2" d="M158.18,662.23V652l-1.73-.23v-1h4.4v11.5Z"/><path class="cls-2" d="M171.92,659.34c0,2.09-1.37,3-4.25,3H167c-2.89,0-4.24-.94-4.24-3V659a2.28,2.28,0,0,1,1.89-2.61,2.19,2.19,0,0,1-1.89-2.56v-.18c0-2.06,1.27-3,4.16-3h.84c2.89,0,4.17,1,4.17,3v.18c0,1.86-1,2.31-2.21,2.54,1.33.22,2.21.64,2.21,2.63Zm-2.68-5.72c0-1.3-.5-1.77-1.85-1.77h-.21c-1.35,0-1.85.47-1.85,1.77v.74a1.37,1.37,0,0,0,1.52,1.31h.9a1.37,1.37,0,0,0,1.49-1.31Zm0,4.77a1.37,1.37,0,0,0-1.49-1.44h-.9a1.39,1.39,0,0,0-1.52,1.44v1c0,1.26.5,1.76,1.9,1.76h.11c1.4,0,1.92-.48,1.9-1.76Z"/><text class="cls-14" transform="translate(100 683.27)"><tspan class="cls-15" x="0" y="0">Clutchat Open Beta</tspan><tspan x="0" y="24">Bounty Redemtion Period</tspan></text><text class="cls-14" transform="translate(100 573.27)"><tspan class="cls-18" x="0" y="0">Second-wave Tokenization</tspan></text></svg>
