<?xml version="1.0" encoding="utf-8"?>
<!-- Generator: Adobe Illustrator 22.0.1, SVG Export Plug-In . SVG Version: 6.00 Build 0)  -->
<svg version="1.1" id="Layer_1" xmlns="http://www.w3.org/2000/svg" xmlns:xlink="http://www.w3.org/1999/xlink" x="0px" y="0px"
	 viewBox="0 0 201 251" >
<style type="text/css">
	.st0{stroke:#000000;stroke-miterlimit:10;}
	.st1{fill:#F9A326;}
	.st2{font-family:'MyriadPro-Regular';}
	.st3{font-size:12px;}
	.st4{fill:#F7931E;}
	.st5{fill:url(#SVGID_1_);stroke:#000000;stroke-miterlimit:10;}
	.st6{stroke:#F7931E;stroke-miterlimit:10;}
</style>

<g><radialGradient id="SVGID_1_" cx="60.6675" cy="100.423" r="135.5748" gradientTransform="matrix(1 0 0 1.0143 0 -1.2876)" gradientUnits="userSpaceOnUse">
		<stop  offset="0" style="stop-color:#FCBC4B"/>
		<stop  offset="0.1981" style="stop-color:#FBB642"/>
		<stop  offset="0.5265" style="stop-color:#F9A528"/>
		<stop  offset="0.5521" style="stop-color:#F9A326"/>
		<stop  offset="0.8652" style="stop-color:#F5712E"/>
		<stop  offset="0.9944" style="stop-color:#F2352F"/>
	</radialGradient>
	<path class="st5" d="M41.8,151c1-17.2,5.5-34,12.1-50C59.8,86.5,67,71.6,78.3,60.3c5.5-5.5,12.1-10.6,20.1-11.8
		c7.8-1.1,15.3,1.9,21.3,6.6c12.8,10,20.7,24.7,27.2,39c6.9,15.2,11.8,31.3,14.1,47.8c0.9,6.9,1.4,13.7,0.1,20.6
		c-1.1,6.1-3.3,12-6.3,17.4c-6.1,10.8-15.8,19.5-27.2,24.9c-11.4,5.4-24.6,7.2-37.1,4.7c-11.3-2.2-21.8-7.8-30.1-15.5
		c-9.3-8.8-15.4-20.3-17.6-32.6C42.2,157.9,41.9,154.5,41.8,151z"/>
	<path d="M66.9,132.6h-2.4c-0.3,0-0.5-0.2-0.4-0.6l0.5-2.5c0.1-0.3,0.4-0.6,0.7-0.6h2.4c0.3,0,0.5,0.2,0.4,0.6l-0.5,2.5
		C67.5,132.3,67.2,132.6,66.9,132.6z"/>
	<path d="M71.7,132.6h-2.4c-0.3,0-0.5-0.2-0.4-0.6l0.5-2.5c0.1-0.3,0.4-0.6,0.7-0.6h2.4c0.3,0,0.5,0.2,0.4,0.6l-0.5,2.5
		C72.3,132.3,72,132.6,71.7,132.6z"/>
	<path d="M84.2,120.1l-5.4,26.2c-0.1,0.4-0.4,0.7-0.8,0.7h-2.2c-0.4,0-0.6-0.3-0.5-0.7l5.4-26.2c0.1-0.4,0.4-0.7,0.8-0.7h2.2
		C84.1,119.4,84.3,119.7,84.2,120.1z"/>
	<path d="M130.1,129.7l-1.5,7.1c-0.1,0.4-0.4,0.7-0.8,0.7h-2.2c-0.4,0-0.6-0.3-0.5-0.7l1.5-7.1c0.1-0.4,0.4-0.7,0.8-0.7h2.2
		C130,129,130.2,129.3,130.1,129.7z"/>
	<path d="M90.9,110.5l-8.4,40.6c-0.1,0.4-0.4,0.7-0.8,0.7h-2.2c-0.4,0-0.6-0.3-0.5-0.7l8.4-40.6c0.1-0.4,0.4-0.7,0.8-0.7h2.2
		C90.8,109.9,91,110.2,90.9,110.5z"/>
	<path d="M96.6,105.7l-10.4,50.1c-0.1,0.4-0.4,0.7-0.8,0.7h-2.2c-0.4,0-0.6-0.3-0.5-0.7l10.4-50.1c0.1-0.4,0.4-0.7,0.8-0.7h2.2
		C96.5,105.1,96.7,105.4,96.6,105.7z"/>
	<path d="M112.6,120.1l-4.4,21.4c-0.1,0.4-0.4,0.7-0.8,0.7h-2.2c-0.4,0-0.6-0.3-0.5-0.7l4.4-21.4c0.1-0.4,0.4-0.7,0.8-0.7h2.2
		C112.4,119.4,112.6,119.7,112.6,120.1z"/>
	<path d="M104.1,115.3l-7.4,35.8c-0.1,0.4-0.4,0.7-0.8,0.7h-2.2c-0.4,0-0.6-0.3-0.5-0.7l7.4-35.8c0.1-0.4,0.4-0.7,0.8-0.7h2.2
		C104,114.6,104.2,114.9,104.1,115.3z"/>
	<path d="M116.5,124.9l-2.4,11.8c-0.1,0.4-0.4,0.7-0.8,0.7H111c-0.4,0-0.6-0.3-0.5-0.7l2.4-11.8c0.1-0.4,0.4-0.7,0.8-0.7h2.3
		C116.3,124.2,116.5,124.5,116.5,124.9z"/>
	<path d="M107.9,120.1l-5.4,26.2c-0.1,0.4-0.4,0.7-0.8,0.7h-2.2c-0.4,0-0.6-0.3-0.5-0.7l5.4-26.2c0.1-0.4,0.4-0.7,0.8-0.7h2.2
		C107.7,119.4,107.9,119.7,107.9,120.1z"/>
	<path d="M98.4,120.1l-4.4,21.4c-0.1,0.4-0.4,0.7-0.8,0.7h-2.2c-0.4,0-0.6-0.3-0.5-0.7l4.4-21.4c0.1-0.4,0.4-0.7,0.8-0.7h2.2
		C98.2,119.4,98.4,119.7,98.4,120.1z"/>
	<path d="M119.5,132.6H117c-0.3,0-0.5-0.2-0.4-0.6l0.5-2.5c0.1-0.3,0.4-0.6,0.7-0.6h2.4c0.3,0,0.5,0.2,0.4,0.6l-0.5,2.5
		C120.1,132.3,119.8,132.6,119.5,132.6z"/>
	<path d="M124.2,132.6h-2.4c-0.3,0-0.5-0.2-0.4-0.6l0.5-2.5c0.1-0.3,0.4-0.6,0.7-0.6h2.4c0.3,0,0.5,0.2,0.4,0.6l-0.5,2.5
		C124.8,132.3,124.5,132.6,124.2,132.6z"/>
	<path d="M133.7,132.6h-2.4c-0.3,0-0.5-0.2-0.4-0.6l0.5-2.5c0.1-0.3,0.4-0.6,0.7-0.6h2.4c0.3,0,0.5,0.2,0.4,0.6l-0.5,2.5
		C134.3,132.3,134,132.6,133.7,132.6z"/>
	<path d="M138.4,132.6H136c-0.3,0-0.5-0.2-0.4-0.6l0.5-2.5c0.1-0.3,0.4-0.6,0.7-0.6h2.4c0.3,0,0.5,0.2,0.4,0.6l-0.5,2.5
		C139,132.3,138.7,132.6,138.4,132.6z"/>
	<path d="M78.5,124.9l-2.4,11.8c-0.1,0.4-0.4,0.7-0.8,0.7H73c-0.4,0-0.6-0.3-0.5-0.7l2.4-11.8c0.1-0.4,0.4-0.7,0.8-0.7H78
		C78.4,124.2,78.6,124.5,78.5,124.9z"/>
	<polygon points="89.8,55.7 89.8,55.7 89.7,55.7 	"/>
	<g>
		<path class="st6" d="M100.5,40.5c-38.7,0-70,34-70,75.9v28.1H34v-11.6c0.3,10.8,2.2,19,4.4,19h15c1.6,0,3-1.4,3-3v-39.5
			c0-1.7-1.3-3-3-3H46c6.1-24.8,28.2-43.1,54.5-43.1c26.3,0,48.4,18.3,54.5,43.1h-7.3c-1.7,0-3,1.4-3,3v39.2c-4.1,3-10.1,5.8-17,7.8
			c-7.2,2.1-14.1,2.9-19.2,2.5l-0.7-2.4c-0.3-1.1-1.5-1.7-2.5-1.4l-2.8,0.8c-1.1,0.3-1.7,1.5-1.4,2.6l2.8,9.7
			c0.3,1.1,1.5,1.7,2.5,1.4l2.8-0.8c1-0.3,1.6-1.2,1.5-2.2c5.2,1.4,13.8,0.9,23.1-1.8c10.7-3.1,19.2-8.2,22-12.8h7
			c2.1,0,3.8-7.2,4.3-16.9v9.5h3.5v-28.1C170.5,74.5,139.2,40.5,100.5,40.5z M129.4,162.2c-7.2,2.1-14,2.9-19.2,2.5l-1.2-4.1
			c5.2,1.4,13.8,0.9,23-1.8c6.2-1.8,11.6-4.2,15.6-6.9h1.6C145.5,155.8,138.2,159.7,129.4,162.2z M167,123.3
			c-0.5-9.7-2.2-16.9-4.3-16.9h-6c0-0.4,0-0.9,0-1.3c0-31.5-25.1-57-56.2-57c-31,0-56.2,25.5-56.2,57c0,0.4,0,0.9,0,1.3h-5.9
			c-2.2,0-4.1,8.2-4.4,19v-9c0-39.9,29.8-72.1,66.5-72.1c36.7,0,66.5,32.3,66.5,72.1V123.3z"/>
	</g>
</g>
</svg>
