<?xml version="1.0" encoding="utf-8"?>
<!-- Generator: Adobe Illustrator 22.0.1, SVG Export Plug-In . SVG Version: 6.00 Build 0)  -->
<svg version="1.1" id="Layer_1" xmlns="http://www.w3.org/2000/svg" xmlns:xlink="http://www.w3.org/1999/xlink" x="0px" y="0px"
	 viewBox="0 0 800 300" xml:space="preserve">
<style type="text/css">
	.st0{fill:url(#SVGID_1_);}
	.st1{fill:url(#SVGID_2_);}
	.st2{fill:url(#SVGID_3_);}
	.st3{fill:url(#SVGID_4_);}
	.st4{fill:url(#SVGID_5_);}
	.st5{fill:url(#SVGID_6_);}
	.st6{fill:url(#SVGID_7_);}
	.st7{fill:#00A7DC;}
	.st8{fill:#EC1F24;}
	.st9{fill:#40B349;}
	.st10{fill:#834595;}
	.st11{fill:#F7931E;}
	.st12{font-family:'RogueSansExt-Light';}
	.st13{font-size:12px;}
	.st14{fill:#F2D923;}
	.st15{fill:#F3712F;}
</style>
<g>
	<linearGradient id="SVGID_1_" gradientUnits="userSpaceOnUse" x1="53.6373" y1="124.7319" x2="53.7057" y2="124.7319">
		<stop  offset="0" style="stop-color:#00AEEF"/>
		<stop  offset="3.247172e-02" style="stop-color:#00ACE9"/>
		<stop  offset="5.856399e-02" style="stop-color:#00A8DE"/>
		<stop  offset="8.243862e-02" style="stop-color:#00A3CE"/>
		<stop  offset="0.105" style="stop-color:#059CB9"/>
		<stop  offset="0.1266" style="stop-color:#60919F"/>
		<stop  offset="0.1476" style="stop-color:#8B8280"/>
		<stop  offset="0.168" style="stop-color:#B06E60"/>
		<stop  offset="0.1874" style="stop-color:#D44C3B"/>
		<stop  offset="0.2" style="stop-color:#ED1C24"/>
		<stop  offset="0.219" style="stop-color:#E92725"/>
		<stop  offset="0.2439" style="stop-color:#E13E27"/>
		<stop  offset="0.2721" style="stop-color:#D5572A"/>
		<stop  offset="0.3027" style="stop-color:#C2702F"/>
		<stop  offset="0.3352" style="stop-color:#A88737"/>
		<stop  offset="0.3689" style="stop-color:#81A040"/>
		<stop  offset="0.4" style="stop-color:#39B54A"/>
		<stop  offset="0.6" style="stop-color:#FFDE17"/>
		<stop  offset="0.6085" style="stop-color:#F1CA43"/>
		<stop  offset="0.6284" style="stop-color:#D2A66C"/>
		<stop  offset="0.6492" style="stop-color:#B8897E"/>
		<stop  offset="0.6706" style="stop-color:#A57389"/>
		<stop  offset="0.6928" style="stop-color:#97618F"/>
		<stop  offset="0.7158" style="stop-color:#8C5293"/>
		<stop  offset="0.7402" style="stop-color:#854895"/>
		<stop  offset="0.7668" style="stop-color:#804197"/>
		<stop  offset="0.8" style="stop-color:#7F3F98"/>
		<stop  offset="0.8833" style="stop-color:#F7941D"/>
	</linearGradient>
	<path class="st0" d="M53.7,125.7c0-0.6,0-1.2,0-1.8C53.6,124.5,53.6,125.1,53.7,125.7z"/>
	<linearGradient id="SVGID_2_" gradientUnits="userSpaceOnUse" x1="184.644" y1="124.2884" x2="184.7124" y2="124.2884">
		<stop  offset="0" style="stop-color:#00AEEF"/>
		<stop  offset="3.247172e-02" style="stop-color:#00ACE9"/>
		<stop  offset="5.856399e-02" style="stop-color:#00A8DE"/>
		<stop  offset="8.243862e-02" style="stop-color:#00A3CE"/>
		<stop  offset="0.105" style="stop-color:#059CB9"/>
		<stop  offset="0.1266" style="stop-color:#60919F"/>
		<stop  offset="0.1476" style="stop-color:#8B8280"/>
		<stop  offset="0.168" style="stop-color:#B06E60"/>
		<stop  offset="0.1874" style="stop-color:#D44C3B"/>
		<stop  offset="0.2" style="stop-color:#ED1C24"/>
		<stop  offset="0.219" style="stop-color:#E92725"/>
		<stop  offset="0.2439" style="stop-color:#E13E27"/>
		<stop  offset="0.2721" style="stop-color:#D5572A"/>
		<stop  offset="0.3027" style="stop-color:#C2702F"/>
		<stop  offset="0.3352" style="stop-color:#A88737"/>
		<stop  offset="0.3689" style="stop-color:#81A040"/>
		<stop  offset="0.4" style="stop-color:#39B54A"/>
		<stop  offset="0.6" style="stop-color:#FFDE17"/>
		<stop  offset="0.6085" style="stop-color:#F1CA43"/>
		<stop  offset="0.6284" style="stop-color:#D2A66C"/>
		<stop  offset="0.6492" style="stop-color:#B8897E"/>
		<stop  offset="0.6706" style="stop-color:#A57389"/>
		<stop  offset="0.6928" style="stop-color:#97618F"/>
		<stop  offset="0.7158" style="stop-color:#8C5293"/>
		<stop  offset="0.7402" style="stop-color:#854895"/>
		<stop  offset="0.7668" style="stop-color:#804197"/>
		<stop  offset="0.8" style="stop-color:#7F3F98"/>
		<stop  offset="0.8833" style="stop-color:#F7941D"/>
	</linearGradient>
	<path class="st1" d="M184.7,125.2c0-0.6,0-1.2,0-1.8C184.6,124.1,184.6,124.7,184.7,125.2z"/>
	<linearGradient id="SVGID_3_" gradientUnits="userSpaceOnUse" x1="316.0365" y1="124.3712" x2="316.1048" y2="124.3712">
		<stop  offset="0" style="stop-color:#00AEEF"/>
		<stop  offset="3.247172e-02" style="stop-color:#00ACE9"/>
		<stop  offset="5.856399e-02" style="stop-color:#00A8DE"/>
		<stop  offset="8.243862e-02" style="stop-color:#00A3CE"/>
		<stop  offset="0.105" style="stop-color:#059CB9"/>
		<stop  offset="0.1266" style="stop-color:#60919F"/>
		<stop  offset="0.1476" style="stop-color:#8B8280"/>
		<stop  offset="0.168" style="stop-color:#B06E60"/>
		<stop  offset="0.1874" style="stop-color:#D44C3B"/>
		<stop  offset="0.2" style="stop-color:#ED1C24"/>
		<stop  offset="0.219" style="stop-color:#E92725"/>
		<stop  offset="0.2439" style="stop-color:#E13E27"/>
		<stop  offset="0.2721" style="stop-color:#D5572A"/>
		<stop  offset="0.3027" style="stop-color:#C2702F"/>
		<stop  offset="0.3352" style="stop-color:#A88737"/>
		<stop  offset="0.3689" style="stop-color:#81A040"/>
		<stop  offset="0.4" style="stop-color:#39B54A"/>
		<stop  offset="0.6" style="stop-color:#FFDE17"/>
		<stop  offset="0.6085" style="stop-color:#F1CA43"/>
		<stop  offset="0.6284" style="stop-color:#D2A66C"/>
		<stop  offset="0.6492" style="stop-color:#B8897E"/>
		<stop  offset="0.6706" style="stop-color:#A57389"/>
		<stop  offset="0.6928" style="stop-color:#97618F"/>
		<stop  offset="0.7158" style="stop-color:#8C5293"/>
		<stop  offset="0.7402" style="stop-color:#854895"/>
		<stop  offset="0.7668" style="stop-color:#804197"/>
		<stop  offset="0.8" style="stop-color:#7F3F98"/>
		<stop  offset="0.8833" style="stop-color:#F7941D"/>
	</linearGradient>
	<path class="st2" d="M316.1,125.3c0-0.6,0-1.2,0-1.8C316,124.1,316,124.8,316.1,125.3z"/>
	<linearGradient id="SVGID_4_" gradientUnits="userSpaceOnUse" x1="447.0432" y1="123.9277" x2="447.1115" y2="123.9277">
		<stop  offset="0" style="stop-color:#00AEEF"/>
		<stop  offset="3.247172e-02" style="stop-color:#00ACE9"/>
		<stop  offset="5.856399e-02" style="stop-color:#00A8DE"/>
		<stop  offset="8.243862e-02" style="stop-color:#00A3CE"/>
		<stop  offset="0.105" style="stop-color:#059CB9"/>
		<stop  offset="0.1266" style="stop-color:#60919F"/>
		<stop  offset="0.1476" style="stop-color:#8B8280"/>
		<stop  offset="0.168" style="stop-color:#B06E60"/>
		<stop  offset="0.1874" style="stop-color:#D44C3B"/>
		<stop  offset="0.2" style="stop-color:#ED1C24"/>
		<stop  offset="0.219" style="stop-color:#E92725"/>
		<stop  offset="0.2439" style="stop-color:#E13E27"/>
		<stop  offset="0.2721" style="stop-color:#D5572A"/>
		<stop  offset="0.3027" style="stop-color:#C2702F"/>
		<stop  offset="0.3352" style="stop-color:#A88737"/>
		<stop  offset="0.3689" style="stop-color:#81A040"/>
		<stop  offset="0.4" style="stop-color:#39B54A"/>
		<stop  offset="0.6" style="stop-color:#FFDE17"/>
		<stop  offset="0.6085" style="stop-color:#F1CA43"/>
		<stop  offset="0.6284" style="stop-color:#D2A66C"/>
		<stop  offset="0.6492" style="stop-color:#B8897E"/>
		<stop  offset="0.6706" style="stop-color:#A57389"/>
		<stop  offset="0.6928" style="stop-color:#97618F"/>
		<stop  offset="0.7158" style="stop-color:#8C5293"/>
		<stop  offset="0.7402" style="stop-color:#854895"/>
		<stop  offset="0.7668" style="stop-color:#804197"/>
		<stop  offset="0.8" style="stop-color:#7F3F98"/>
		<stop  offset="0.8833" style="stop-color:#F7941D"/>
	</linearGradient>
	<path class="st3" d="M447.1,124.8c0-0.6,0-1.2,0-1.8C447,123.7,447,124.3,447.1,124.8z"/>
	<linearGradient id="SVGID_5_" gradientUnits="userSpaceOnUse" x1="583.3637" y1="123.6161" x2="583.4321" y2="123.6161">
		<stop  offset="0" style="stop-color:#00AEEF"/>
		<stop  offset="3.247172e-02" style="stop-color:#00ACE9"/>
		<stop  offset="5.856399e-02" style="stop-color:#00A8DE"/>
		<stop  offset="8.243862e-02" style="stop-color:#00A3CE"/>
		<stop  offset="0.105" style="stop-color:#059CB9"/>
		<stop  offset="0.1266" style="stop-color:#60919F"/>
		<stop  offset="0.1476" style="stop-color:#8B8280"/>
		<stop  offset="0.168" style="stop-color:#B06E60"/>
		<stop  offset="0.1874" style="stop-color:#D44C3B"/>
		<stop  offset="0.2" style="stop-color:#ED1C24"/>
		<stop  offset="0.219" style="stop-color:#E92725"/>
		<stop  offset="0.2439" style="stop-color:#E13E27"/>
		<stop  offset="0.2721" style="stop-color:#D5572A"/>
		<stop  offset="0.3027" style="stop-color:#C2702F"/>
		<stop  offset="0.3352" style="stop-color:#A88737"/>
		<stop  offset="0.3689" style="stop-color:#81A040"/>
		<stop  offset="0.4" style="stop-color:#39B54A"/>
		<stop  offset="0.6" style="stop-color:#FFDE17"/>
		<stop  offset="0.6085" style="stop-color:#F1CA43"/>
		<stop  offset="0.6284" style="stop-color:#D2A66C"/>
		<stop  offset="0.6492" style="stop-color:#B8897E"/>
		<stop  offset="0.6706" style="stop-color:#A57389"/>
		<stop  offset="0.6928" style="stop-color:#97618F"/>
		<stop  offset="0.7158" style="stop-color:#8C5293"/>
		<stop  offset="0.7402" style="stop-color:#854895"/>
		<stop  offset="0.7668" style="stop-color:#804197"/>
		<stop  offset="0.8" style="stop-color:#7F3F98"/>
		<stop  offset="0.8833" style="stop-color:#F7941D"/>
	</linearGradient>
	<path class="st4" d="M583.4,124.5c0-0.6,0-1.2,0-1.8C583.4,123.4,583.3,124,583.4,124.5z"/>
	<linearGradient id="SVGID_6_" gradientUnits="userSpaceOnUse" x1="714.3704" y1="123.1726" x2="714.4388" y2="123.1726">
		<stop  offset="0" style="stop-color:#00AEEF"/>
		<stop  offset="3.247172e-02" style="stop-color:#00ACE9"/>
		<stop  offset="5.856399e-02" style="stop-color:#00A8DE"/>
		<stop  offset="8.243862e-02" style="stop-color:#00A3CE"/>
		<stop  offset="0.105" style="stop-color:#059CB9"/>
		<stop  offset="0.1266" style="stop-color:#60919F"/>
		<stop  offset="0.1476" style="stop-color:#8B8280"/>
		<stop  offset="0.168" style="stop-color:#B06E60"/>
		<stop  offset="0.1874" style="stop-color:#D44C3B"/>
		<stop  offset="0.2" style="stop-color:#ED1C24"/>
		<stop  offset="0.219" style="stop-color:#E92725"/>
		<stop  offset="0.2439" style="stop-color:#E13E27"/>
		<stop  offset="0.2721" style="stop-color:#D5572A"/>
		<stop  offset="0.3027" style="stop-color:#C2702F"/>
		<stop  offset="0.3352" style="stop-color:#A88737"/>
		<stop  offset="0.3689" style="stop-color:#81A040"/>
		<stop  offset="0.4" style="stop-color:#39B54A"/>
		<stop  offset="0.6" style="stop-color:#FFDE17"/>
		<stop  offset="0.6085" style="stop-color:#F1CA43"/>
		<stop  offset="0.6284" style="stop-color:#D2A66C"/>
		<stop  offset="0.6492" style="stop-color:#B8897E"/>
		<stop  offset="0.6706" style="stop-color:#A57389"/>
		<stop  offset="0.6928" style="stop-color:#97618F"/>
		<stop  offset="0.7158" style="stop-color:#8C5293"/>
		<stop  offset="0.7402" style="stop-color:#854895"/>
		<stop  offset="0.7668" style="stop-color:#804197"/>
		<stop  offset="0.8" style="stop-color:#7F3F98"/>
		<stop  offset="0.8833" style="stop-color:#F7941D"/>
	</linearGradient>
	<path class="st5" d="M714.4,124.1c0-0.6,0-1.2,0-1.8C714.4,122.9,714.4,123.6,714.4,124.1z"/>
	<linearGradient id="SVGID_7_" gradientUnits="userSpaceOnUse" x1="1.705" y1="143.1" x2="800" y2="143.1">
		<stop  offset="0" style="stop-color:#00AEEF"/>
		<stop  offset="3.247172e-02" style="stop-color:#00ACE9"/>
		<stop  offset="5.856399e-02" style="stop-color:#00A8DE"/>
		<stop  offset="8.243862e-02" style="stop-color:#00A3CE"/>
		<stop  offset="0.105" style="stop-color:#059CB9"/>
		<stop  offset="0.1266" style="stop-color:#60919F"/>
		<stop  offset="0.1476" style="stop-color:#8B8280"/>
		<stop  offset="0.168" style="stop-color:#B06E60"/>
		<stop  offset="0.1874" style="stop-color:#D44C3B"/>
		<stop  offset="0.2" style="stop-color:#ED1C24"/>
		<stop  offset="0.219" style="stop-color:#E92725"/>
		<stop  offset="0.2439" style="stop-color:#E13E27"/>
		<stop  offset="0.2721" style="stop-color:#D5572A"/>
		<stop  offset="0.3027" style="stop-color:#C2702F"/>
		<stop  offset="0.3352" style="stop-color:#A88737"/>
		<stop  offset="0.3689" style="stop-color:#81A040"/>
		<stop  offset="0.4" style="stop-color:#39B54A"/>
		<stop  offset="0.6" style="stop-color:#FFDE17"/>
		<stop  offset="0.6085" style="stop-color:#F1CA43"/>
		<stop  offset="0.6284" style="stop-color:#D2A66C"/>
		<stop  offset="0.6492" style="stop-color:#B8897E"/>
		<stop  offset="0.6706" style="stop-color:#A57389"/>
		<stop  offset="0.6928" style="stop-color:#97618F"/>
		<stop  offset="0.7158" style="stop-color:#8C5293"/>
		<stop  offset="0.7402" style="stop-color:#854895"/>
		<stop  offset="0.7668" style="stop-color:#804197"/>
		<stop  offset="0.8" style="stop-color:#7F3F98"/>
		<stop  offset="0.8833" style="stop-color:#F7941D"/>
	</linearGradient>
	<path class="st6" d="M800,139.1v1.2c-5.7-0.3-11.4,2.2-17.1,1.2h-2.3c-0.9,0.1-1.9,0.2-2.8,0.3c0,0,0,0,0,0c-1.1,2.2-2.3,3.2-3.5,0
		c-0.4-0.1-0.8-0.2-1.1-0.3c-7-2.2-14.1-1.4-21.1-0.7c-4.4,0.5-8.7,0-13.1,1c-1.1,3.5-2.7,0.1-4,1.2c0,4-2.7,1.4-2.6,5.5
		c-0.1-1.4-0.2-2.8-0.3-4.1c-1.1,0.9-2.3-0.7-3.3,1.2c0,3-1.7,4.4-1.7,7.6v-7.5c0-1.3-0.1-2.5-0.1-3.8c-0.8,0.8-1.5,1.6-2.2,2.4
		c-1,3.1-2.1,6.2-2.3,10.4v-9.1h-0.3l-0.3,0c0,3.7-1.2,0.6-1.7,1.3c0.1,4.3-0.1,8.4-1.7,11.5v-7.6c0-0.9-0.1-1.7-0.1-2.6
		c-0.3-0.4-0.7-0.8-1.1-1.1c0.3,3.7-2,2.3-2.1,5.4c-0.5-0.7-0.1-2.6-0.8-2.9c0,0.4-0.1,0.9-0.1,1.3v11.8c-0.7-3.9-0.5-7.8-0.4-11.8
		c0-0.4,0-0.9-0.1-1.3c-0.6,0.4-1.1,0.9-1.7,1.3v0c0,1,0,2.1,0,3.1c0,1.6,0,2.7-1,2.5c-1.2-0.3-0.5-2-0.6-3.1v-9
		c-1.4,1-1.1,3.4-1.3,5.2c0.6,3.8-1.2,5-1.6,7.6c0,0.5-0.1,0.9-0.1,1.3c0.1,3.5,0.3,7-0.2,11.1c-0.5-4.1-0.3-7.6-0.2-11.1v-15.7
		c-1.9,2.1-0.6,8.6-2.9,9.2v14.4c-0.2,0-0.3,0-0.5,0v-14.3c0-1.6-0.1-3.2-0.2-5.4c-0.8,1.7-0.1,4.3-1,5.3c-1,6.3-1.1,12.9-1.6,19.5
		v-25.1c-0.8,1.4-1.3,2.2-1.8,3.1c-0.1,0.1-0.1,0.3-0.2,0.5c0.1-0.2,0.1-0.3,0.2-0.5c0.3,4.5-0.6,8.6-1.1,12.9v-10.3
		c-0.3-0.7,0.4-3-0.7-2.5c0.5,4.1-0.7,7.6-0.4,13.3c-0.5-2.7-0.7-3.7-1.1-5.6c-0.1,3.2-0.2,5.5-0.2,7.7c-0.1,0-0.3,0-0.4,0v-10.3
		c0-1.3-0.1-2.6-0.1-3.9c-2,0-0.6,4.1-1.5,5.6c-1.2-1.6-0.6-4.5-0.7-6.9c0-2.6,0-5.2-0.1-7.8c-2.5-0.1-5-0.2-7.4-0.3
		c-0.4,0.1-0.8,0.2-1.1,0.3c0,0,0,0,0,0c-1,1.8-1.9,1.8-2.9,0c0,0,0,0,0,0c-4.6-0.4-9.3-0.8-14-1.2c-5.1,0.2-10.2,2.1-15.4,1.2h-2.3
		c-1,0.1-1.9,0.2-2.9,0.3c0,0,0,0,0,0c-1.1,2.2-2.3,3.2-3.4,0c-0.4-0.1-0.8-0.2-1.1-0.3c-7-2.2-14.1-1.4-21.1-0.7
		c-4.4,0.5-8.7,0-13.1,1c-1.1,3.5-2.7,0.1-4,1.2c0,4-2.7,1.4-2.6,5.5c-0.1-1.4-0.2-2.8-0.3-4.1c-1.1,0.9-2.3-0.7-3.3,1.2
		c0,3-1.7,4.4-1.7,7.6v-7.5c0-1.3-0.1-2.5-0.1-3.8c-0.7,0.8-1.5,1.6-2.2,2.4c-1,3.1-2.1,6.2-2.3,10.4v-9.1h-0.3l-0.3,0
		c-0.1,3.7-1.2,0.6-1.7,1.3c0.1,4.3-0.1,8.4-1.7,11.5v-7.6c0-0.9-0.1-1.7-0.1-2.6c-0.4-0.4-0.7-0.8-1.1-1.1c0.3,3.7-2,2.3-2.1,5.4
		c-0.5-0.7-0.1-2.6-0.8-2.9c0,0.4,0,0.9-0.1,1.3V163c-0.7-3.9-0.5-7.8-0.4-11.8c0-0.4-0.1-0.9-0.1-1.3c-0.6,0.4-1.1,0.9-1.7,1.3v0
		c0,1.1,0,2.1,0,3.1c0,1.6,0,2.7-1,2.5c-1.2-0.3-0.5-2-0.6-3.1v-9c-1.4,1-1.1,3.4-1.3,5.2c0.6,3.8-1.2,5-1.6,7.6
		c0,0.5,0,0.9-0.1,1.3c0,3.5,0.3,7-0.2,11.1c-0.5-4.1-0.3-7.6-0.2-11.1v-15.7c-1.9,2.1-0.6,8.6-2.9,9.2v14.4c-0.2,0-0.3,0-0.5,0
		v-14.3c-0.1-1.6-0.1-3.2-0.2-5.4c-0.8,1.7-0.1,4.3-1,5.3c-1,6.3-1.1,12.9-1.7,19.5v-25.1c-0.8,1.4-1.3,2.2-1.8,3.1
		c-0.1,0.1-0.1,0.3-0.2,0.5c0.1-0.2,0.1-0.3,0.2-0.5c0.3,4.5-0.6,8.6-1.1,12.9v-10.3c-0.3-0.7,0.4-3-0.7-2.5
		c0.5,4.1-0.7,7.6-0.5,13.3c-0.5-2.7-0.7-3.7-1.1-5.6c-0.1,3.3-0.2,5.5-0.2,7.7c-0.1,0-0.2,0-0.4,0v-10.3c0-1.3-0.1-2.6-0.1-3.8
		c-2,0-0.6,4.1-1.5,5.6c-1.2-1.6-0.6-4.5-0.7-6.9c0-2.6-0.1-5.2-0.1-7.8c-2.5-0.1-4.9-0.2-7.4-0.3c-0.4,0.1-0.7,0.2-1.1,0.3
		c0,0,0,0,0,0c-1,1.8-1.9,1.8-2.9,0c0,0,0,0,0,0c-5.3-0.4-10.6-0.9-15.8-1.3v0.2c-6.3-0.9-12.5,2.1-18.8,1.1h-2.3
		c-1,0.1-1.9,0.2-2.9,0.3c0,0,0,0,0,0c-1.1,2.2-2.3,3.2-3.4,0c-0.4-0.1-0.8-0.2-1.1-0.3c-7-2.2-14.1-1.4-21.2-0.7
		c-4.3,0.5-8.7,0-13.1,1c-1.1,3.5-2.7,0.1-4,1.2c0,4-2.7,1.4-2.6,5.5c-0.1-1.4-0.2-2.8-0.3-4.1c-1.1,0.9-2.3-0.7-3.3,1.2
		c0,3-1.7,4.4-1.7,7.6v-7.5c0-1.3-0.1-2.5-0.1-3.8c-0.7,0.8-1.5,1.6-2.2,2.4c-1,3.1-2.1,6.2-2.3,10.4v-9.1h-0.3l-0.3,0
		c-0.1,3.7-1.2,0.6-1.7,1.3c0.1,4.3-0.1,8.4-1.7,11.5v-7.6c0-0.9-0.1-1.7-0.1-2.6c-0.4-0.4-0.7-0.8-1.1-1.1c0.3,3.7-2,2.3-2.1,5.4
		c-0.5-0.7-0.1-2.6-0.8-3c0,0.4,0,0.9-0.1,1.3v11.7c-0.7-3.9-0.5-7.8-0.4-11.7c0-0.4-0.1-0.9-0.1-1.3c-0.6,0.4-1.1,0.9-1.7,1.3v0
		c0,1,0,2.1,0,3.1c0,1.6,0,2.7-1,2.5c-1.2-0.3-0.5-2-0.6-3.1v-9c-1.4,1-1.1,3.4-1.3,5.2c0.6,3.8-1.2,5-1.6,7.6c0,0.5,0,0.9-0.1,1.3
		c0,3.5,0.3,7-0.2,11.1c-0.5-4.1-0.3-7.6-0.2-11.1v-15.7c-1.9,2.1-0.6,8.6-2.9,9.2v14.4c-0.2,0-0.3,0-0.5,0v-14.3
		c-0.1-1.6-0.1-3.2-0.2-5.4c-0.8,1.7-0.1,4.3-1,5.3c-1,6.3-1.1,13-1.7,19.5v-25.1c-0.8,1.4-1.3,2.2-1.8,3.1
		c-0.1,0.1-0.2,0.3-0.2,0.5c0.1-0.2,0.1-0.3,0.2-0.5c0.3,4.5-0.6,8.6-1.1,12.9v-10.3c-0.3-0.7,0.4-3-0.7-2.5
		c0.5,4.1-0.7,7.6-0.5,13.3c-0.5-2.7-0.7-3.7-1.1-5.6c-0.1,3.2-0.2,5.5-0.2,7.7c-0.1,0-0.2,0-0.4,0v-10.3c0-1.3-0.1-2.6-0.1-3.8
		c-2,0-0.6,4.1-1.5,5.6c-1.2-1.6-0.6-4.5-0.7-6.9c0-2.6-0.1-5.2-0.1-7.8c-2.5-0.1-4.9-0.2-7.4-0.3c-0.4,0.1-0.7,0.2-1.1,0.3
		c0,0,0,0,0,0c-0.9,1.8-1.9,1.8-2.9,0c0,0,0,0,0,0c-4.7-0.4-9.3-0.8-14-1.2c-5.1,0.2-10.3,2.1-15.4,1.2h-2.3c-1,0.1-1.9,0.2-2.8,0.3
		c0,0,0,0,0,0c-1.1,2.2-2.3,3.2-3.5,0c-0.4-0.1-0.8-0.2-1.1-0.3c-7-2.2-14.1-1.4-21.2-0.7c-4.4,0.5-8.7,0-13.1,1
		c-1.1,3.5-2.7,0.1-4,1.2c0,4-2.7,1.4-2.6,5.5c-0.1-1.4-0.2-2.8-0.3-4.1c-1.1,0.9-2.3-0.7-3.3,1.2c0.1,3-1.7,4.4-1.7,7.6v-7.5
		c0-1.3-0.1-2.5-0.1-3.8c-0.8,0.8-1.5,1.6-2.2,2.5c-1,3.1-2.1,6.2-2.3,10.4v-9.1h-0.3l-0.3,0c0,3.7-1.2,0.6-1.7,1.3
		c0.1,4.3-0.1,8.4-1.7,11.5V152c0-0.9-0.1-1.7-0.1-2.6c-0.4-0.4-0.7-0.8-1.1-1.1c0.3,3.7-2,2.3-2.1,5.4c-0.5-0.7-0.1-2.6-0.8-2.9
		c0,0.4-0.1,0.9-0.1,1.3v11.8c-0.7-3.9-0.5-7.8-0.4-11.8c0-0.4-0.1-0.9-0.1-1.3c-0.5,0.4-1.1,0.9-1.7,1.3v0c0,1,0,2.1,0,3.1
		c0,1.6,0,2.7-1,2.5c-1.2-0.3-0.5-2-0.6-3.1v-9c-1.4,1-1.1,3.4-1.3,5.2c0.7,3.8-1.2,5-1.6,7.6c0,0.5-0.1,0.9-0.1,1.3
		c0.1,3.5,0.3,7-0.2,11.1c-0.5-4.1-0.3-7.6-0.2-11.1v-15.7c-1.9,2.2-0.6,8.6-2.9,9.2v14.3c-0.2,0-0.3,0-0.5,0v-14.3
		c0-1.6-0.1-3.2-0.2-5.4c-0.8,1.7-0.1,4.3-1,5.3c-1,6.3-1.1,12.9-1.6,19.5v-25.1c-0.8,1.4-1.3,2.2-1.8,3.1c-0.1,0.1-0.2,0.2-0.2,0.5
		c0.1-0.2,0.1-0.3,0.2-0.5c0.3,4.5-0.6,8.6-1.1,12.9v-10.3c-0.3-0.7,0.4-3-0.7-2.5c0.5,4.1-0.7,7.6-0.5,13.3
		c-0.5-2.7-0.7-3.7-1.1-5.6c-0.1,3.2-0.1,5.5-0.2,7.7c-0.1,0-0.3,0-0.4,0v-10.3c0-1.3-0.1-2.6-0.1-3.9c-2,0-0.6,4.1-1.5,5.6
		c-1.2-1.6-0.6-4.5-0.7-6.9c0-2.6-0.1-5.2-0.1-7.8c-2.5-0.1-4.9-0.2-7.4-0.3c-0.4,0.1-0.8,0.2-1.1,0.3c0,0,0,0,0,0
		c-1,1.8-1.9,1.8-2.9,0c0,0,0,0,0,0c-5.7-0.5-11.5-1-17.2-1.4c-4.2,0.5-8.3,1.7-12.5,1h-2.3c-1,0.1-1.9,0.2-2.8,0.3c0,0,0,0,0,0
		c-1.1,2.2-2.3,3.2-3.5,0c-0.4-0.1-0.8-0.2-1.1-0.3c-7-2.2-14.1-1.4-21.2-0.6c-4.4,0.5-8.7,0-13.1,1c-1.1,3.5-2.7,0.1-4,1.2
		c0,4-2.7,1.4-2.6,5.5c-0.1-1.4-0.2-2.8-0.3-4.1c-1.1,0.9-2.3-0.7-3.3,1.2c0,3-1.7,4.4-1.7,7.6v-7.5c0-1.3-0.1-2.5-0.1-3.8
		c-0.7,0.8-1.5,1.6-2.2,2.4c-1,3.1-2.1,6.2-2.3,10.4v-9.1h-0.3l-0.3,0c-0.1,3.7-1.2,0.6-1.7,1.3c0.1,4.3-0.1,8.4-1.7,11.5v-7.6
		c0-0.9-0.1-1.7-0.1-2.6c-0.4-0.4-0.7-0.8-1.1-1.1c0.3,3.7-2,2.3-2.1,5.4c-0.5-0.7-0.1-2.6-0.8-2.9c0,0.4,0,0.9-0.1,1.3v11.7
		c-0.7-3.9-0.5-7.8-0.4-11.7c0-0.4-0.1-0.9-0.1-1.3c-0.5,0.4-1.1,0.9-1.7,1.3v0c0,1-0.1,2.1,0,3.1c0,1.6,0,2.7-1,2.5
		c-1.2-0.3-0.5-2-0.6-3.1v-9c-1.4,1-1.1,3.4-1.3,5.2c0.7,3.8-1.2,5-1.6,7.6c0,0.5,0,0.9-0.1,1.3c0.1,3.5,0.3,7-0.2,11.1
		c-0.5-4.1-0.3-7.6-0.2-11.1V144c-1.9,2.1-0.6,8.6-2.9,9.2v14.4c-0.2,0-0.4,0-0.5,0v-14.3c0-1.6-0.1-3.2-0.2-5.4
		c-0.8,1.7-0.1,4.3-1,5.3c-1,6.3-1.1,13-1.6,19.5v-25.1c-0.8,1.4-1.3,2.2-1.8,3c-0.1,0.1-0.2,0.3-0.2,0.5c0.1-0.2,0.1-0.3,0.2-0.5
		c0.3,4.5-0.6,8.6-1.1,12.9v-10.3c-0.3-0.7,0.4-3-0.7-2.5c0.5,4.1-0.7,7.6-0.5,13.3c-0.5-2.7-0.7-3.7-1.1-5.6
		c-0.1,3.2-0.1,5.5-0.2,7.7c-0.1,0-0.2,0-0.4,0v-10.4c0-1.3-0.1-2.6-0.1-3.8c-2,0-0.6,4.1-1.5,5.6c-1.2-1.6-0.6-4.5-0.6-6.9
		c0-2.6-0.1-5.2-0.1-7.8c-2.5-0.1-4.9-0.2-7.4-0.3c-0.4,0.1-0.7,0.2-1.1,0.3c0,0,0,0,0,0c-1,1.8-1.9,1.8-2.9,0c0,0,0,0,0,0
		c-4.7-0.4-9.3-0.8-14-1.1c-5.1,0.2-10.3,2.1-15.4,1.2h-2.3c-0.9,0.1-1.9,0.2-2.8,0.3c0,0,0,0,0,0c-1.2,2.2-2.3,3.2-3.5,0
		c-0.4-0.1-0.7-0.2-1.1-0.3c-7-2.2-14.1-1.4-21.1-0.6c-4.4,0.5-8.7,0-13.1,1c-1.1,3.5-2.7,0.1-4,1.2c0,4-2.7,1.4-2.6,5.5
		c-0.1-1.4-0.2-2.8-0.3-4.1c-1.1,0.9-2.3-0.7-3.3,1.2c0,3-1.7,4.4-1.7,7.6v-7.5c0-1.3-0.1-2.5-0.1-3.8c-0.8,0.8-1.5,1.6-2.2,2.5
		c-1,3.1-2.1,6.2-2.3,10.4v-9.1h-0.3l-0.3,0c0,3.7-1.2,0.6-1.7,1.3c0.1,4.3-0.1,8.4-1.7,11.5v-7.6c0-0.9-0.1-1.7-0.1-2.6
		c-0.4-0.4-0.7-0.8-1.1-1.1c0.3,3.7-2,2.3-2.1,5.4c-0.5-0.7-0.1-2.6-0.8-2.9c0,0.4-0.1,0.9-0.1,1.3v11.8c-0.7-3.9-0.5-7.8-0.4-11.8
		c0-0.4-0.1-0.9-0.1-1.3c-0.5,0.4-1.1,0.9-1.7,1.3v0c0,1,0,2.1,0,3.1c0,1.6,0,2.7-1,2.5c-1.2-0.3-0.5-2-0.6-3.1v-9
		c-1.4,1-1.1,3.4-1.3,5.2c0.7,3.8-1.2,5-1.6,7.6c0,0.5-0.1,0.9-0.1,1.3c0.1,3.5,0.3,7-0.2,11.1c-0.5-4.1-0.3-7.6-0.2-11.1v-15.7
		c-1.9,2.1-0.6,8.6-2.9,9.2V168c-0.2,0-0.3,0-0.5,0v-14.3c-0.1-1.6-0.1-3.2-0.2-5.4c-0.8,1.7-0.1,4.3-1,5.3
		c-1,6.3-1.1,12.9-1.6,19.5V148c-0.8,1.4-1.3,2.2-1.8,3.1c-0.1,0.1-0.1,0.2-0.2,0.5c0.1-0.2,0.1-0.3,0.2-0.5
		c0.3,4.5-0.6,8.6-1.1,12.9v-10.3c-0.3-0.7,0.4-3-0.7-2.5c0.5,4.1-0.7,7.6-0.5,13.3c-0.5-2.7-0.7-3.7-1.1-5.6
		c-0.1,3.2-0.2,5.5-0.2,7.7c-0.1,0-0.3,0-0.4,0v-10.3c0-1.3-0.1-2.6-0.1-3.9c-2,0-0.6,4.1-1.5,5.6c-1.2-1.6-0.6-4.5-0.7-6.9
		c0-2.6-0.1-5.2-0.1-7.8c-2.5-0.1-4.9-0.2-7.4-0.3c-0.4,0.1-0.8,0.2-1.1,0.3c0,0,0,0,0,0c-1,1.8-1.9,1.8-2.9,0c0,0,0,0,0,0
		c-6.2-0.5-12.5-1-18.8-1.6c-0.1-0.3-0.1-0.7,0-1c6.4,0.7,12.8-2.4,19.3-1.2v0c0.6,0,1.2,0,1.8,0c0.7,0,1.5,0,2.2,0
		c2.1-0.1,4.2-0.2,6.3-0.3c0.9-2.1,0-5.6,1.2-7.5c0.3-1,0.5-1.9,1.1-3.8v6.2c1.1-1,1.1-3.1,1.2-5.2c-0.1-2.7-0.3-5.5,1-8.3v7.1
		c0.1,1.9,0.1,3.8,0.9,5.2c0.6-1,0.2-2.7,0.4-3.9c0.7-1.4,1.2-3.2,1.5-5.4c-0.2,3.8,0.8,7,0.8,10.6c1.1-3.2,0.2-6.9,0.6-10.3
		c-0.5-2.8,0.3-4.7,1.2-4.8c0.9-0.1,0.2,2.5,0.5,3.7c0.7,2.8,0.5,5.7,0.4,8.7c0.2,1-0.1,3.2,0.5,2.8c1.1-0.8,0.5-3.5,0.8-5.3
		c-0.1-3.3-0.3-6.6,0.4-10.8c1.1,4,0.6,7.5,0.6,10.8c0.3,3,0.6,6,0.9,9.3c1.5-5.1,0.6-10.6,1-15.7v-8.1c1.9,5.3,2,11.2,2.2,17.1
		c0.4,0.9,0.7,1.7,1.1,2.5c0-2.1,0.1-4.3,0.1-6.4c-0.1-3.1-0.3-6.1,0.3-9.4c-0.9,7.1,2.2,8.2,3.5,12.4c0-1.8,0.1-3.5,0.1-5.2
		c0.3,3.7,3,4.2,2.8,8.6c1.1,0,1.1,0,1.3-3.8c-0.1-1.8-0.2-3.7,0.5-6.9c-0.3,5.8,1.5,8.2,1.8,12.1c0.2,0,0.4,0,0.5,0
		c0.1-3.7,1.5-2.9,2.4-2.9c1,0,1.2,2.1,1,4.1c0.4,1.7,1,3,1.7,3.9c0.4-1.7,0.8-3.4,1.3-5.2v-5.7c1.5,1.1,0.9,3.7,1,5.7
		c0,0.4,0.1,0.9,0.1,1.3c1.1-3,1.5-0.1,2.1,1.1c0,0,0,0,0,0c0,0.1,0.1,0.2,0.1,0.2h0.5c1.1-4.5,2.2-3.3,3.4-0.1
		c0.4,1.9,0.9,2.5,1.8,1.4c0.9-4.6,1.8-1.2,2.7-0.2c0,0,0,0,0,0c0.1,0.1,0.1,0.1,0.2,0.2h0c0,0,0,0,0-0.1c1.7,2,3.4-0.3,5.2,0
		c9.3,1.8,18.6,1.4,27.9,1.3c0.6-2,1.5-1,2.3-1h3c1,0.1,2-1.1,2.8,1c0.9-1.1,1.8-1.4,2.8-0.9c4.5,0.2,9,0.5,13.6,0.8
		c5.3-0.3,10.5-2.2,15.8-1.3v0c0.6,0,1.2,0,1.8,0c0.7,0,1.5,0,2.2,0c2.1-0.1,4.2-0.2,6.3-0.3c0.9-2,0-5.6,1.2-7.5
		c0.3-1,0.5-1.9,1.1-3.8v6.2c1.1-1,1.1-3.1,1.2-5.3c-0.1-2.7-0.3-5.5,1-8.3v7.1c0.1,1.9,0.1,3.8,0.9,5.2c0.6-1,0.2-2.7,0.4-3.9
		c0.7-1.4,1.2-3.2,1.5-5.4c-0.2,3.8,0.7,7,0.8,10.6c1.1-3.2,0.2-6.9,0.6-10.3c-0.5-2.8,0.3-4.7,1.2-4.8c0.9-0.2,0.2,2.5,0.5,3.7
		c0.7,2.8,0.5,5.7,0.4,8.7c0.2,1-0.1,3.2,0.5,2.8c1.1-0.7,0.5-3.5,0.7-5.3c0-3.3-0.3-6.6,0.4-10.8c1.1,4.1,0.6,7.5,0.6,10.8
		c0.3,3,0.6,6,0.9,9.3c1.5-5.1,0.6-10.6,1-15.7v-8.1c1.9,5.3,2.1,11.2,2.2,17.1c0.4,0.9,0.7,1.7,1.1,2.5c0-2.1,0.1-4.3,0.1-6.4
		c-0.1-3.1-0.3-6.1,0.3-9.4c-0.9,7.1,2.2,8.2,3.5,12.3c0-1.8,0.1-3.5,0.1-5.2c0.3,3.7,3,4.2,2.7,8.6c1.1,0,1.1,0,1.3-3.8
		c-0.1-1.8-0.2-3.7,0.5-6.9c-0.3,5.8,1.5,8.2,1.8,12.1c0.2,0,0.3,0,0.5,0c0.1-3.7,1.5-2.9,2.4-2.9c1.1,0,1.2,2,1,4.1
		c0.4,1.7,1,3,1.7,3.9c0.4-1.7,0.9-3.4,1.3-5.2v-5.7c1.5,1.1,1,3.7,1,5.7c0,0.4,0.1,0.9,0.1,1.3c1.1-3,1.5,0,2.1,1.1c0,0,0,0,0,0
		c0,0.1,0.1,0.2,0.1,0.2h0.5c1.1-4.5,2.2-3.3,3.4-0.1c0.4,1.9,0.9,2.5,1.8,1.4c0.9-4.6,1.8-1.2,2.7-0.2c0,0,0,0,0,0
		c0.1,0.1,0.2,0.1,0.2,0.2h0v-0.1c1.7,2,3.4-0.3,5.2,0c9.3,1.8,18.6,1.4,27.9,1.3c0.6-2,1.5-1,2.3-1h2.9c1,0.1,2-1.1,2.8,0.9
		c0.9-1.1,1.8-1.4,2.8-0.9c5.7,0.3,11.3,0.7,17,1c4.3-0.6,8.5-1.7,12.8-0.9v0c0.6,0,1.2,0,1.8,0c0.7,0,1.5,0,2.2,0
		c2.1-0.1,4.2-0.2,6.3-0.3c0.9-2.1,0-5.6,1.2-7.5c0.3-1,0.5-1.9,1.1-3.8v6.2c1.1-1,1.1-3.1,1.2-5.2c-0.1-2.7-0.3-5.5,1-8.3v7.1
		c0.1,1.9,0.1,3.8,0.9,5.2c0.6-1,0.2-2.7,0.4-3.9c0.7-1.4,1.2-3.2,1.5-5.4c-0.2,3.8,0.8,7,0.8,10.6c1.1-3.2,0.2-6.9,0.6-10.3
		c-0.5-2.8,0.3-4.7,1.2-4.8c0.9-0.1,0.2,2.5,0.5,3.7c0.7,2.8,0.5,5.7,0.4,8.7c0.2,1-0.1,3.2,0.6,2.8c1.1-0.8,0.5-3.5,0.8-5.3
		c-0.1-3.3-0.3-6.6,0.3-10.8c1.1,4,0.6,7.5,0.6,10.8c0.3,3,0.6,6,0.9,9.3c1.5-5.1,0.6-10.6,1-15.7v-8.1c1.9,5.3,2,11.2,2.2,17.1
		c0.4,0.9,0.7,1.7,1.1,2.5c0-2.1,0.1-4.3,0.1-6.4c-0.1-3.1-0.3-6.1,0.3-9.4c-0.9,7.1,2.2,8.2,3.5,12.4c0-1.8,0.1-3.5,0.1-5.2
		c0.3,3.7,3,4.2,2.7,8.6c1.1,0,1.1,0,1.3-3.8c-0.1-1.8-0.2-3.7,0.5-6.9c-0.3,5.8,1.5,8.2,1.8,12.1c0.2,0,0.4,0,0.5,0
		c0.1-3.7,1.5-2.9,2.4-2.9c1,0,1.2,2.1,1,4.1c0.4,1.7,1,3,1.7,3.9c0.4-1.7,0.9-3.4,1.3-5.2v-5.7c1.5,1.1,1,3.7,1,5.7
		c0,0.4,0.1,0.9,0.1,1.3c1.1-3,1.5,0,2.1,1.1c0,0,0,0,0,0c0,0.1,0.1,0.2,0.1,0.2h0.5c1.1-4.5,2.2-3.3,3.4-0.1
		c0.4,1.9,0.9,2.5,1.8,1.4c0.9-4.6,1.8-1.2,2.6-0.2c0,0,0,0,0,0c0.1,0.1,0.1,0.1,0.2,0.2h0c0,0,0,0,0-0.1c1.7,2,3.4-0.3,5.2,0
		c9.3,1.8,18.6,1.4,27.9,1.3c0.6-2,1.5-1,2.3-1h3c1,0.1,2-1.1,2.8,1c0.9-1.1,1.8-1.4,2.8-0.9c4.5,0.2,9,0.5,13.6,0.8
		c5.3-0.3,10.5-2.2,15.8-1.3v0c0.6,0,1.2,0,1.8,0c0.7,0,1.5,0,2.2,0c2.1-0.1,4.2-0.2,6.3-0.3c0.9-2,0-5.6,1.2-7.5
		c0.3-1,0.6-1.9,1.1-3.8v6.2c1.1-1,1.1-3.1,1.2-5.3c-0.1-2.7-0.3-5.5,1-8.3v7.1c0.1,1.9,0.1,3.8,0.9,5.2c0.6-1,0.2-2.7,0.4-3.9
		c0.7-1.4,1.2-3.2,1.5-5.4c-0.2,3.8,0.7,7,0.8,10.6c1.1-3.2,0.2-6.9,0.6-10.3c-0.5-2.8,0.3-4.7,1.2-4.8c0.9-0.2,0.2,2.5,0.5,3.7
		c0.7,2.8,0.5,5.7,0.4,8.7c0.2,1-0.1,3.2,0.5,2.8c1.1-0.7,0.5-3.5,0.8-5.3c-0.1-3.3-0.3-6.6,0.4-10.8c1.1,4,0.6,7.5,0.6,10.8
		c0.3,3,0.6,6,0.9,9.3c1.5-5.1,0.6-10.6,1-15.7v-8.1c1.9,5.3,2.1,11.2,2.2,17.1c0.4,0.9,0.7,1.7,1.1,2.5c0-2.1,0.1-4.3,0.1-6.4
		c-0.1-3.1-0.3-6.1,0.3-9.4c-0.9,7.1,2.2,8.2,3.5,12.3c0-1.8,0.1-3.5,0.1-5.2c0.3,3.7,3,4.2,2.7,8.6c1.1,0,1.1,0,1.3-3.8
		c-0.1-1.8-0.2-3.7,0.5-7c-0.4,5.8,1.5,8.2,1.8,12.1c0.2,0,0.3,0,0.5,0c0.1-3.7,1.5-2.9,2.4-2.9c1,0,1.2,2,1,4.1
		c0.4,1.7,1,3,1.7,3.9c0.4-1.7,0.9-3.4,1.3-5.2V129c1.5,1.1,0.9,3.7,1,5.7c0,0.4,0.1,0.9,0.1,1.3c1.1-3,1.5,0,2.1,1.1c0,0,0,0,0,0
		c0,0.1,0.1,0.2,0.1,0.2h0.5c1.1-4.5,2.2-3.3,3.4-0.1c0.4,1.9,0.9,2.5,1.8,1.4c0.9-4.6,1.8-1.2,2.6-0.2c0,0,0,0,0,0
		c0.1,0.1,0.2,0.1,0.2,0.2h0v-0.1c1.7,2,3.4-0.3,5.2,0c9.3,1.8,18.6,1.4,27.9,1.3c0.6-2,1.5-1,2.3-1h3c1,0.1,2-1.1,2.8,1
		c0.9-1.1,1.8-1.4,2.8-0.9c5.1,0.3,10.2,0.6,15.4,0.9v0c6.5,0.7,12.8-2.4,19.3-1.2v0c0.6,0,1.2,0,1.8,0c0.7,0,1.5,0,2.2,0
		c2.1-0.1,4.2-0.2,6.3-0.3c0.9-2.1,0-5.6,1.2-7.5c0.3-1,0.6-1.9,1.1-3.8v6.2c1.1-1,1.1-3.1,1.2-5.3c-0.1-2.7-0.3-5.5,1-8.3v7.1
		c0.1,1.9,0.1,3.8,0.9,5.2c0.6-1,0.2-2.7,0.4-3.9c0.7-1.4,1.2-3.2,1.5-5.4c-0.2,3.8,0.7,7,0.8,10.6c1.1-3.2,0.2-6.9,0.6-10.3
		c-0.5-2.8,0.3-4.7,1.2-4.8c0.9-0.2,0.2,2.5,0.5,3.7c0.7,2.8,0.5,5.7,0.4,8.7c0.2,1-0.1,3.2,0.5,2.8c1.1-0.7,0.5-3.5,0.8-5.3
		c0-3.3-0.3-6.6,0.4-10.8c1.1,4,0.6,7.5,0.6,10.8c0.3,3,0.6,6,0.9,9.3c1.5-5.1,0.6-10.6,1-15.7v-8c1.9,5.3,2.1,11.2,2.2,17.1
		c0.4,0.9,0.7,1.7,1.1,2.5c0-2.1,0.1-4.3,0.1-6.4c-0.1-3.1-0.3-6.1,0.3-9.4c-0.9,7.1,2.2,8.2,3.5,12.3c0-1.8,0.1-3.5,0.1-5.2
		c0.3,3.7,3,4.2,2.7,8.6c1.1,0,1.1,0,1.3-3.8c-0.1-1.8-0.2-3.7,0.5-6.9c-0.4,5.8,1.5,8.2,1.8,12.1c0.2,0,0.4,0,0.5,0
		c0.1-3.7,1.5-2.9,2.4-2.9c1,0,1.2,2.1,1,4.1c0.4,1.7,1,3,1.7,3.9c0.4-1.7,0.9-3.4,1.3-5.2v-5.7c1.5,1.2,0.9,3.7,1,5.7
		c0,0.4,0.1,0.9,0.1,1.3c1.1-3,1.5,0,2.2,1.1c0,0,0,0,0,0c0,0.1,0.1,0.2,0.1,0.2h0.5c1.1-4.5,2.2-3.3,3.4-0.1
		c0.4,1.9,0.9,2.5,1.8,1.4c0.9-4.6,1.8-1.2,2.7-0.2c0,0,0,0,0,0c0.1,0.1,0.1,0.1,0.2,0.2h0v-0.1c1.7,2,3.4-0.3,5.2,0
		c9.3,1.8,18.6,1.4,27.9,1.3c0.6-2,1.5-1,2.3-1h3c1,0.1,2-1.1,2.8,1c0.9-1.1,1.8-1.4,2.8-0.9c4.5,0.3,9.1,0.5,13.6,0.8
		c5.3-0.3,10.5-2.2,15.8-1.3v0c0.6,0,1.2,0,1.8,0c0.7,0,1.5,0,2.2,0c2.1-0.1,4.2-0.2,6.3-0.3c0.9-2.1,0-5.6,1.2-7.5
		c0.3-1,0.5-1.9,1.1-3.8v6.2c1.1-1,1.1-3.1,1.2-5.2c-0.1-2.7-0.3-5.5,1-8.3v7.1c0.1,1.9,0.1,3.8,0.9,5.2c0.6-1,0.2-2.7,0.4-3.9
		c0.7-1.4,1.2-3.2,1.5-5.4c-0.2,3.8,0.7,7,0.8,10.6c1.1-3.2,0.2-6.9,0.6-10.3c-0.5-2.8,0.3-4.7,1.2-4.8c0.9-0.1,0.2,2.5,0.5,3.7
		c0.7,2.8,0.5,5.7,0.4,8.7c0.2,1-0.1,3.2,0.5,2.8c1.1-0.8,0.5-3.5,0.8-5.3c0-3.3-0.3-6.6,0.4-10.8c1.1,4,0.6,7.5,0.6,10.8
		c0.3,3,0.6,6,0.9,9.3c1.5-5.1,0.6-10.6,1-15.7v-8.1c1.9,5.3,2,11.2,2.2,17.1c0.4,0.9,0.7,1.7,1.1,2.5c0-2.1,0.1-4.3,0.1-6.4
		c-0.1-3.1-0.2-6.1,0.3-9.3c-0.9,7.1,2.2,8.2,3.5,12.3c0-1.8,0.1-3.5,0.1-5.2c0.3,3.7,3,4.2,2.8,8.6c1.1,0,1.1,0,1.3-3.8
		c-0.1-1.8-0.3-3.7,0.5-6.9c-0.3,5.8,1.5,8.2,1.8,12.1c0.2,0,0.4,0,0.5,0c0.1-3.7,1.5-2.9,2.4-2.9c1,0,1.2,2.1,1,4.1
		c0.4,1.7,1,3,1.7,3.9c0.4-1.7,0.9-3.4,1.3-5.2v-5.7c1.5,1.2,1,3.7,1,5.7c0,0.4,0,0.9,0.1,1.3c1.1-3,1.5-0.1,2.1,1.1c0,0,0,0,0,0
		c0,0.1,0.1,0.2,0.1,0.2h0.5c1.1-4.5,2.2-3.3,3.4-0.1c0.4,1.9,0.9,2.5,1.8,1.4c0.9-4.6,1.8-1.2,2.7-0.2c0,0,0,0,0,0
		c0.1,0.1,0.1,0.1,0.2,0.2c0,0,0,0,0-0.1c1.7,2,3.4-0.3,5.2,0c9.3,1.8,18.6,1.4,27.9,1.3c0.6-2,1.5-1,2.3-1h3c1,0.1,2-1.1,2.8,1
		c0.9-1.1,1.8-1.4,2.8-0.9C789,138.4,794.5,138.8,800,139.1z"/>
</g>
<g>
	<path class="st7" d="M17.6,100.8v3.5h3.1v1.3h-3.1v5.3H15V99.5h6.5v1.3H17.6z"/>
	<path class="st7" d="M30.5,104.9c0,2.3-0.6,3-2.9,3l-3-0.3v1c0,0.5,0.3,1.2,1.6,1.2h3.9v1.1l-4.1,0.3c-2.6,0-3.7-1-3.7-3.1v-3.4
		c0-2.1,1.4-3.1,3.8-3.1h0.6c2.5,0,3.8,1,3.8,3.1V104.9z M28.2,104.5c0-1.2-0.4-1.8-1.6-1.8h-0.3c-1.2,0-1.6,0.6-1.6,1.8v2.1h1.6
		c0.5,0,1.1,0,1.5-0.2c0.4-0.3,0.5-0.8,0.5-1.5V104.5z"/>
	<path class="st7" d="M40.5,108c0,2.1-1.3,3.1-3.8,3.1h-0.6c-2.4,0-3.8-1-3.8-3.1v-9.3c2,0,2.2,0.1,2.2,2.7v0.4c1-0.1,2-0.2,3-0.3
		c1.2,0,2.9,0.7,2.9,3.1V108z M38.3,104.6c0-1.2-0.5-1.7-1.7-1.7h-2v5.2c0,1.2,0.5,1.8,1.7,1.8h0.3c1.2,0,1.6-0.5,1.6-1.8V104.6z"/>
	<path class="st7" d="M49.3,105.1h-1.6c0-1.7-0.7-2.2-1.9-2.2h-1.1v8.1h-2.2v-9.2l3.8-0.3c1.8,0,3.5,1,3.2,2.8L49.3,105.1z"/>
	<path class="st7" d="M55,111.1c-2.8,0-4-1-4-3.1v-6.4c2.1,0,2.3,0.2,2.3,3.1v3.3c0,1.3,0.5,1.8,1.8,1.8h1.9v-8.1h2.2v9.2L55,111.1z
		"/>
	<path class="st7" d="M64.9,111.1c-2.7,0-3.8-1-3.8-3.1v-0.3c0-2.1,1.2-3,2.9-3c1,0.1,2,0.1,3,0.2v-0.7c0-0.8-0.5-1.2-2.6-1.2h-2.8
		v-1.1l3-0.3c3.5,0,4.6,1,4.6,3.3v6.1L64.9,111.1z M67,105.9h-2c-1.2,0-1.6,0.5-1.6,1.8v0.4c0,1.3,0.4,1.8,1.7,1.8h2V105.9z"/>
	<path class="st7" d="M78,105.1h-1.6c0-1.7-0.7-2.2-1.9-2.2h-1.1v8.1h-2.2v-9.2l3.8-0.3c1.8,0,3.5,1,3.2,2.8L78,105.1z"/>
	<path class="st7" d="M87.9,111.2c0,1.8-0.9,2.6-3.5,2.6l-4.7-0.3v-1h4.7c1.1,0,1.4-0.5,1.4-0.8v-0.9l-3,0.3c-1.5,0-2.8-0.6-2.8-3.1
		v-6.4c2.2,0,2.2,0,2.2,2.4v4c0,1.3,0.2,1.7,1.7,1.7h1.9v-8.1h2.2V111.2z"/>
	<path class="st7" d="M101.1,103.9l-4.7,5.7h4.9v1.3h-7.8v-1.5l5.2-6.3v0.1c0.1-1.5-0.7-2.4-2.3-2.4h-2.8v-1.2l3.3-0.2
		c3.5,0,4.6,1.5,4.6,2.9C101.4,102.9,101.2,103.6,101.1,103.9z"/>
	<path class="st7" d="M112.1,108c0,3.2-3.5,3.1-4.9,3.1c-2.6,0-4.2-0.9-4.2-3.1v-5.5c0-2.2,1.6-3.1,4.2-3.1h0.7
		c2.6,0,4.2,0.9,4.2,3.1V108z M109.5,102.4c0-1.3-0.6-1.8-1.9-1.8h-0.1c-1.3,0-1.9,0.5-1.9,1.8v5.7c0,1.3,0.6,1.7,1.9,1.7h0.1
		c1.3,0,1.9-0.5,1.9-1.7V102.4z"/>
	<path class="st7" d="M115,111v-10.2l-1.7-0.2v-1.1h4.4V111H115z"/>
	<path class="st7" d="M128.8,108.1c0,2.1-1.4,3-4.3,3h-0.7c-2.9,0-4.2-0.9-4.2-3v-0.4c0-0.7,0-2.2,1.9-2.6c-2-0.4-1.9-1.9-1.9-2.6
		v-0.2c0-2.1,1.3-3,4.2-3h0.8c2.9,0,4.2,1,4.2,3v0.2c0,1.9-1,2.3-2.2,2.5c1.3,0.2,2.2,0.6,2.2,2.6V108.1z M126.1,102.3
		c0-1.3-0.5-1.8-1.9-1.8H124c-1.3,0-1.9,0.5-1.9,1.8v0.7c0,0.4,0.3,1.3,1.5,1.3h0.9c1.2,0,1.5-0.9,1.5-1.3V102.3z M126.1,107.1
		c0-0.6-0.3-1.4-1.5-1.4h-0.9c-1.2,0-1.5,0.9-1.5,1.4v1c0,1.3,0.5,1.8,1.9,1.8h0.1c1.4,0,1.9-0.5,1.9-1.8V107.1z"/>
</g>
<g>
	<path class="st8" d="M160.8,110.7v-10.3h-0.7v-0.1l-3.5,10.3h-1.8l-3.6-10.3v0.1h-0.6v10.3h-1.6V99.2h4.4l2.9,8.6
		c0.8-2.6,1.9-6,2.7-8.6h4.4v11.5H160.8z"/>
	<path class="st8" d="M169.2,110.8c-2.7,0-3.8-1-3.8-3.1v-0.3c0-2.1,1.2-3,2.9-3c1,0.1,2,0.1,3,0.2v-0.7c0-0.8-0.5-1.2-2.6-1.2h-2.8
		v-1.1l3-0.3c3.5,0,4.6,1,4.6,3.3v6.1L169.2,110.8z M171.3,105.6h-2c-1.2,0-1.6,0.5-1.6,1.8v0.4c0,1.3,0.4,1.8,1.7,1.8h2V105.6z"/>
	<path class="st8" d="M182.4,104.8h-1.6c0-1.7-0.7-2.2-1.9-2.2h-1.1v8.1h-2.2v-9.2l3.8-0.3c1.8,0,3.5,1,3.2,2.8L182.4,104.8z"/>
	<path class="st8" d="M188,110.8c-2.3,0-4.2-0.4-4.2-3.1v-3.3c0-3.1,2.5-3.2,4.2-3.2l2.2,0.2v1.1h-2.1c-1.7,0-2,0.3-2,1.8v3.4
		c0,1.5,0.3,1.8,2,1.8h2.1v1.1L188,110.8z"/>
	<path class="st8" d="M199.8,110.7c-2.3,0-2.2,0-2.2-2.4v-3.9c0-1.2-0.4-1.8-1.7-1.8H194v8.1h-2.2V98.4c2.2,0,2.2,0.1,2.2,3.1
		c1-0.1,2-0.2,3-0.2c1.3,0,2.8,0.7,2.8,3.1V110.7z"/>
	<path class="st8" d="M212.9,103.6l-4.7,5.7h4.9v1.3h-7.8v-1.5l5.2-6.3v0.1c0.1-1.5-0.7-2.4-2.3-2.4h-2.8v-1.2l3.3-0.2
		c3.5,0,4.6,1.5,4.6,2.9C213.2,102.6,213,103.3,212.9,103.6z"/>
	<path class="st8" d="M223.9,107.7c0,3.2-3.5,3.1-4.9,3.1c-2.6,0-4.2-0.9-4.2-3.1v-5.5c0-2.2,1.6-3.1,4.2-3.1h0.7
		c2.6,0,4.2,0.9,4.2,3.1V107.7z M221.3,102.1c0-1.3-0.6-1.8-1.9-1.8h-0.1c-1.3,0-1.9,0.5-1.9,1.8v5.7c0,1.3,0.6,1.7,1.9,1.7h0.1
		c1.3,0,1.9-0.5,1.9-1.7V102.1z"/>
	<path class="st8" d="M226.8,110.7v-10.2l-1.7-0.2v-1.1h4.4v11.5H226.8z"/>
	<path class="st8" d="M240.6,107.8c0,2.1-1.4,3-4.3,3h-0.7c-2.9,0-4.2-0.9-4.2-3v-0.4c0-0.7,0-2.2,1.9-2.6c-2-0.4-1.9-1.9-1.9-2.6
		v-0.2c0-2.1,1.3-3,4.2-3h0.8c2.9,0,4.2,1,4.2,3v0.2c0,1.9-1,2.3-2.2,2.5c1.3,0.2,2.2,0.6,2.2,2.6V107.8z M237.9,102.1
		c0-1.3-0.5-1.8-1.9-1.8h-0.2c-1.3,0-1.9,0.5-1.9,1.8v0.7c0,0.4,0.3,1.3,1.5,1.3h0.9c1.2,0,1.5-0.9,1.5-1.3V102.1z M237.9,106.8
		c0-0.6-0.3-1.4-1.5-1.4h-0.9c-1.2,0-1.5,0.9-1.5,1.4v1c0,1.3,0.5,1.8,1.9,1.8h0.1c1.4,0,1.9-0.5,1.9-1.8V106.8z"/>
</g>
<g>
	<path class="st9" d="M294.6,109.7l-0.6-2.6v0.1h-4.2v-0.1c-0.2,0.8-0.4,1.8-0.6,2.6h-2l2.9-11.5h4.1l3.2,11.5H294.6z M292.4,99.4
		h-0.9l-1.3,6.3h3.6L292.4,99.4z"/>
	<path class="st9" d="M306.9,106.6c0,2.4-1.7,3-2.9,3.1l-3-0.3v0.2c0,0.7,0,1.9-0.2,2.4c-0.3,0.6-0.9,0.6-2,0.6v-12.1l4.4-0.3
		c2.3,0,3.8,1,3.8,3.1V106.6z M304.6,103.4c0-1.2-0.5-1.7-1.7-1.7H301v6.7h2c1.3,0,1.6-0.5,1.6-1.7V103.4z"/>
	<path class="st9" d="M315.6,103.8H314c0-1.7-0.7-2.2-1.9-2.2H311v8.1h-2.2v-9.2l3.8-0.3c1.8,0,3.5,1,3.2,2.8L315.6,103.8z"/>
	<path class="st9" d="M319.8,98.7c0,0.3-0.2,0.6-1.2,0.6h-0.3c-1,0-1.2-0.3-1.2-0.6v-0.8c0-0.3,0.2-0.6,1.2-0.6h0.3
		c0.9,0,1.2,0.3,1.2,0.6V98.7z M317.4,109.7v-9.4h2.2v9.4H317.4z"/>
	<path class="st9" d="M324.1,109.7h-2.2V97.5c2.1,0,2.2,0.1,2.2,2.9V109.7z"/>
	<path class="st9" d="M337.3,102.6l-4.7,5.7h4.9v1.3h-7.8v-1.5l5.2-6.3v0.1c0.1-1.5-0.7-2.4-2.3-2.4h-2.8v-1.2l3.3-0.2
		c3.5,0,4.6,1.5,4.6,2.9C337.5,101.6,337.3,102.3,337.3,102.6z"/>
	<path class="st9" d="M348.3,106.7c0,3.2-3.5,3.1-4.9,3.1c-2.6,0-4.2-0.9-4.2-3.1v-5.5c0-2.2,1.6-3.1,4.2-3.1h0.7
		c2.6,0,4.2,0.9,4.2,3.1V106.7z M345.7,101.1c0-1.3-0.6-1.8-1.9-1.8h-0.1c-1.3,0-1.9,0.5-1.9,1.8v5.7c0,1.3,0.6,1.7,1.9,1.7h0.1
		c1.3,0,1.9-0.5,1.9-1.7V101.1z"/>
	<path class="st9" d="M351.2,109.7V99.5l-1.7-0.2v-1.1h4.4v11.5H351.2z"/>
	<path class="st9" d="M364.9,106.8c0,2.1-1.4,3-4.3,3H360c-2.9,0-4.2-0.9-4.2-3v-0.4c0-0.7,0-2.2,1.9-2.6c-2-0.4-1.9-1.9-1.9-2.6
		v-0.2c0-2.1,1.3-3,4.2-3h0.8c2.9,0,4.2,1,4.2,3v0.2c0,1.9-1,2.3-2.2,2.5c1.3,0.2,2.2,0.6,2.2,2.6V106.8z M362.2,101.1
		c0-1.3-0.5-1.8-1.9-1.8h-0.2c-1.3,0-1.9,0.5-1.9,1.8v0.7c0,0.4,0.3,1.3,1.5,1.3h0.9c1.2,0,1.5-0.9,1.5-1.3V101.1z M362.2,105.9
		c0-0.6-0.3-1.4-1.5-1.4h-0.9c-1.2,0-1.5,0.9-1.5,1.4v1c0,1.3,0.5,1.8,1.9,1.8h0.1c1.4,0,1.9-0.5,1.9-1.8V105.9z"/>
</g>
<g>
	<path class="st10" d="M561.8,106c0,3.1-2.7,3.2-4.7,3.2l-1.6-0.2v-1.2h1.5c1.9,0,2.1-0.6,2.1-1.6c0-2.6,0-6,0-8.5h2.7V106z"/>
	<path class="st10" d="M567.8,109.2c-2.8,0-4-1-4-3.1v-6.4c2.1,0,2.3,0.2,2.3,3.1v3.3c0,1.3,0.5,1.8,1.8,1.8h1.9v-8.1h2.2v9.2
		L567.8,109.2z"/>
	<path class="st10" d="M580,106.6v-3.9c0-1.2-0.4-1.8-1.6-1.8h-2v8.1h-2.2v-9.2l4.4-0.3c2.4,0,3.7,1,3.7,3.1v6.4
		C580,109,580,109,580,106.6z"/>
	<path class="st10" d="M592.3,102.9c0,2.3-0.6,3-2.9,3l-3-0.3v1c0,0.5,0.3,1.2,1.6,1.2h3.9v1.1l-4.1,0.3c-2.6,0-3.7-1-3.7-3.1v-3.4
		c0-2.1,1.4-3.1,3.8-3.1h0.6c2.5,0,3.8,1,3.8,3.1V102.9z M590,102.6c0-1.2-0.4-1.8-1.6-1.8H588c-1.2,0-1.6,0.6-1.6,1.8v2.1h1.6
		c0.5,0,1.1,0,1.5-0.2c0.4-0.3,0.5-0.8,0.5-1.5V102.6z"/>
	<path class="st10" d="M605.2,102l-4.7,5.7h4.9v1.3h-7.8v-1.5l5.2-6.3v0.1c0.1-1.5-0.7-2.4-2.3-2.4h-2.8v-1.2l3.3-0.2
		c3.5,0,4.6,1.5,4.6,2.9C605.5,100.9,605.3,101.7,605.2,102z"/>
	<path class="st10" d="M616.3,106c0,3.2-3.5,3.1-4.9,3.1c-2.6,0-4.2-0.9-4.2-3.1v-5.5c0-2.2,1.6-3.1,4.2-3.1h0.7
		c2.6,0,4.2,0.9,4.2,3.1V106z M613.6,100.5c0-1.3-0.6-1.8-1.9-1.8h-0.1c-1.3,0-1.9,0.5-1.9,1.8v5.7c0,1.3,0.6,1.7,1.9,1.7h0.1
		c1.3,0,1.9-0.5,1.9-1.7V100.5z"/>
	<path class="st10" d="M619.2,109V98.8l-1.7-0.2v-1.1h4.4V109H619.2z"/>
	<path class="st10" d="M632.9,106.1c0,2.1-1.4,3-4.3,3H628c-2.9,0-4.2-0.9-4.2-3v-0.4c0-0.7,0-2.2,1.9-2.6c-2-0.4-1.9-1.9-1.9-2.6
		v-0.2c0-2.1,1.3-3,4.2-3h0.8c2.9,0,4.2,1,4.2,3v0.2c0,1.9-1,2.3-2.2,2.5c1.3,0.2,2.2,0.6,2.2,2.6V106.1z M630.2,100.4
		c0-1.3-0.5-1.8-1.9-1.8h-0.2c-1.3,0-1.9,0.5-1.9,1.8v0.7c0,0.4,0.3,1.3,1.5,1.3h0.9c1.2,0,1.5-0.9,1.5-1.3V100.4z M630.2,105.2
		c0-0.6-0.3-1.4-1.5-1.4h-0.9c-1.2,0-1.5,0.9-1.5,1.4v1c0,1.3,0.5,1.8,1.9,1.8h0.1c1.4,0,1.9-0.5,1.9-1.8V105.2z"/>
</g>
<g>
	<path class="st11" d="M691.7,105.8c0,3.1-2.7,3.2-4.7,3.2l-1.6-0.2v-1.2h1.5c1.9,0,2.1-0.6,2.1-1.6c0-2.6,0-6,0-8.5h2.7V105.8z"/>
	<path class="st11" d="M697.7,109c-2.8,0-4-1-4-3.1v-6.4c2.1,0,2.3,0.2,2.3,3.1v3.3c0,1.3,0.5,1.8,1.8,1.8h1.9v-8.1h2.2v9.2
		L697.7,109z"/>
	<path class="st11" d="M706.2,108.8H704V96.6c2.1,0,2.2,0.1,2.2,2.9V108.8z"/>
	<path class="st11" d="M716.5,109.1c0,1.8-0.9,2.6-3.5,2.6l-4.7-0.3v-1h4.7c1.1,0,1.4-0.5,1.4-0.8v-0.9l-3,0.3
		c-1.5,0-2.8-0.6-2.8-3.1v-6.4c2.2,0,2.2,0,2.2,2.4v4c0,1.3,0.2,1.7,1.7,1.7h1.9v-8.1h2.2V109.1z"/>
	<path class="st11" d="M729.8,101.8l-4.7,5.7h4.9v1.3h-7.8v-1.5l5.2-6.3v0.1c0.1-1.5-0.7-2.4-2.3-2.4h-2.8v-1.2l3.3-0.2
		c3.5,0,4.6,1.5,4.6,2.9C730,100.8,729.8,101.5,729.8,101.8z"/>
	<path class="st11" d="M740.8,105.8c0,3.2-3.5,3.1-4.9,3.1c-2.6,0-4.2-0.9-4.2-3.1v-5.5c0-2.2,1.6-3.1,4.2-3.1h0.7
		c2.6,0,4.2,0.9,4.2,3.1V105.8z M738.2,100.3c0-1.3-0.6-1.8-1.9-1.8h-0.1c-1.3,0-1.9,0.5-1.9,1.8v5.7c0,1.3,0.6,1.7,1.9,1.7h0.1
		c1.3,0,1.9-0.5,1.9-1.7V100.3z"/>
	<path class="st11" d="M743.7,108.8V98.6l-1.7-0.2v-1.1h4.4v11.5H743.7z"/>
	<path class="st11" d="M757.4,106c0,2.1-1.4,3-4.3,3h-0.7c-2.9,0-4.2-0.9-4.2-3v-0.4c0-0.7,0-2.2,1.9-2.6c-2-0.4-1.9-1.9-1.9-2.6
		v-0.2c0-2.1,1.3-3,4.2-3h0.8c2.9,0,4.2,1,4.2,3v0.2c0,1.9-1,2.3-2.2,2.5c1.3,0.2,2.2,0.6,2.2,2.6V106z M754.7,100.2
		c0-1.3-0.5-1.8-1.9-1.8h-0.2c-1.3,0-1.9,0.5-1.9,1.8v0.7c0,0.4,0.3,1.3,1.5,1.3h0.9c1.2,0,1.5-0.9,1.5-1.3V100.2z M754.7,105
		c0-0.6-0.3-1.4-1.5-1.4h-0.9c-1.2,0-1.5,0.9-1.5,1.4v1c0,1.3,0.5,1.8,1.9,1.8h0.1c1.4,0,1.9-0.5,1.9-1.8V105z"/>
</g>
<text transform="matrix(1 0 0 1 15.2676 207.1113)"><tspan x="0" y="0" class="st7 st12 st13">~POC of Clutchat</tspan><tspan x="0" y="28.8" class="st7 st12 st13">~Whitepaper</tspan></text>
<text transform="matrix(1 0 0 1 138.7021 203.8159)"><tspan x="0" y="0" class="st8 st12 st13">~Alpha test Clutchat</tspan><tspan x="0" y="28.8" class="st8 st12 st13">~Initial TGE stage for</tspan><tspan x="0" y="43.2" class="st8 st12 st13">   Alpha</tspan></text>
<g>
	<path class="st14" d="M435.9,108.1V98h-0.7V98l-3.4,10.1h-1.8L426.5,98V98h-0.6v10.1h-1.5V96.8h4.4l2.8,8.4
		c0.8-2.5,1.9-5.9,2.7-8.4h4.3v11.3H435.9z"/>
	<path class="st14" d="M444.2,108.2c-2.7,0-3.8-1-3.8-3.1v-0.3c0-2.1,1.2-3,2.8-2.9c1,0.1,2,0.1,3,0.2v-0.7c0-0.8-0.5-1.2-2.5-1.2
		h-2.7v-1.1l2.9-0.3c3.4,0,4.5,0.9,4.5,3.2v6L444.2,108.2z M446.2,103.1h-2c-1.2,0-1.6,0.5-1.6,1.8v0.4c0,1.3,0.4,1.8,1.6,1.8h2
		V103.1z"/>
	<path class="st14" d="M458.4,108.4c0,1.7-0.9,2.6-3.5,2.6l-4.7-0.3v-1h4.6c1.1,0,1.4-0.5,1.4-0.8v-0.9l-3,0.3c-1.4,0-2.8-0.6-2.8-3
		v-6.3c2.2,0,2.2,0,2.2,2.3v4c0,1.3,0.2,1.7,1.7,1.7h1.9v-8h2.2V108.4z"/>
	<path class="st14" d="M471.4,101.1l-4.7,5.6h4.8v1.3h-7.7v-1.4l5.1-6.2v0.1c0.1-1.4-0.7-2.4-2.2-2.4h-2.7v-1.2l3.2-0.2
		c3.5,0,4.5,1.4,4.5,2.8C471.6,100.1,471.4,100.9,471.4,101.1z"/>
	<path class="st14" d="M482.2,105.1c0,3.2-3.4,3-4.8,3c-2.6,0-4.2-0.9-4.2-3v-5.4c0-2.1,1.5-3,4.2-3h0.7c2.6,0,4.1,0.9,4.1,3V105.1z
		 M479.6,99.7c0-1.3-0.6-1.7-1.9-1.7h-0.1c-1.3,0-1.9,0.5-1.9,1.7v5.6c0,1.3,0.6,1.7,1.9,1.7h0.1c1.3,0,1.9-0.5,1.9-1.7V99.7z"/>
	<path class="st14" d="M485,108.1v-10l-1.7-0.2v-1h4.3v11.3H485z"/>
	<path class="st14" d="M498.5,105.3c0,2.1-1.3,3-4.2,3h-0.7c-2.8,0-4.2-0.9-4.2-3v-0.4c0-0.7,0-2.1,1.9-2.6c-2-0.4-1.9-1.9-1.9-2.5
		v-0.2c0-2,1.2-3,4.1-3h0.8c2.8,0,4.1,1,4.1,3v0.2c0,1.8-1,2.3-2.2,2.5c1.3,0.2,2.2,0.6,2.2,2.6V105.3z M495.9,99.6
		c0-1.3-0.5-1.7-1.8-1.7h-0.2c-1.3,0-1.8,0.5-1.8,1.7v0.7c0,0.4,0.3,1.3,1.5,1.3h0.9c1.2,0,1.5-0.9,1.5-1.3V99.6z M495.9,104.3
		c0-0.6-0.3-1.4-1.5-1.4h-0.9c-1.2,0-1.5,0.9-1.5,1.4v1c0,1.2,0.5,1.7,1.9,1.7h0.1c1.4,0,1.9-0.5,1.9-1.7V104.3z"/>
</g>

<path class="st15" d="M328.6,74.9l-10.8-15.5V57c8.6,0,10.1-1.8,10.1-4.3v-2.3c0-3-0.8-5-6.9-5h-4.9c0,9.7,0.1,19.7,0.1,29.4h-8.8
	V41.6h16.1c8.6,0,13.8,2.5,13.8,8.7v1.9c0,5.7-3.7,7.9-10.6,8c3.9,4.7,8.5,10.1,12.4,14.7H328.6z"/>
<path class="st15" d="M360.3,69.7c0,3.7-3,5.4-8.7,5.4h-1.5c-5.8,0-8.7-1.7-8.7-5.4V64c0-3.6,3.1-5.4,8.7-5.4h1.5
	c5.6,0,8.7,1.8,8.7,5.4V69.7z M355,63.8c0-2.1-1.2-3.1-4.1-3.1h-0.2c-2.9,0-4.1,0.9-4.1,3.1v6c0,2.8,2.1,3.1,4.3,3.1
	c2.9,0,4.1-0.8,4.1-3.1V63.8z"/>
<path class="st15" d="M373.1,75.1c-6.3,0-8.9-1.7-8.9-5.4v-0.5c0-3.6,2.8-5.2,6.7-5.1c2.3,0.1,4.8,0.2,7,0.3v-1.3
	c0-1.4-1.1-2.1-6-2.1h-6.5v-1.9l7-0.5c8.1,0,10.7,1.6,10.7,5.6v10.5L373.1,75.1z M378,66.1h-4.8c-2.9,0-3.7,0.8-3.7,3.1v0.7
	c0,2.2,0.9,3.1,3.9,3.1h4.6V66.1z"/>
<path class="st15" d="M401.1,58.5c0-4.5,0.5-4.7,5.1-4.7v20.8l-10.3,0.6c-5.6,0-8.6-1.7-8.6-5.3v-5.9c0-4,3.6-5.3,6.8-5.3l7,0.4
	V58.5z M400.9,60.9h-4.6c-2.9,0-3.8,0.9-3.8,3v5.9c0,2.1,0.9,3,3.8,3h4.6V60.9z"/>
<path class="st15" d="M442.5,74.9h-0.3c-1.1,0-3.4,0-4.1-0.4c-0.6-0.4-0.8-1.3-0.8-3.6V64c0-2.1-1-3.1-3.9-3.1h-5.2
	c0.8,1.3,1.2,2.3,1.2,3.2v10.8h-5.2V64c0-2.1-0.9-2.9-3.9-2.9h-4.1v13.8h-5.1V59.2l9.7-0.6c1.8,0,3.4,0.2,5.2,0.7l8-0.8
	c5.5,0.1,8.5,1.8,8.5,5.4V74.9z"/>
<path class="st15" d="M455.9,75.1c-6.3,0-8.9-1.7-8.9-5.4v-0.5c0-3.6,2.8-5.2,6.7-5.1c2.3,0.1,4.8,0.2,7,0.3v-1.3
	c0-1.4-1.1-2.1-6-2.1h-6.5v-1.9l7-0.5c8.1,0,10.7,1.6,10.7,5.6v10.5L455.9,75.1z M460.7,66.1H456c-2.9,0-3.7,0.8-3.7,3.1v0.7
	c0,2.2,0.9,3.1,3.9,3.1h4.6V66.1z"/>
<path class="st15" d="M489.5,69.6c0,4.2-3.9,5.2-6.8,5.3l-7-0.5v0.3c0,1.3,0,3.2-0.6,4.1c-0.7,1-2,1-4.5,1V59l10.2-0.6
	c5.4,0,8.7,1.7,8.7,5.3V69.6z M484.3,64c0-2.1-1.1-3-4-3h-4.5v11.6h4.6c2.9,0,3.8-0.9,3.8-3V64z"/>
<text transform="matrix(1 0 0 1 420.6464 198.6719)"><tspan x="0" y="0" class="st14 st12 st13">~Beta test opens for</tspan><tspan x="0" y="14.4" class="st14 st12 st13">    Clutchat</tspan><tspan x="0" y="43.2" class="st14 st12 st13">~Second stage of TGE</tspan></text>
<text transform="matrix(1 0 0 1 684.0176 187.9443)"><tspan x="0" y="0" class="st11 st12 st13">~Open Beta clutchat</tspan><tspan x="0" y="28.8" class="st11 st12 st13">~Bounty rewards</tspan><tspan x="0" y="43.2" class="st11 st12 st13">   end</tspan></text>

</svg>
