<?xml version="1.0" encoding="utf-8"?>
<!-- Generator: Adobe Illustrator 22.0.1, SVG Export Plug-In . SVG Version: 6.00 Build 0)  -->
<svg version="1.1" id="Layer_1" xmlns="http://www.w3.org/2000/svg" xmlns:xlink="http://www.w3.org/1999/xlink" x="0px" y="0px"
	  viewBox="0 0 320 85" xml:space="preserve">
<style type="text/css">
	.st15{fill:#F3712F;}
</style>
<g>
	<g>
		<path class="st15" d="M86.7,44.5l-0.4,1.4c-0.1,0.5-0.6,0.8-1.1,0.7c0.7,2.6,0.4,6.9-0.9,11.5c-1.5,5.4-4.1,9.6-6.3,11v3.5
			c0,1-3.5,1.9-8.3,2.2h4.7v1.8H60.5c-20.7,0-37.4-15.7-37.4-35c0-19.3,16.8-35,37.4-35h13.8v1.8h-5.7c5.3,0.2,9.4,1.1,9.4,2.2V18
			c0,0.8-0.7,1.5-1.5,1.5H57c-0.8,0-1.5-0.7-1.5-1.5v-3.7c-12.2,3.1-21.2,14.1-21.2,27.2c0,13.2,9,24.2,21.2,27.2v-3.6
			c0-0.8,0.7-1.5,1.5-1.5h19.3c1.5-2.1,2.9-5,3.8-8.5c1-3.6,1.4-7,1.2-9.6l-1.2-0.3c-0.5-0.2-0.9-0.7-0.7-1.3l0.4-1.4
			c0.2-0.5,0.7-0.9,1.3-0.7l4.8,1.4C86.5,43.4,86.8,44,86.7,44.5z"/>
	</g>
</g>
<g>
	<path class="st15" d="M98.6,76.6c-5.7,0-8-2.1-8-6.5v-0.6c0-4.4,2.5-6.3,6-6.2c2.1,0.1,4.2,0.3,6.3,0.4v-1.5c0-1.7-1-2.6-5.4-2.6
		h-5.8v-2.3l6.2-0.6c7.3,0,9.6,2,9.6,6.8v12.6L98.6,76.6z M102.9,65.7h-4.2c-2.6,0-3.3,1-3.3,3.7v0.8c0,2.7,0.8,3.7,3.5,3.7h4.1
		V65.7z"/>
	<path class="st15" d="M139.8,76.3h-0.3c-1,0-3,0-3.7-0.5c-0.5-0.5-0.7-1.5-0.7-4.4v-8.3c0-2.6-0.9-3.7-3.5-3.7h-4.6
		c0.8,1.5,1,2.7,1,3.8v13.1h-4.7V63.1c0-2.6-0.8-3.6-3.5-3.6h-3.7v16.7h-4.6v-19l8.7-0.7c1.6,0,3,0.2,4.6,0.8l7.1-1
		c4.9,0.1,7.6,2.2,7.6,6.5V76.3z"/>
	<path class="st15" d="M160.7,63.6c0,4.8-1.2,6.2-6,6.2l-6.3-0.5v2.1c0,1.1,0.5,2.4,3.4,2.4h8.1V76l-8.5,0.6c-5.3,0-7.7-2.1-7.7-6.5
		V63c0-4.4,2.9-6.5,7.8-6.5h1.3c5.1,0,7.8,2.1,7.8,6.5V63.6z M155.9,62.8c0-2.6-0.8-3.7-3.4-3.7h-0.7c-2.5,0-3.4,1.2-3.4,3.7v4.5
		h3.4c1,0,2.2,0,3.1-0.5c0.8-0.6,1.1-1.6,1.1-3.2V62.8z"/>
	<path class="st15" d="M178.8,64h-3.2c0-3.6-1.4-4.6-4-4.6h-2.4v16.9h-4.6V57.1l7.9-0.7c3.8,0,7.3,2.1,6.6,5.8L178.8,64z"/>
	<path class="st15" d="M189.9,76.6c-5.7,0-8-2.1-8-6.5v-0.6c0-4.4,2.5-6.3,6-6.2c2.1,0.1,4.2,0.3,6.3,0.4v-1.5c0-1.7-1-2.6-5.4-2.6
		H183v-2.3l6.2-0.6c7.3,0,9.6,2,9.6,6.8v12.6L189.9,76.6z M194.2,65.7H190c-2.6,0-3.3,1-3.3,3.7v0.8c0,2.7,0.8,3.7,3.5,3.7h4.1V65.7
		z"/>
	<path class="st15" d="M231.1,76.3h-0.3c-1,0-3,0-3.7-0.5c-0.5-0.5-0.7-1.5-0.7-4.4v-8.3c0-2.6-0.9-3.7-3.5-3.7h-4.6
		c0.8,1.5,1,2.7,1,3.8v13.1h-4.7V63.1c0-2.6-0.8-3.6-3.5-3.6h-3.7v16.7H203v-19l8.7-0.7c1.6,0,3,0.2,4.6,0.8l7.1-1
		c4.9,0.1,7.6,2.2,7.6,6.5V76.3z"/>
	<path class="st15" d="M263.6,76.3h-0.3c-1,0-3,0-3.7-0.5c-0.5-0.5-0.7-1.5-0.7-4.4v-8.3c0-2.6-0.9-3.7-3.5-3.7h-4.6
		c0.8,1.5,1,2.7,1,3.8v13.1h-4.7V63.1c0-2.6-0.8-3.6-3.5-3.6h-3.7v16.7h-4.6v-19l8.7-0.7c1.6,0,3,0.2,4.6,0.8l7.1-1
		c4.9,0.1,7.6,2.2,7.6,6.5V76.3z"/>
	<path class="st15" d="M284.5,70c0,4.5-2.7,6.6-7.8,6.5h-1.3c-5.1,0-7.8-2.1-7.8-6.5v-6.9c0-4.4,2.8-6.5,7.8-6.5h1.3
		c5,0,7.8,2.1,7.8,6.5V70z M279.7,62.9c0-2.6-1.1-3.7-3.7-3.7h-0.2c-2.6,0-3.7,1.1-3.7,3.7v7.3c0,3.4,1.8,3.7,3.9,3.7
		c2.6,0,3.7-1,3.7-3.7V62.9z"/>
</g>
</svg>
