<?xml version="1.0" encoding="utf-8"?>
<!-- Generator: Adobe Illustrator 22.0.1, SVG Export Plug-In . SVG Version: 6.00 Build 0)  -->
<svg version="1.1" id="Layer_1" xmlns="http://www.w3.org/2000/svg" xmlns:xlink="http://www.w3.org/1999/xlink" x="0px" y="0px"
	 viewBox="0 0 250 250" style="enable-background:new 0 0 250 250;" xml:space="preserve">
<style type="text/css">
	.st0{fill:url(#SVGID_1_);}
	.st1{fill:#FBB03B;}
	.st2{fill:#3C2617;}
	.st3{fill:#F6F5EA;}
	.st4{fill:#F7931E;}
	.st5{fill:#FCFCFC;}
	.st6{fill:#FDFDFC;}
	.st7{fill:#F2F2F2;}
	.st8{fill:#ECEBE9;}
	.st9{fill:none;stroke:#000000;stroke-width:0.25;stroke-miterlimit:10;}
	.st10{fill:#1A1A1A;}
</style>
<g>
	<circle cx="125" cy="125" r="125"/>
	<linearGradient id="SVGID_1_" gradientUnits="userSpaceOnUse" x1="-3.043439e-06" y1="125" x2="250" y2="125">
		<stop  offset="0" style="stop-color:#FF7300"/>
		<stop  offset="0.1771" style="stop-color:#F97C01"/>
		<stop  offset="0.4705" style="stop-color:#EA9602"/>
		<stop  offset="0.5521" style="stop-color:#E59E03"/>
		<stop  offset="0.8652" style="stop-color:#E5C500"/>
		<stop  offset="0.9944" style="stop-color:#BF6F00"/>
	</linearGradient>
	<path class="st0" d="M125,3c32.6,0,63.2,12.7,86.3,35.7c23,23,35.7,53.7,35.7,86.3s-12.7,63.2-35.7,86.3S157.6,247,125,247
		s-63.2-12.7-86.3-35.7C15.7,188.2,3,157.6,3,125s12.7-63.2,35.7-86.3C61.8,15.7,92.4,3,125,3 M125,0C56,0,0,56,0,125
		s56,125,125,125s125-56,125-125S194,0,125,0L125,0z"/>
</g>
<path class="st1" d="M32.9,32.5c-0.2,0.2-0.4,0.3-0.6,0.5c0,0,0.1,0,0.1,0c0.1,0,0.2,0,0.3,0.1c0,0,0-0.1,0-0.1
	C32.8,32.8,32.8,32.7,32.9,32.5L32.9,32.5z"/>
<path class="st1" d="M39.5,57.1c0,0,0-0.1,0-0.1h0C39.5,57,39.5,57,39.5,57.1z"/>
<path class="st1" d="M39.9,57.2c0,0.2,0,0.4,0,0.5C39.9,57.5,39.9,57.3,39.9,57.2z"/>
<path class="st1" d="M43.5,58.8c0,0.1-0.1,0.1-0.1,0.2C43.4,58.9,43.4,58.9,43.5,58.8z"/>
<path d="M31.1-31.5c-0.1,0-0.2,0-0.2,0c-0.2,0-0.3,0-0.5-0.1C30.7-31.5,30.9-31.5,31.1-31.5z"/>
<g>
	<path class="st2" d="M39.5,57L39.5,57c0,0,0,0.1,0,0.1C39.5,57,39.5,57,39.5,57z"/>
	<path class="st3" d="M39.5,57.1c0,0,0-0.1,0-0.1h0C39.5,57,39.5,57,39.5,57.1z"/>
</g>
<g>
	<path class="st4" d="M162.8,91.1c-2.4-4.2-6.5-6.3-11.1-5.6c-0.4,0.1-0.7,0.1-1.1,0.3c-3-12.4-9-23.3-17.9-32.9
		c0.8-0.2,1.4-0.7,1.6-1.7c0.4-2.3-1.6-3.9-3.2-4.9c-2-1.3,0.3-1.1,1.4-1.4c1.7-0.6,2.6-2.5,3.4-3.8c-0.7-0.7-0.7-1.7-1.3-2.4
		c-0.8-0.9-2.2-1.1-3.3-1.1c-1.1,0-2.1,0.3-3,0.9c-0.4,0.3-1.8,1.9-2.4,1.6c-0.8-0.5,2.2-3.3,2.6-3.9c0.9-1.5,1.5-3.4,0.1-4.9
		c-2.1-2.2-5.4-0.4-7.2,1.2c-2.7,2.3-4.6,5.8-4.8,9.3c-0.1,1.3-0.3,3-1.5,1.3c-0.6-0.9-0.8-1.9-1.7-2.6c-1.3-1.1-2.4-0.3-2.8,1.2
		c-0.4,1.4-0.1,3,0.4,4.3c0.5,1.3,1.3,2.5,2.2,3.5c-9.4,8.9-16.3,19.6-20.4,32.3c-3.5,10.7-3.4,21.6-3.3,32.6c0,1.4,1,3.2-1.2,4
		c-2.4,0.9-2.5,2.8-2.5,5V170c0,5.9,0,11.8,0,17.6c0,2-0.2,4.1,2.4,5c2.1,0.8,1.8,3.3,0.8,3.7c-4.7,1.9-3.2,5.7-3.1,8.9
		c0.1,4.2-1.6,8.8,1.8,12.6h67.1c1.4-1.6,2.1-3.3,2-5.5c-0.2-3.5-0.1-6.9,0-10.4c0-2.1-0.1-3.9-2.4-5.1c-2.1-1.1-2.2-3.1,0.1-4.2
		c2.2-1,2.3-2.7,2.3-4.6v-12.5c0-5.7,0-11.3,0-17v-35.6c0-1.8-0.1-3.8-1.9-4.4c-2.2-0.7-1.8-2.2-1.8-3.7c0-1.7,0-3.5,0-5.2
		c0,0,0.1-0.1,0.1-0.1c1.4-1.2,2.5-2.6,3.7-3.9c2.6-2.8,3.9-2.7,5.8,0.4C165.2,103.8,165,95,162.8,91.1z M113,45.7
		c-0.1,0-0.1,0-0.2,0.1c-0.2,0.1-0.3,0.1-0.4-0.2c-0.4-1.1-0.7-2.1-0.4-3.3c0.1-0.3,0.1-0.5,0.2-0.7c0.1,0.4,0,0.9,0.1,1.3
		C112.3,43.8,112.6,44.7,113,45.7C113,45.6,113,45.6,113,45.7z M129.1,40.6c0.9-0.7,1.9-1.2,3-1.3c0.3,0,0.5-0.1,0.8,0
		c-0.4,0.2-0.8,0.3-1.2,0.4c-0.9,0.3-1.7,0.9-2.5,1.4c0,0,0,0,0,0c0,0-0.1-0.1-0.1-0.1C128.8,40.9,128.8,40.7,129.1,40.6z M118,43.3
		c0.7-3.4,1.9-6.5,4.4-9c0.6-0.6,1-1.2,1.8-1.5c-0.4,1.3-1.4,2.2-2,3.4c-1.2,2.3-1.9,4.8-2.5,7.3c-0.1,0.3-0.1,0.7-0.2,1
		c-0.1,0-0.1,0.1-0.1,0.1c-0.2,0-0.4-0.1-0.6-0.1c-0.1,0-0.2,0-0.3,0C118,44.4,117.9,44.1,118,43.3z M133.8,95.5L133.8,95.5
		c0.1,0.1,0.1,0.1,0.1,0.2C133.9,95.7,133.9,95.6,133.8,95.5z"/>
	<path class="st5" d="M101.7,182.3c-1.2,0.1-2.5,0.1-3.7,0.3c-2.9,0.4-3.7-0.7-3.7-3.7c0-8.4,0-16.9,0-25.3h0c0-9.6,0-19.2,0-28.7
		c0-6.7,4.8-2.5,7.4-3.4c0,11,0,22,0.1,32.9c0,0,0,0,0,0c0,8.9,0,17.9,0,26.8C102.1,181.6,102.1,182,101.7,182.3z"/>
	<path class="st6" d="M107.3,108.8c-0.2,0.2-0.3,0.4-0.1,0.6c-0.9,0.1-1.9,0.1-2.8,0.2c-3.5,0.5-4.6-0.6-4.7-4.5
		c-0.4-15.1,1.1-29.7,8.9-43c1.7-2.9,3.1-6.2,6.1-8.1c-0.6,5.8-3.4,10.9-4.7,16.5C107,83.2,106.9,95.9,107.3,108.8z"/>
	<path class="st7" d="M102.2,212.3c-0.2,0.2-0.3,0.4-0.1,0.6c-0.9,0.1-1.8,0.1-2.8,0.2c-3,0.3-4.8,0-4.8-4c0-4.3,2.5-3.3,4.8-3.4
		c0.9,0,1.9,0.1,2.8,0.2C102.1,208.1,102.1,210.2,102.2,212.3z"/>
	<path class="st8" d="M106,195.3c-0.2,0.2-0.3,0.4-0.2,0.7c-1.7,0.1-3.4,0.1-5.1,0.2c-1.4,0.1-2.3-0.3-2.4-2c0-1.9,1.1-2,2.4-1.9
		c1.7,0.1,3.4,0.2,5.1,0.2C105.9,193.4,105.9,194.4,106,195.3z"/>
	<path d="M143.2,79.1c-0.3,0.2-0.6,0.4-0.9,0.6c-0.5,0.3-1.1,0.3-1.7,0.2c-1.3-0.2-2.4-0.9-3.6-1.6c-2.3-1.5-4.3-3.3-6.5-4.9
		c-1.7-1.3-3.5-2.5-5.2-3.7c-1.6-1.1-3.3-1.9-5-2.6c-0.5-0.2-1-0.4-1.5-0.4c0,0.2,0.2,0.3,0.2,0.4c1,1.6,1.9,3.1,2.5,4.8
		c0.2,0.5,0.6,0.8,1.1,1c1,0.3,1.9,0.6,2.9,0.9c2.2,0.8,4.3,1.6,6.3,2.8c1.5,0.9,2.7,2.1,3.9,3.4c0.6,0.7,1.2,1.5,1.9,2.1
		c0.7,0.6,1.5,1,2.3,1c0.9,0,1.6-0.4,2.2-1C142.8,81.7,143.4,79.8,143.2,79.1z"/>
	<g>
		<path class="st1" d="M112.2,42.8c0.1,1,0.4,1.9,0.8,2.8c0,0,0,0,0,0c-0.1,0-0.1,0-0.2,0.1c-0.2,0.1-0.3,0.1-0.4-0.2
			c-0.4-1.1-0.7-2.1-0.4-3.3c0.1-0.3,0.1-0.5,0.2-0.7C112.3,42,112.2,42.4,112.2,42.8z"/>
		<path class="st1" d="M124.2,32.8c-0.4,1.3-1.4,2.2-2,3.4c-1.2,2.3-1.9,4.8-2.5,7.3c-0.1,0.3-0.1,0.7-0.2,1c-0.1,0-0.1,0.1-0.1,0.1
			c-0.2,0-0.4-0.1-0.6-0.1c-0.1,0-0.2,0-0.3,0c-0.5-0.1-0.7-0.5-0.5-1.2c0.7-3.4,1.9-6.5,4.4-9C122.9,33.8,123.4,33.1,124.2,32.8z"
			/>
		<path class="st1" d="M132.9,39.4c-0.4,0.2-0.8,0.3-1.2,0.4c-0.9,0.3-1.7,0.9-2.5,1.4c0,0,0,0,0,0c0,0-0.1-0.1-0.1-0.1
			c-0.2-0.2-0.1-0.3,0.1-0.5c0.9-0.7,1.9-1.2,3-1.3C132.4,39.3,132.6,39.3,132.9,39.4z"/>
		<path class="st6" d="M124.2,32.8c-0.4,1.3-1.4,2.2-2,3.4c-1.2,2.3-1.9,4.8-2.5,7.3c-0.1,0.3-0.1,0.7-0.2,1c-0.1,0-0.1,0.1-0.1,0.1
			c-0.2,0-0.4-0.1-0.6-0.1c-0.1,0-0.2,0-0.3,0c-0.5-0.1-0.7-0.5-0.5-1.2c0.7-3.4,1.9-6.5,4.4-9C122.9,33.8,123.4,33.1,124.2,32.8z"
			/>
		<path class="st6" d="M113,45.6C113,45.6,113,45.6,113,45.6c-0.1,0.1-0.1,0.1-0.2,0.1c-0.2,0.1-0.3,0.1-0.4-0.2
			c-0.4-1.1-0.7-2.1-0.4-3.3c0.1-0.3,0.1-0.5,0.2-0.7c0.1,0.4,0,0.9,0.1,1.3C112.3,43.8,112.6,44.7,113,45.6z"/>
		<path class="st6" d="M132.9,39.4c-0.4,0.2-0.8,0.3-1.2,0.4c-0.9,0.3-1.7,0.9-2.5,1.4c0,0,0,0,0,0c0,0-0.1-0.1-0.1-0.1
			c-0.2-0.2-0.1-0.3,0.1-0.5c0.9-0.7,1.9-1.2,3-1.3C132.4,39.3,132.6,39.3,132.9,39.4z"/>
	</g>
	<path d="M124.3,83.8L124.3,83.8c-0.1,0-0.2-0.1-0.3-0.1c-1.1-0.3-1.8-1.5-1.5-2.6c0.3-1.1,1.5-1.8,2.6-1.5c0.1,0,0.2,0.1,0.3,0.1
		l0,0l7.6,4.4L124.3,83.8z"/>
	<path class="st9" d="M127.8,87.1c0,0-4.6-0.9-6-0.9c-0.2,0-0.5,0.9-0.5,0.9"/>
</g>
<path class="st10" d="M66.4,94.2c9.4,3.4,11.8,8.3,11.8,16.6c0,15.6-6.8,22.3-20.8,21.1L35.3,130v8.6l44.9,6.2v9.9
	c0,12.8-7.2,19-26.3,19l-37.1-2.1V164h36.8c8.3,0,9.9-3.8,9.9-5.7v-6.2l-44.6-6v-39.4c0-15.4,9.6-22.2,27.3-22.2h35.2v8.2L66.4,94.2
	z M61.5,106.6c0-8.9-2.9-12.8-12-12.8h-2.4c-8.9,0-11.8,3.9-11.8,12.8v16.6h14.9c9.1,0,11.3-3.6,11.3-12.7V106.6z"/>
<path class="st10" d="M193.1,153.8c-19.8,0-27.9-7.2-27.9-22.8v-2.3c0-15.2,8.8-22.2,21-21.7c7.2,0.4,14.9,1,22,1.4v-5.4
	c0-6-3.5-8.9-18.9-8.9h-20.3V86l21.8-2.3c25.4,0,33.5,6.9,33.5,23.7v44.2L193.1,153.8z M208.2,115.8h-14.9c-9.1,0-11.7,3.5-11.7,13
	v2.8c0,9.3,2.8,13,12.1,13h14.5V115.8z"/>
</svg>
