<?xml version="1.0" encoding="utf-8"?>
<!-- Generator: Adobe Illustrator 22.0.1, SVG Export Plug-In . SVG Version: 6.00 Build 0)  -->
<svg version="1.1" id="Layer_1" xmlns="http://www.w3.org/2000/svg" xmlns:xlink="http://www.w3.org/1999/xlink" x="0px" y="0px"
	 viewBox="0 0 250 250" style="enable-background:new 0 0 250 250;" xml:space="preserve">
<style type="text/css">
	.st0{fill:url(#SVGID_1_);}
	.st1{fill:#F7931E;}
	.st2{opacity:0.26;}
	.st3{fill:url(#SVGID_2_);}
</style>
<g>
	<circle cx="125" cy="125" r="125"/>
	<linearGradient id="SVGID_1_" gradientUnits="userSpaceOnUse" x1="0" y1="125" x2="250" y2="125">
		<stop  offset="0" style="stop-color:#FF7300"/>
		<stop  offset="0.1771" style="stop-color:#F97C01"/>
		<stop  offset="0.4705" style="stop-color:#EA9602"/>
		<stop  offset="0.5521" style="stop-color:#E59E03"/>
		<stop  offset="0.8652" style="stop-color:#E5C500"/>
		<stop  offset="0.9944" style="stop-color:#BF6F00"/>
	</linearGradient>
	<path class="st0" d="M125,5c32.1,0,62.2,12.5,84.9,35.1S245,92.9,245,125s-12.5,62.2-35.1,84.9S157.1,245,125,245
		s-62.2-12.5-84.9-35.1S5,157.1,5,125s12.5-62.2,35.1-84.9S92.9,5,125,5 M125,0C56,0,0,56,0,125s56,125,125,125s125-56,125-125
		S194,0,125,0L125,0z"/>
</g>
<path class="st1" d="M110.4,127.2c-0.2,0.1-0.4,0.2-0.6,0.2c0,0,0,0-0.1,0c-0.1,0-0.2,0-0.3,0C109.7,127.3,110.1,127.2,110.4,127.2z
	"/>
<g>
	<path class="st1" d="M111.1,127l-0.7,0.2C110.6,127.1,110.9,127,111.1,127C111.1,126.9,111.1,127,111.1,127z"/>
</g>
<g id="N1UUZS.tif">
	<g>
		<path class="st1" d="M90.8,142C90.7,142,90.7,142,90.8,142C90.7,142.1,90.7,142,90.8,142L90.8,142C90.7,142,90.7,142,90.8,142z"/>
		<path class="st1" d="M85.9,106.7C85.8,106.7,85.8,106.7,85.9,106.7l-0.1-0.1C85.8,106.6,85.8,106.7,85.9,106.7z"/>
		<path class="st1" d="M90.7,141.9C90.7,142,90.7,142,90.7,141.9C90.7,142,90.7,142,90.7,141.9C90.7,141.9,90.7,141.9,90.7,141.9
			C90.7,141.9,90.7,141.9,90.7,141.9z"/>
		<path class="st1" d="M99.6,135.3c0,0,0,0.1-0.1,0.1C99.6,135.4,99.6,135.3,99.6,135.3C99.6,135.3,99.6,135.3,99.6,135.3z"/>
		<path class="st1" d="M99.6,135.3C99.6,135.3,99.6,135.3,99.6,135.3c0,0.1,0,0.1-0.1,0.2L99.6,135.3z"/>
		<path class="st1" d="M104.5,135.3c0,0,0,0.1,0,0.1C104.5,135.3,104.5,135.3,104.5,135.3C104.5,135.3,104.5,135.3,104.5,135.3z"/>
		<path class="st1" d="M104.5,135.2l-0.1,0.2C104.5,135.4,104.5,135.3,104.5,135.2C104.5,135.2,104.5,135.2,104.5,135.2z"/>
		<path class="st1" d="M94.7,93.1c0,1.1,0,2.1-0.1,3.1C94.6,95.3,94.6,94.3,94.7,93.1z"/>
		<path class="st1" d="M119.3,133.1C119.2,133.1,119.2,133.2,119.3,133.1c0,0.1,0,0.1,0,0.1C119.2,133.2,119.2,133.1,119.3,133.1
			L119.3,133.1z"/>
		<path class="st1" d="M125.1,131C125.1,131,125.1,131,125.1,131C125.1,130.9,125.1,130.9,125.1,131
			C125.1,130.9,125.1,131,125.1,131z"/>
		<path class="st1" d="M137,126.5L137,126.5c0,0.1-0.1,0.1-0.1,0.1C136.9,126.6,136.9,126.6,137,126.5
			C137,126.5,137,126.5,137,126.5z"/>
		<path class="st1" d="M138,119.8L138,119.8C137.9,119.8,137.9,119.8,138,119.8L138,119.8C137.9,119.8,138,119.8,138,119.8z"/>
		<path class="st1" d="M137,126.5c0,0.1,0,0.1,0,0.2h0v0C136.9,126.6,136.9,126.6,137,126.5C137,126.5,137,126.5,137,126.5
			L137,126.5z"/>
		<path class="st1" d="M138,119.8L138,119.8C137.9,119.8,137.9,119.8,138,119.8L138,119.8c-0.1-0.1-0.1-0.1,0-0.2L138,119.8z"/>
		<path class="st1" d="M37.7,126.5c0,0,0,0.1-0.1,0.1c0,0,0,0,0,0c0,0,0,0,0,0.1l0-0.2H37.7z"/>
		<path class="st1" d="M85.9,106.6L85.9,106.6C85.8,106.7,85.8,106.7,85.9,106.6L85.9,106.6c-0.1-0.1-0.1-0.1-0.1-0.2
			C85.8,106.5,85.8,106.6,85.9,106.6z"/>
		<path class="st1" d="M197.9,126.6C197.9,126.6,197.9,126.5,197.9,126.6C197.9,126.6,197.9,126.6,197.9,126.6
			C197.9,126.6,197.8,126.6,197.9,126.6L197.9,126.6C197.9,126.5,197.9,126.6,197.9,126.6z"/>
		<path class="st1" d="M203.9,126.6L203.9,126.6C203.9,126.6,203.8,126.6,203.9,126.6L203.9,126.6L203.9,126.6L203.9,126.6
			C203.9,126.5,203.9,126.5,203.9,126.6L203.9,126.6l0,0.1C203.8,126.6,203.9,126.6,203.9,126.6z"/>
		<path class="st1" d="M203.9,126.5l-0.1,0.2c0,0,0,0,0,0C203.8,126.6,203.8,126.6,203.9,126.5L203.9,126.5L203.9,126.5z"/>
		<path class="st1" d="M37.5,126.6L37.5,126.6c0,0.1,0,0.1,0,0.2L37.5,126.6C37.5,126.5,37.5,126.6,37.5,126.6z"/>
		<path class="st1" d="M37.6,126.5h0.1c0,0,0,0.1-0.1,0.1C37.6,126.6,37.6,126.6,37.6,126.5C37.6,126.5,37.6,126.5,37.6,126.5z"/>
		<path class="st1" d="M42.6,126.5L42.6,126.5C42.5,126.5,42.5,126.6,42.6,126.5C42.5,126.5,42.5,126.5,42.6,126.5L42.6,126.5z"/>
		<path class="st1" d="M197.9,126.5C197.9,126.5,197.9,126.6,197.9,126.5c0,0.1,0,0.1,0,0.2C197.9,126.6,197.8,126.6,197.9,126.5
			L197.9,126.5z"/>
		<path class="st1" d="M42.6,126.5L42.6,126.5l0,0.2c0,0,0,0,0,0L42.6,126.5C42.5,126.5,42.5,126.5,42.6,126.5L42.6,126.5z"/>
		<path class="st1" d="M138,119.8L138,119.8C137.9,119.8,137.9,119.8,138,119.8L138,119.8C137.9,119.8,138,119.8,138,119.8z"/>
		<path class="st1" d="M85.9,106.6L85.9,106.6C85.8,106.7,85.8,106.7,85.9,106.6L85.9,106.6c-0.1-0.1-0.1-0.1-0.1-0.2
			C85.8,106.5,85.8,106.6,85.9,106.6z"/>
		<path class="st1" d="M213.6,120.2c-1.7-0.9-3.3-0.3-4.8,1.6c-1.4-3.5-3.2-1.5-4.9-1.6h-5.1c-1.4,0-2.9-1.6-3.9,1.8
			c-16,0.2-32.1,0.9-48-2.2c-3-0.6-5.9,3.3-8.9-0.1l0,0.2h-0.1c0,0,0,0,0,0c-0.1-0.1-0.2-0.2-0.4-0.3c0,0,0,0,0,0
			c-1.5-1.7-3-7.4-4.6,0.4c-1.4,1.9-2.4,1-3-2.4c-2-5.5-3.9-7.6-5.8,0.2h-0.9c-0.1-0.1-0.2-0.2-0.2-0.4c0,0,0,0,0,0
			c-1.1-2-1.8-7.1-3.7-1.9c0-0.7-0.1-1.5-0.1-2.3c-0.1-3.5,0.9-7.8-1.7-9.7v9.7c-0.7,2.9-1.5,5.9-2.2,8.8c-1.3-1.5-2.3-3.8-3-6.6
			c0.3-3.5,0.1-6.9-1.7-7c-1.6,0-3.9-1.5-4.1,4.9c-0.3,0-0.6,0-0.9,0c-0.5-6.7-3.6-10.9-3-20.7c-1.2,5.6-0.9,8.8-0.8,11.9
			c-0.4,6.5-0.4,6.5-2.3,6.5c0.5-7.5-4.2-8.4-4.7-14.7c-0.1,2.9-0.1,5.8-0.2,8.9c-2.3-7.1-7.6-8.9-6.1-21.1c-1,5.5-0.6,10.8-0.5,16
			c0,3.7-0.1,7.3-0.2,11c-0.6-1.5-1.2-2.9-1.9-4.4v0.1c0,0,0,0-0.1,0v-0.1c0,0,0-0.1,0-0.1c0,0,0,0.1,0.1,0.2
			c-0.3-10.1-0.7-20.2-3.9-29.2v13.8c-0.6,8.7,0.9,18.1-1.7,26.8c-0.5-5.6-1-10.8-1.5-15.9c0-5.7,0.8-11.6-1.1-18.5
			c-1.1,7.3-0.7,12.9-0.6,18.5c-0.4,3.1,0.6,7.8-1.3,9c-1.1,0.7-0.6-3-0.9-4.7c0.1-5,0.5-10.1-0.7-14.8c-0.6-2.1,0.7-6.6-0.9-6.4
			c-1.5,0.2-2.9,3.5-2,8.2c-0.7,5.8,0.8,12.2-1.1,17.6c0-6-1.6-11.6-1.3-18.1c-0.5,3.7-1.3,6.8-2.5,9.2c-0.4,2.1,0.3,4.9-0.7,6.7
			c-1.3-2.4-1.3-5.7-1.5-8.9V87.8c-2.3,4.8-1.8,9.6-1.7,14.2c-0.1,3.6-0.2,7.3-2.1,9v-10.6c-1,3.3-1.4,4.9-1.9,6.6
			c-2,3.2-0.5,9.3-2.1,12.8c-3.6,0.2-7.2,0.3-10.8,0.5c-1.3,0-2.5,0-3.8-0.1c-1.1,0-2.1,0-3.1,0v0c-11.1-2-22.1,3.3-33.2,2.1
			c-0.1,0.6-0.1,1.2,0,1.8c10.8,0.9,21.5,1.8,32.3,2.7l0-0.2h0.2c0,0,0,0.1-0.1,0.1c0,0,0,0,0,0c1.6,3.1,3.3,3,4.9,0v-0.1
			c0,0,0,0,0,0h0.1l0,0l0,0.1c0.6-0.2,1.3-0.4,1.9-0.6c4.3,0.2,8.5,0.3,12.8,0.5c0,4.4,0.1,8.8,0.1,13.3c0.1,4.1-1,9,1.1,11.8
			c1.6-2.6-0.7-9.7,2.7-9.6c0,2.2,0.1,4.4,0.2,6.6v17.7c0.2,0,0.4,0,0.7,0c0.1-3.8,0.2-7.6,0.4-13.2c0.6,3.2,1,5,1.8,9.5
			c-0.5-9.7,1.6-15.8,0.8-22.8c2-0.9,0.7,3,1.3,4.2v17.7c0.8-7.4,2.3-14.4,1.9-22.1c-0.1,0.3-0.2,0.5-0.3,0.8
			c0.1-0.3,0.2-0.6,0.3-0.8c0.8-1.4,1.7-2.9,3.1-5.2v43c1-11.2,1.1-22.6,2.8-33.3c1.5-1.7,0.4-6.2,1.8-9.1c0.1,3.7,0.2,6.5,0.3,9.3
			v24.4c0.3,0,0.6,0,0.9,0v-24.6c4-1,1.7-12,5-15.7v26.8c-0.1,6-0.5,12,0.4,19c0.8-6.9,0.5-13,0.4-19c0-0.7,0.1-1.5,0.1-2.3
			c0.7-4.5,3.9-6.5,2.8-13c0.3-3.1-0.1-7.2,2.3-8.9v15.4c0.1,1.9-1,4.8,1,5.3c1.7,0.4,1.8-1.5,1.8-4.2c0-1.8,0-3.6,0.1-5.4h0
			c0,0,0,0-0.1,0V142c0,0,0-0.1,0-0.1c0,0,0,0,0,0.1c0,0,0,0,0,0c1-0.7,1.9-1.5,2.9-2.2c0,0.7,0.1,1.5,0.1,2.3
			c-0.1,6.7-0.5,13.4,0.7,20.1V142c0-0.7,0.1-1.5,0.1-2.3c1.3,0.5,0.6,3.8,1.4,5c0-5.2,4.2-2.8,3.6-9.2c0,0-0.1-0.1-0.1-0.1v0
			c0-0.1,0-0.1,0-0.2c0,0,0,0,0.1,0c0,0,0,0,0,0c0,0.1,0,0.2,0,0.2c0.6,0.6,1.2,1.3,1.8,1.9c0,1.5,0.1,2.9,0.2,4.4v13
			c2.7-5.2,3.1-12.2,2.9-19.6c0,0-0.1,0.1-0.1,0.2c0,0,0,0,0-0.1c0,0,0,0,0,0c0,0,0-0.1,0-0.1c0,0,0,0,0,0c0,0,0,0,0,0v0.1
			c0.9-1.2,2.8,4.1,2.9-2.2l0.5,0h0.5v15.6c0.4-7.1,2.3-12.4,4-17.8c1.3-1.4,2.6-2.8,3.9-4.2c0.1,2.2,0.1,4.3,0.2,6.5v12.8
			c0-5.5,3-7.8,2.9-13c1.7-3.2,3.9-0.5,5.7-2c0,0,0-0.1,0-0.1c0,0,0,0,0,0c0,0,0,0,0,0c0,0,0,0,0.1,0.1c0,0-0.1,0.1-0.1,0.1
			c0.2,2.3,0.4,4.7,0.6,7.1c-0.2-7.1,4.6-2.6,4.5-9.5l0,0c0,0-0.1,0-0.1,0.1c0,0,0-0.1,0.1-0.1h0.1c2.2-1.8,4.9,3.9,6.8-2h0v0
			c0,0,0-0.1,0-0.1c0,0,0,0,0.1,0h0c0,0.1,0,0.1,0,0.2c7.5-1.7,15-0.9,22.5-1.7c12.1-1.3,24.3-2.7,36.4,1.1c0.6,0.2,1.3,0.4,1.9,0.6
			c0,0,0-0.1-0.1-0.2h0.1c0,0,0,0,0,0.1c0,0,0,0.1,0,0.1c2,5.4,4,3.8,6,0c0,0,0,0,0,0v-0.1h0.1l-0.1,0.2c1.6-0.2,3.3-0.4,4.9-0.6
			h3.9c10.9,1.8,21.6-3.4,32.5-1.8v-2.2C234.6,121.4,224.1,120.8,213.6,120.2z M119.2,133.2C119.2,133.2,119.2,133.2,119.2,133.2
			C119.2,133.2,119.2,133.1,119.2,133.2L119.2,133.2C119.3,133.1,119.3,133.2,119.2,133.2z"/>
		<path class="st1" d="M104.5,135.2L104.5,135.2c0,0.1-0.1,0.2-0.1,0.2c0,0,0,0,0-0.1c0,0,0,0,0,0
			C104.5,135.3,104.5,135.3,104.5,135.2C104.5,135.3,104.5,135.3,104.5,135.2C104.5,135.2,104.5,135.2,104.5,135.2z"/>
		<path class="st1" d="M90.8,142L90.8,142L90.8,142C90.7,142,90.7,142,90.8,142L90.8,142c-0.1,0-0.1-0.1-0.1-0.1
			C90.7,141.9,90.7,141.9,90.8,142C90.8,142,90.8,142,90.8,142z"/>
		<path class="st1" d="M99.6,135.6c0,0-0.1-0.1-0.1-0.1v0c0-0.1,0-0.1,0-0.2c0,0,0,0,0.1,0c0,0,0,0,0,0
			C99.6,135.5,99.6,135.5,99.6,135.6z"/>
		<path class="st1" d="M125.1,131c0,0-0.1,0.1-0.1,0.1c0,0,0-0.1,0-0.1C125,131,125,131,125.1,131
			C125.1,130.9,125.1,130.9,125.1,131C125.1,130.9,125.1,131,125.1,131z"/>
		<path class="st1" d="M130.1,128.7L130.1,128.7c0,0-0.1,0.1-0.1,0.1C130,128.8,130,128.7,130.1,128.7L130.1,128.7z"/>
		<path class="st1" d="M119.3,133.1C119.3,133.1,119.3,133.2,119.3,133.1c-0.1,0.1-0.1,0.1-0.1,0.1
			C119.2,133.2,119.2,133.1,119.3,133.1L119.3,133.1z"/>
		<path class="st1" d="M119.3,133.1C119.3,133.1,119.3,133.2,119.3,133.1c-0.1,0.1-0.1,0.1-0.1,0.1
			C119.2,133.2,119.2,133.1,119.3,133.1L119.3,133.1z"/>
		<path class="st1" d="M125.1,131c0,0-0.1,0.1-0.1,0.1c0,0,0-0.1,0-0.1C125,131,125,131,125.1,131
			C125.1,130.9,125.1,130.9,125.1,131C125.1,130.9,125.1,131,125.1,131z"/>
		<path class="st1" d="M197.9,126.5C197.9,126.5,197.9,126.6,197.9,126.5c0,0.1,0,0.1,0,0.2C197.9,126.6,197.8,126.6,197.9,126.5
			L197.9,126.5z"/>
		<path class="st1" d="M203.9,126.5L203.9,126.5L203.9,126.5L203.9,126.5c0,0.1,0,0.1,0,0.1C203.8,126.6,203.8,126.6,203.9,126.5
			L203.9,126.5L203.9,126.5z"/>
		<path class="st1" d="M130.1,128.7L130.1,128.7c0,0-0.1,0.1-0.1,0.1C130,128.8,130,128.7,130.1,128.7L130.1,128.7z"/>
		<path class="st1" d="M137,126.5c0,0.1,0,0.1,0,0.2h0v0C136.9,126.6,136.9,126.6,137,126.5C137,126.5,137,126.5,137,126.5
			L137,126.5z"/>
		<path class="st1" d="M90.8,142L90.8,142L90.8,142C90.7,142,90.7,142,90.8,142L90.8,142C90.7,142,90.7,142.1,90.8,142L90.8,142
			c-0.1,0-0.1-0.1-0.1-0.1C90.7,141.9,90.7,141.9,90.8,142C90.8,142,90.8,142,90.8,142z"/>
		<path class="st1" d="M104.5,135.2L104.5,135.2c0,0.1-0.1,0.2-0.1,0.2c0,0,0,0,0-0.1c0,0,0,0,0,0
			C104.5,135.3,104.5,135.3,104.5,135.2C104.5,135.3,104.5,135.3,104.5,135.2C104.5,135.2,104.5,135.2,104.5,135.2z"/>
		<path class="st1" d="M99.6,135.6c0,0-0.1-0.1-0.1-0.1v0c0-0.1,0-0.1,0-0.2c0,0,0,0,0.1,0c0,0,0,0,0,0
			C99.6,135.5,99.6,135.5,99.6,135.6z"/>
		<path class="st1" d="M37.7,126.5c0,0,0,0.1-0.1,0.1c0,0,0,0,0,0c0,0,0,0,0,0c0,0,0-0.1-0.1-0.1H37.7z"/>
		<path class="st1" d="M42.6,126.5L42.6,126.5c0,0,0,0.1,0,0.1L42.6,126.5C42.5,126.5,42.5,126.5,42.6,126.5L42.6,126.5z"/>
	</g>
</g>
<g class="st2">
	<linearGradient id="SVGID_2_" gradientUnits="userSpaceOnUse" x1="22.0716" y1="57.6281" x2="222.9887" y2="188.9504">
		<stop  offset="0" style="stop-color:#FF7300"/>
		<stop  offset="0.1771" style="stop-color:#F97C01"/>
		<stop  offset="0.4705" style="stop-color:#EA9602"/>
		<stop  offset="0.5521" style="stop-color:#E59E03"/>
		<stop  offset="0.8652" style="stop-color:#E5C500"/>
		<stop  offset="0.9944" style="stop-color:#BF6F00"/>
	</linearGradient>
	<circle class="st3" cx="125.1" cy="125" r="120"/>
</g>
</svg>
