<svg id="Layer_1" data-name="Layer 1" xmlns="http://www.w3.org/2000/svg" xmlns:xlink="http://www.w3.org/1999/xlink" viewBox="0 0 902.21 300"><defs><style>.cls-1{fill:#231f20;}.cls-2{fill:#f3712f;}.cls-3{fill:url(#linear-gradient);}.cls-4{fill:url(#linear-gradient-2);}.cls-5{fill:url(#linear-gradient-3);}.cls-6{fill:url(#linear-gradient-4);}.cls-7{fill:url(#linear-gradient-5);}.cls-8{fill:url(#linear-gradient-6);}.cls-9{fill:url(#linear-gradient-7);}.cls-10{fill:#f79421;}.cls-11{stroke:#010101;fill:url(#radial-gradient);}.cls-11,.cls-13{stroke-miterlimit:10;stroke-width:0.58px;}.cls-12,.cls-13{fill:#010101;}.cls-13{stroke:#f79421;}.cls-14{fill:#faa326;}.cls-15{font-size:10px;fill:#bcbec0;font-family:RogueSansExt-Light, Rogue Sans Ext;}.cls-16{letter-spacing:-0.02em;}.cls-17{letter-spacing:-0.02em;}.cls-18{letter-spacing:0em;}.cls-19{letter-spacing:-0.01em;}.cls-20{letter-spacing:-0.02em;}.cls-21{letter-spacing:-0.05em;}.cls-22{letter-spacing:-0.02em;}.cls-23{letter-spacing:0em;}.cls-24{letter-spacing:-0.01em;}.cls-25{letter-spacing:-0.02em;}.cls-26{letter-spacing:0em;}.cls-27{letter-spacing:-0.05em;}</style><linearGradient id="linear-gradient" x1="138.61" y1="330.77" x2="138.67" y2="330.77" gradientTransform="translate(-87.87 -221.07)" gradientUnits="userSpaceOnUse"><stop offset="0" stop-color="#00aeef"/><stop offset="0.03" stop-color="#03acec"/><stop offset="0.06" stop-color="#0da6e4"/><stop offset="0.08" stop-color="#1e9bd5"/><stop offset="0.11" stop-color="#368dc1"/><stop offset="0.13" stop-color="#557aa6"/><stop offset="0.15" stop-color="#7b6286"/><stop offset="0.17" stop-color="#a74760"/><stop offset="0.19" stop-color="#da2834"/><stop offset="0.2" stop-color="#ed1c24"/><stop offset="0.22" stop-color="#e72125"/><stop offset="0.25" stop-color="#d72f29"/><stop offset="0.29" stop-color="#bc462e"/><stop offset="0.33" stop-color="#966636"/><stop offset="0.37" stop-color="#668f40"/><stop offset="0.4" stop-color="#39b54a"/><stop offset="0.6" stop-color="#ffde17"/><stop offset="0.62" stop-color="#e1b935"/><stop offset="0.65" stop-color="#c39453"/><stop offset="0.67" stop-color="#aa756c"/><stop offset="0.7" stop-color="#975d80"/><stop offset="0.73" stop-color="#8a4c8d"/><stop offset="0.76" stop-color="#824295"/><stop offset="0.8" stop-color="#7f3f98"/><stop offset="0.88" stop-color="#f7941d"/></linearGradient><linearGradient id="linear-gradient-2" x1="266.61" y1="330.4" x2="266.68" y2="330.4" xlink:href="#linear-gradient"/><linearGradient id="linear-gradient-3" x1="394.99" y1="330.47" x2="395.06" y2="330.47" xlink:href="#linear-gradient"/><linearGradient id="linear-gradient-4" x1="523" y1="330.1" x2="523.06" y2="330.1" xlink:href="#linear-gradient"/><linearGradient id="linear-gradient-5" x1="656.19" y1="329.84" x2="656.26" y2="329.84" xlink:href="#linear-gradient"/><linearGradient id="linear-gradient-6" x1="784.2" y1="329.47" x2="784.27" y2="329.47" xlink:href="#linear-gradient"/><linearGradient id="linear-gradient-7" x1="87.87" y1="346.07" x2="867.87" y2="346.07" xlink:href="#linear-gradient"/><radialGradient id="radial-gradient" cx="810.01" cy="117.11" r="78.69" gradientTransform="translate(0 -8.25) scale(1 1.01)" gradientUnits="userSpaceOnUse"><stop offset="0" stop-color="#fcbc4c"/><stop offset="0.19" stop-color="#fcb643"/><stop offset="0.52" stop-color="#faa529"/><stop offset="0.55" stop-color="#faa326"/><stop offset="0.87" stop-color="#f3712f"/><stop offset="0.99" stop-color="#ef3932"/></radialGradient></defs><title>roadmap-horizontal</title><rect class="cls-1" x="1.14" width="902.2" height="300"/><path class="cls-2" d="M86.7,44.51l-.41,1.41a1,1,0,0,1-1.1.74c.7,2.61.43,6.91-.9,11.53-1.53,5.37-4.05,9.61-6.28,11v3.48c0,1-3.54,1.91-8.34,2.17h4.67v1.75H60.51c-20.68,0-37.44-15.67-37.44-35s16.76-35,37.44-35H74.34V8.33H68.63C74,8.5,78,9.43,78,10.54V18a1.5,1.5,0,0,1-1.5,1.5H57A1.5,1.5,0,0,1,55.55,18V14.34a28.08,28.08,0,0,0,0,54.48V65.17A1.5,1.5,0,0,1,57,63.67h19.3a28.63,28.63,0,0,0,3.84-8.49,28.1,28.1,0,0,0,1.22-9.59l-1.19-.34a1,1,0,0,1-.7-1.27l.41-1.42a1,1,0,0,1,1.27-.7L86,43.24A1,1,0,0,1,86.7,44.51Z"/><path class="cls-2" d="M98.6,76.58c-5.65,0-8-2.06-8-6.52v-.65c0-4.35,2.52-6.33,6-6.19,2,.11,4.25.29,6.3.4V62.07c0-1.73-1-2.56-5.4-2.56h-5.8V57.17L98,56.52c7.28,0,9.58,2,9.58,6.77V75.93Zm4.32-10.88H98.67c-2.59,0-3.35,1-3.35,3.71v.79c0,2.67.8,3.71,3.46,3.71h4.14Z"/><path class="cls-2" d="M139.79,76.29h-.29c-1,0-3,0-3.67-.54s-.69-1.51-.69-4.36V63.11c0-2.59-.86-3.71-3.45-3.71h-4.61a8.59,8.59,0,0,1,1,3.82V76.29h-4.68V63.11c0-2.59-.83-3.56-3.45-3.56h-3.68V76.29h-4.57v-19l8.68-.68a12.17,12.17,0,0,1,4.61.82l7.12-1c4.94.07,7.64,2.16,7.64,6.52Z"/><path class="cls-2" d="M160.67,63.58c0,4.82-1.23,6.19-6,6.19l-6.26-.54v2.09c0,1.12.54,2.45,3.42,2.45h8.1V76l-8.46.58c-5.33,0-7.71-2.13-7.71-6.52V63c0-4.35,2.88-6.51,7.82-6.51h1.29c5.12,0,7.82,2.09,7.82,6.51ZM156,62.82c0-2.59-.79-3.67-3.42-3.67h-.72c-2.52,0-3.42,1.19-3.42,3.67v4.47h3.42a6.17,6.17,0,0,0,3.06-.51c.83-.61,1.08-1.62,1.08-3.2Z"/><path class="cls-2" d="M178.81,64.05h-3.24c0-3.64-1.41-4.65-4-4.65H169.2V76.29h-4.58V57.1l7.92-.68c3.79,0,7.28,2.08,6.63,5.76Z"/><path class="cls-2" d="M189.9,76.58c-5.66,0-8-2.06-8-6.52v-.65c0-4.35,2.52-6.33,6-6.19,2.05.11,4.24.29,6.3.4V62.07c0-1.73-1-2.56-5.4-2.56H183V57.17l6.23-.65c7.27,0,9.58,2,9.58,6.77V75.93Zm4.32-10.88H190c-2.59,0-3.35,1-3.35,3.71v.79c0,2.67.79,3.71,3.46,3.71h4.14Z"/><path class="cls-2" d="M231.08,76.29h-.29c-1,0-3,0-3.67-.54s-.68-1.51-.68-4.36V63.11c0-2.59-.87-3.71-3.46-3.71h-4.61a8.49,8.49,0,0,1,1,3.82V76.29h-4.68V63.11c0-2.59-.83-3.56-3.46-3.56h-3.67V76.29H203v-19l8.67-.68a12.14,12.14,0,0,1,4.61.82l7.13-1c4.93.07,7.63,2.16,7.63,6.52Z"/><path class="cls-2" d="M263.59,76.29h-.29c-1,0-3,0-3.67-.54s-.68-1.51-.68-4.36V63.11c0-2.59-.87-3.71-3.46-3.71h-4.61a8.49,8.49,0,0,1,1.05,3.82V76.29h-4.68V63.11c0-2.59-.83-3.56-3.46-3.56h-3.67V76.29h-4.58v-19l8.68-.68a12.14,12.14,0,0,1,4.61.82l7.13-1c4.93.07,7.63,2.16,7.63,6.52Z"/><path class="cls-2" d="M284.47,70c0,4.5-2.7,6.56-7.81,6.52h-1.3c-5.15,0-7.81-2.05-7.81-6.52V63.11c0-4.39,2.77-6.51,7.81-6.51h1.3c5,0,7.81,2.12,7.81,6.51Zm-4.75-7.09c0-2.59-1.12-3.71-3.68-3.71h-.21c-2.59,0-3.67,1.12-3.67,3.71V70.2c0,3.39,1.83,3.71,3.85,3.71,2.63,0,3.71-1,3.71-3.71Z"/><path class="cls-2" d="M328.65,74.89,317.87,59.36V57C326.46,57,328,55.2,328,52.75V50.49c0-3-.85-5-6.91-5h-4.89c0,9.67.06,19.74.06,29.41h-8.77V41.58H323.6c8.65,0,13.76,2.5,13.76,8.71v1.86c0,5.71-3.65,7.92-10.56,8,3.87,4.66,8.53,10.12,12.35,14.73Z"/><path class="cls-2" d="M360.32,69.71c0,3.73-3,5.42-8.73,5.39h-1.45c-5.76,0-8.74-1.69-8.74-5.39V64c0-3.63,3.1-5.39,8.74-5.39h1.45c5.63,0,8.73,1.76,8.73,5.39ZM355,63.85c0-2.15-1.25-3.07-4.11-3.07h-.24c-2.9,0-4.1.92-4.1,3.07v6c0,2.8,2.05,3.07,4.3,3.07,2.94,0,4.15-.83,4.15-3.07Z"/><path class="cls-2" d="M373.13,75.13c-6.32,0-8.94-1.69-8.94-5.39v-.53c0-3.61,2.82-5.25,6.72-5.13,2.3.09,4.75.24,7,.33V63.13c0-1.43-1.13-2.11-6-2.11h-6.48V59.08l7-.54c8.13,0,10.71,1.64,10.71,5.6V74.6Zm4.83-9h-4.75c-2.9,0-3.75.83-3.75,3.07v.65c0,2.21.89,3.07,3.87,3.07H378Z"/><path class="cls-2" d="M401.07,58.48c0-4.52.52-4.67,5.11-4.67V74.6l-10.31.56c-5.55,0-8.61-1.72-8.61-5.33v-5.9c0-4,3.62-5.3,6.8-5.3l7,.45Zm-.13,2.45h-4.62c-2.94,0-3.83.89-3.83,3v5.9c0,2.12.93,3,3.83,3h4.62Z"/><path class="cls-2" d="M442.53,74.89h-.32c-1.09,0-3.38,0-4.11-.44s-.76-1.25-.76-3.61V64c0-2.14-1-3.06-3.87-3.06h-5.15a5.62,5.62,0,0,1,1.17,3.15V74.89h-5.24V64c0-2.14-.92-2.94-3.86-2.94h-4.11V74.89h-5.11V59.17l9.7-.57a17.83,17.83,0,0,1,5.16.69l8-.81c5.51.06,8.53,1.79,8.53,5.39Z"/><path class="cls-2" d="M455.9,75.13c-6.32,0-8.94-1.69-8.94-5.39v-.53c0-3.61,2.82-5.25,6.72-5.13,2.3.09,4.75.24,7.05.33V63.13c0-1.43-1.13-2.11-6-2.11h-6.48V59.08l7-.54c8.13,0,10.71,1.64,10.71,5.6V74.6Zm4.83-9H456c-2.9,0-3.74.83-3.74,3.07v.65c0,2.21.88,3.07,3.86,3.07h4.63Z"/><path class="cls-2" d="M489.51,69.59c0,4.17-3.9,5.24-6.8,5.3l-7-.47v.3c0,1.25,0,3.21-.57,4s-2,1-4.55,1V59l10.19-.57c5.43,0,8.73,1.73,8.73,5.31ZM484.28,64c0-2.08-1.09-3-4-3h-4.47V72.6h4.63c2.94,0,3.82-.86,3.82-3Z"/><path class="cls-3" d="M50.76,110.46c0-.51,0-1,.05-1.53A8.15,8.15,0,0,0,50.76,110.46Z"/><path class="cls-4" d="M178.77,110.09c0-.51,0-1,0-1.53A7.32,7.32,0,0,0,178.77,110.09Z"/><path class="cls-5" d="M307.15,110.16c0-.52,0-1,0-1.53A7.32,7.32,0,0,0,307.15,110.16Z"/><path class="cls-6" d="M435.15,109.79c0-.52,0-1,.05-1.53A8.15,8.15,0,0,0,435.15,109.79Z"/><path class="cls-7" d="M568.35,109.53c0-.51,0-1,0-1.53A6.74,6.74,0,0,0,568.35,109.53Z"/><path class="cls-8" d="M696.35,109.16c0-.51,0-1,0-1.53A8.15,8.15,0,0,0,696.35,109.16Z"/><path class="cls-9" d="M780,121.66v1c-5.58-.21-11.15,1.82-16.74,1H761c-.92.09-1.85.19-2.78.27v0c-1.12,1.87-2.25,2.66-3.37,0-.37-.08-.73-.18-1.1-.27-6.87-1.85-13.8-1.19-20.67-.55-4.25.4-8.53,0-12.78.82-1.09,2.9-2.62.1-3.87,1,0,3.37-2.66,1.15-2.57,4.61-.11-1.14-.21-2.3-.31-3.43-1.06.72-2.28-.58-3.26,1,0,2.53-1.65,3.65-1.65,6.31v-6.26c0-1-.07-2.12-.09-3.16-.74.66-1.47,1.36-2.19,2a28.06,28.06,0,0,0-2.28,8.65v-7.58h-.52c-.05,3.07-1.13.5-1.64,1.07.13,3.61-.11,7-1.63,9.56v-6.33c0-.71-.07-1.43-.1-2.15l-1-.94c.33,3.12-2,1.94-2,4.48-.45-.6-.1-2.19-.82-2.45l-.09,1.1v9.79a45.86,45.86,0,0,1-.4-9.79c0-.37,0-.74-.07-1.1l-1.63,1.09h0c0,.87,0,1.75,0,2.61,0,1.34,0,2.28-1,2.07-1.14-.26-.51-1.64-.6-2.57v-7.49c-1.36.84-1.08,2.81-1.27,4.34.64,3.19-1.17,4.15-1.59,6.35q0,.57-.09,1.11a54.74,54.74,0,0,1-.19,9.24,55.93,55.93,0,0,1-.21-9.24V124.82c-1.88,1.79-.6,7.16-2.84,7.65v12h-.5V132.53c0-1.35-.1-2.7-.18-4.51-.79,1.4-.13,3.61-1,4.45-1,5.23-1.06,10.78-1.61,16.23V127.77c-.79,1.16-1.27,1.85-1.73,2.55a.9.9,0,0,0-.18.38l.18-.38c.26,3.75-.61,7.17-1,10.78v-8.6c-.3-.62.4-2.51-.72-2.07.47,3.39-.7,6.35-.44,11.09-.51-2.23-.7-3.08-1.05-4.65-.09,2.7-.14,4.56-.2,6.41l-.38,0v-8.62l-.09-3.22c-1.92,0-.58,3.43-1.51,4.7-1.22-1.36-.57-3.73-.64-5.73,0-2.16-.05-4.31-.08-6.46l-7.25-.22-1.09.27s0,0,0,0c-.93,1.5-1.87,1.51-2.8,0l0,0-13.65-1c-5,.17-10,1.73-15,1H633c-.93.1-1.86.2-2.79.28v0c-1.11,1.88-2.24,2.67-3.37,0-.37-.08-.73-.18-1.09-.28-6.88-1.84-13.8-1.19-20.67-.55-4.26.4-8.54,0-12.78.83-1.1,2.91-2.63.1-3.88,1,0,3.36-2.65,1.13-2.57,4.6-.09-1.14-.2-2.3-.31-3.43-1.05.71-2.28-.58-3.25,1,0,2.53-1.64,3.64-1.64,6.31v-6.26c0-1.06-.07-2.12-.11-3.17l-2.19,2a28.33,28.33,0,0,0-2.27,8.66v-7.59h-.52c-.05,3.08-1.13.5-1.65,1.07.13,3.61-.1,7-1.63,9.56V131.8c0-.73-.06-1.44-.09-2.16l-1.05-.94c.33,3.12-2,1.94-2,4.47-.45-.6-.11-2.18-.83-2.45,0,.37,0,.75-.07,1.1v9.8a43.46,43.46,0,0,1-.4-9.8c0-.35-.06-.73-.09-1.1-.54.37-1.09.73-1.62,1.1h0c0,.89,0,1.75,0,2.62,0,1.34,0,2.28-1,2.07-1.14-.26-.51-1.64-.59-2.57v-7.49c-1.36.85-1.09,2.81-1.28,4.34.64,3.19-1.16,4.14-1.59,6.35,0,.38,0,.75-.08,1.12a55.63,55.63,0,0,1-.2,9.22,54.57,54.57,0,0,1-.2-9.22V125.19c-1.89,1.78-.59,7.16-2.84,7.64v12h-.51V132.9c0-1.35-.1-2.7-.17-4.51-.8,1.4-.13,3.61-1,4.44-1,5.24-1.06,10.79-1.61,16.24V128.14l-1.73,2.55a.76.76,0,0,0-.19.38c.06-.13.12-.25.19-.38.26,3.75-.61,7.17-1.06,10.78v-8.6c-.3-.61.4-2.51-.71-2.07.46,3.38-.7,6.35-.45,11.08-.5-2.22-.69-3.07-1.05-4.65-.08,2.72-.14,4.57-.2,6.42l-.38,0V135c0-1.07-.06-2.14-.09-3.21-1.92,0-.57,3.42-1.5,4.68-1.22-1.36-.58-3.72-.64-5.72l-.09-6.46-7.25-.23c-.36.1-.72.2-1.09.28v0q-1.39,2.25-2.8,0s0,0,0,0l-15.48-1.09v.15c-6.15-.77-12.26,1.76-18.41.89h-2.23l-2.78.28v0c-1.12,1.88-2.25,2.67-3.37,0l-1.11-.28c-6.87-1.84-13.78-1.19-20.66-.54-4.25.39-8.53,0-12.77.82-1.11,2.91-2.63.1-3.88,1,0,3.36-2.66,1.13-2.57,4.61-.11-1.15-.21-2.31-.32-3.45-1.05.72-2.27-.57-3.25,1,.05,2.52-1.64,3.64-1.64,6.31V127.8c0-1.06-.07-2.12-.11-3.17l-2.19,2a28.35,28.35,0,0,0-2.26,8.65v-7.58h-.52c-.06,3.07-1.13.5-1.65,1.07.12,3.61-.11,7-1.63,9.55v-6.31L439,129.9,438,129c.33,3.11-2,1.94-2,4.48-.45-.6-.11-2.19-.82-2.46,0,.37-.05.74-.08,1.11v9.78a43.85,43.85,0,0,1-.4-9.78l-.09-1.11c-.54.37-1.08.74-1.62,1.09v0c0,.88-.05,1.74,0,2.61,0,1.34,0,2.28-1,2.07-1.14-.26-.5-1.64-.58-2.57v-7.49c-1.37.85-1.1,2.81-1.28,4.34.63,3.19-1.16,4.14-1.59,6.35,0,.37-.05.75-.08,1.12a55.85,55.85,0,0,1-.21,9.23,54.66,54.66,0,0,1-.19-9.23V125.45c-1.9,1.78-.6,7.17-2.86,7.64v12h-.49V133.16c-.05-1.35-.1-2.7-.18-4.51-.79,1.4-.13,3.61-1,4.44-1,5.24-1.05,10.79-1.61,16.24V128.4L420.09,131a.8.8,0,0,0-.18.37c0-.12.11-.24.18-.37.27,3.75-.6,7.17-1,10.77v-8.6c-.31-.6.4-2.5-.72-2.06.46,3.38-.7,6.35-.45,11.08-.49-2.22-.69-3.07-1-4.64-.09,2.71-.15,4.56-.21,6.42a2.25,2.25,0,0,0-.38,0v-8.62c0-1.07-.06-2.15-.09-3.21-1.91,0-.57,3.42-1.5,4.69-1.21-1.37-.58-3.73-.64-5.73,0-2.15-.05-4.31-.08-6.46l-7.25-.23-1.1.28s0,0,0,0c-.93,1.5-1.85,1.51-2.79,0,0,0,0,0,0,0l-13.65-1c-5,.17-10,1.74-15.06,1h-2.23c-.92.1-1.85.2-2.77.28v0c-1.12,1.87-2.25,2.67-3.38,0-.36-.08-.73-.18-1.1-.28-6.87-1.84-13.79-1.18-20.66-.54-4.26.39-8.54,0-12.78.82-1.1,2.9-2.63.1-3.88,1,0,3.37-2.65,1.15-2.56,4.61-.11-1.15-.22-2.3-.32-3.44-1.05.73-2.28-.57-3.26,1,.05,2.53-1.64,3.64-1.64,6.3v-6.25c0-1-.07-2.12-.1-3.17-.73.68-1.46,1.37-2.19,2a28.34,28.34,0,0,0-2.27,8.65v-7.58h-.52c-.05,3.07-1.13.51-1.65,1.07.14,3.61-.1,7-1.63,9.55v-6.31l-.09-2.15c-.35-.32-.69-.64-1-.95.33,3.12-2,1.94-2,4.48-.46-.6-.11-2.18-.82-2.45l-.09,1.1v9.79a45.22,45.22,0,0,1-.4-9.79l-.09-1.1-1.62,1.09h0c0,.87-.05,1.74,0,2.62,0,1.33,0,2.27-1,2.06-1.15-.26-.51-1.64-.6-2.57v-7.49c-1.36.85-1.09,2.8-1.28,4.34.64,3.19-1.16,4.15-1.58,6.35l-.09,1.11a55.87,55.87,0,0,1-.2,9.24,55.87,55.87,0,0,1-.2-9.24V125.82c-1.9,1.79-.6,7.16-2.84,7.65v11.95h-.51v-11.9c-.05-1.34-.1-2.69-.17-4.5-.8,1.41-.13,3.61-1,4.45-1,5.23-1.06,10.78-1.61,16.23V128.78c-.79,1.15-1.27,1.84-1.74,2.55a.75.75,0,0,0-.18.37c.06-.13.13-.25.18-.37.27,3.75-.6,7.16-1.05,10.77v-8.6c-.3-.62.4-2.51-.71-2.07.45,3.39-.71,6.35-.45,11.09-.5-2.24-.69-3.08-1.05-4.65-.08,2.7-.15,4.56-.19,6.41l-.39,0v-8.62c0-1.07-.06-2.14-.08-3.21-1.93,0-.58,3.42-1.52,4.69-1.21-1.36-.57-3.73-.63-5.74l-.09-6.45-7.24-.23c-.37.1-.73.2-1.11.28v0q-1.4,2.25-2.79,0l0,0-16.81-1.19c-4.09.45-8.16,1.38-12.27.8h-2.23l-2.78.29v0c-1.11,1.88-2.25,2.67-3.37,0l-1.09-.29c-6.88-1.84-13.8-1.19-20.67-.54-4.26.39-8.54,0-12.78.83-1.1,2.9-2.63.09-3.88,1,0,3.37-2.66,1.13-2.57,4.61-.1-1.15-.2-2.31-.31-3.44-1.05.71-2.28-.58-3.26,1,.05,2.53-1.64,3.64-1.64,6.31v-6.25c0-1.07-.07-2.13-.1-3.18l-2.19,2a28.05,28.05,0,0,0-2.27,8.66V128H186c-.06,3.08-1.13.51-1.65,1.08.13,3.6-.11,7-1.63,9.55v-6.32c0-.72-.06-1.43-.09-2.16-.35-.31-.7-.62-1-.94.32,3.12-2,1.94-2,4.48-.45-.6-.1-2.19-.82-2.46,0,.37-.05.75-.08,1.11v9.78a44.45,44.45,0,0,1-.4-9.78c0-.36,0-.74-.08-1.11l-1.63,1.1h0c0,.88,0,1.74,0,2.61,0,1.34,0,2.28-1,2.07-1.14-.26-.51-1.64-.59-2.57V127c-1.37.85-1.09,2.81-1.28,4.34.64,3.19-1.16,4.14-1.59,6.35,0,.38-.05.75-.08,1.12a54.7,54.7,0,0,1-.2,9.23,54.7,54.7,0,0,1-.2-9.23V125.75c-1.89,1.78-.6,7.17-2.84,7.64v12h-.51V133.46c-.05-1.35-.1-2.7-.17-4.51-.8,1.4-.13,3.61-1,4.44-1,5.24-1.06,10.79-1.62,16.24V128.71c-.79,1.15-1.26,1.85-1.72,2.54a.8.8,0,0,0-.19.38l.19-.38c.26,3.75-.61,7.17-1.06,10.77v-8.59c-.3-.61.4-2.5-.71-2.07.46,3.38-.71,6.35-.45,11.09-.5-2.23-.7-3.07-1.05-4.65-.09,2.71-.14,4.56-.2,6.42a2.43,2.43,0,0,0-.38,0v-8.62c0-1.07-.06-2.14-.09-3.21-1.92,0-.57,3.42-1.51,4.69-1.21-1.36-.57-3.73-.63-5.73l-.09-6.46-7.25-.23-1.09.29s0,0,0,0q-1.4,2.25-2.8,0s0,0,0,0l-13.65-1c-5,.17-10,1.74-15,1h-2.23c-.93.1-1.86.2-2.78.28v0c-1.12,1.87-2.24,2.67-3.38,0-.36-.08-.72-.18-1.09-.28-6.87-1.84-13.8-1.18-20.67-.54-4.26.39-8.54,0-12.78.82-1.09,2.9-2.63.1-3.88,1,0,3.36-2.64,1.14-2.56,4.6-.1-1.14-.21-2.3-.32-3.43-1,.72-2.28-.58-3.25,1,0,2.53-1.64,3.64-1.64,6.31v-6.25c0-1.06-.07-2.13-.1-3.18l-2.2,2A28.71,28.71,0,0,0,58.52,136v-7.58H58c0,3.07-1.13.51-1.64,1.07.13,3.61-.1,7-1.64,9.55v-6.31l-.09-2.15-1-1c.33,3.12-2,1.94-2,4.48-.46-.6-.11-2.18-.83-2.45,0,.36-.05.73-.08,1.1v9.79a44.57,44.57,0,0,1-.4-9.79l-.09-1.1-1.62,1.09h0c0,.87,0,1.74,0,2.62,0,1.33,0,2.27-1,2.06-1.14-.26-.51-1.64-.6-2.57v-7.49c-1.35.85-1.09,2.81-1.28,4.34.64,3.19-1.16,4.15-1.58,6.35,0,.37-.06.75-.09,1.11a54.74,54.74,0,0,1-.19,9.24,54.86,54.86,0,0,1-.21-9.24V126.12c-1.88,1.79-.59,7.16-2.84,7.65v12h-.5V133.83c-.06-1.35-.11-2.7-.17-4.51-.81,1.41-.14,3.61-1,4.45C38,139,38,144.55,37.44,150V129.08c-.79,1.15-1.27,1.85-1.74,2.55a.76.76,0,0,0-.19.37l.19-.37c.26,3.75-.61,7.16-1.06,10.77v-8.6c-.3-.62.4-2.51-.71-2.07.47,3.39-.7,6.35-.44,11.09-.51-2.23-.69-3.08-1.06-4.65-.07,2.71-.14,4.56-.19,6.41l-.38,0v-8.62l-.09-3.21c-1.93,0-.58,3.42-1.5,4.69-1.23-1.36-.59-3.73-.65-5.74l-.09-6.45L22.29,125c-.37.1-.73.2-1.1.28v0c-.94,1.5-1.87,1.52-2.8,0l0,0L0,124a2.6,2.6,0,0,1,0-.88c6.3.59,12.55-2,18.85-1v0c.59,0,1.18,0,1.78,0s1.45,0,2.16,0l6.15-.23c.91-1.71,0-4.67,1.18-6.23.26-.8.54-1.59,1.07-3.19v5.17c1.06-.81,1.1-2.61,1.17-4.38-.08-2.27-.33-4.62,1-6.93v5.91c.11,1.55.1,3.18.86,4.33.62-.87.22-2.22.42-3.25a12.36,12.36,0,0,0,1.43-4.49c-.19,3.17.73,5.86.74,8.81,1.08-2.64.25-5.77.63-8.59-.52-2.29.27-3.88,1.14-4s.2,2.09.51,3.11c.7,2.29.5,4.78.42,7.23.17.82-.06,2.65.54,2.3,1.06-.62.47-2.9.73-4.4a40.41,40.41,0,0,1,.35-9c1,3.36.6,6.25.61,9,.27,2.52.55,5,.86,7.75,1.45-4.24.62-8.81,1-13.06V101.3c1.82,4.39,2,9.31,2.2,14.23.34.71.7,1.41,1.06,2.11,0-1.77.06-3.56.08-5.34a33.74,33.74,0,0,1,.3-7.8c-.86,6,2.17,6.83,3.45,10.3,0-1.53.08-3,.1-4.34.31,3.08,3,3.52,2.69,7.16,1.06,0,1.06,0,1.27-3.19a16.6,16.6,0,0,1,.46-5.78c-.34,4.8,1.44,6.83,1.71,10.1h.52c.12-3.11,1.43-2.41,2.32-2.39s1.16,1.72,1,3.39A7.14,7.14,0,0,0,62.4,123c.42-1.44.83-2.86,1.24-4.3V114c1.49,1,.93,3,1,4.73,0,.37.06.75.09,1.11,1.06-2.53,1.47-.05,2.09.91l0,0a.84.84,0,0,0,.13.17h.51c1.09-3.79,2.18-2.74,3.3-.07.36,1.61.91,2.06,1.73,1.14.86-3.81,1.72-1,2.58-.19h0a.91.91,0,0,0,.21.15h0a.09.09,0,0,1,0-.05c1.67,1.65,3.34-.24,5,0,9.06,1.52,18.15,1.16,27.23,1.07.61-1.64,1.47-.86,2.23-.86h2.89c.94.07,2-.93,2.77.79a2.3,2.3,0,0,1,2.75-.76l13.27.66c5.14-.29,10.26-1.87,15.41-1.07h1.79c.72,0,1.43,0,2.16,0l6.14-.22c.92-1.71,0-4.67,1.18-6.23.27-.8.53-1.59,1.08-3.2v5.18c1-.82,1.09-2.62,1.17-4.38-.1-2.27-.33-4.62,1-6.93v5.91c.1,1.56.1,3.18.86,4.32.61-.86.21-2.21.42-3.24a12.75,12.75,0,0,0,1.43-4.5c-.19,3.19.72,5.88.74,8.82,1.07-2.63.24-5.78.61-8.59-.5-2.29.29-3.88,1.16-4s.19,2.08.51,3.1c.7,2.3.49,4.78.42,7.23.16.82-.07,2.66.53,2.3,1.07-.62.48-2.9.73-4.4a41.11,41.11,0,0,1,.35-9c1.05,3.38.59,6.26.6,9,.29,2.52.57,5,.87,7.76,1.46-4.24.62-8.82,1-13.07v-6.72c1.82,4.4,2,9.31,2.2,14.23.35.72.7,1.41,1.06,2.12l.09-5.35a33.73,33.73,0,0,1,.29-7.8c-.85,6,2.17,6.83,3.44,10.3,0-1.54.08-3,.12-4.34.29,3.09,3,3.53,2.68,7.15,1.06,0,1.06,0,1.28-3.17a16.59,16.59,0,0,1,.45-5.79c-.34,4.8,1.43,6.82,1.72,10.1h.52c.11-3.1,1.43-2.41,2.32-2.39s1.14,1.71,1,3.4a7.25,7.25,0,0,0,1.7,3.23c.42-1.43.84-2.86,1.25-4.29v-4.74c1.48,1,.93,3,1,4.74l.09,1.1c1.06-2.53,1.47,0,2.09.91a0,0,0,0,0,0,0,.47.47,0,0,0,.12.18h.52c1.08-3.8,2.18-2.75,3.29-.08.36,1.62.92,2.07,1.73,1.14.86-3.81,1.73-1,2.59-.19h0a.86.86,0,0,0,.22.15h0v0c1.68,1.65,3.35-.23,5,0,9.07,1.52,18.15,1.16,27.24,1.07.6-1.64,1.46-.85,2.23-.87h2.88c.95.08,2-.92,2.77.79a2.32,2.32,0,0,1,2.75-.76l16.56.83c4.16-.53,8.32-1.44,12.51-.78v0c.58,0,1.18,0,1.78,0s1.43,0,2.16,0l6.14-.23c.92-1.71,0-4.67,1.18-6.23.27-.8.53-1.59,1.08-3.2v5.18c1.05-.81,1.09-2.61,1.17-4.38-.09-2.27-.33-4.62,1-6.93V112c.11,1.55.1,3.18.86,4.33.61-.87.2-2.22.42-3.25a12.76,12.76,0,0,0,1.43-4.49c-.19,3.17.73,5.86.74,8.81,1.07-2.64.24-5.77.62-8.59-.51-2.3.28-3.88,1.15-4s.19,2.09.5,3.11c.71,2.29.5,4.78.42,7.23.18.82-.05,2.65.54,2.3,1.07-.62.48-2.9.73-4.4a41,41,0,0,1,.35-9c1.05,3.36.6,6.25.61,9l.86,7.75c1.46-4.24.63-8.81,1-13.06V101c1.82,4.39,2,9.31,2.19,14.23.35.71.7,1.41,1.06,2.11,0-1.77.06-3.56.09-5.34a33.73,33.73,0,0,1,.29-7.8c-.86,6,2.17,6.83,3.45,10.3,0-1.53.07-3,.11-4.34.3,3.08,3,3.52,2.68,7.16,1.06,0,1.06,0,1.28-3.19a16.55,16.55,0,0,1,.45-5.78c-.33,4.8,1.44,6.83,1.72,10.1h.51c.12-3.11,1.44-2.41,2.33-2.39s1.14,1.72,1,3.39a7.14,7.14,0,0,0,1.7,3.24c.42-1.44.83-2.86,1.24-4.3v-4.73c1.48.95.93,3,1,4.73,0,.37.05.75.08,1.1,1.07-2.52,1.48,0,2.1.92,0,0,0,0,0,0a.84.84,0,0,0,.13.17h.52c1.07-3.79,2.18-2.74,3.29-.07.36,1.61.92,2.06,1.73,1.14.87-3.81,1.73-1,2.59-.19h0a.91.91,0,0,0,.21.15h0a.09.09,0,0,1,0,0c1.67,1.65,3.34-.24,5,0,9,1.52,18.14,1.16,27.23,1.07.6-1.64,1.46-.86,2.23-.86h2.88c.95.07,2-.93,2.77.79a2.31,2.31,0,0,1,2.76-.76l13.27.66c5.14-.29,10.25-1.87,15.41-1.07h1.78q1.08,0,2.16,0l6.15-.22c.91-1.71,0-4.67,1.17-6.23.28-.8.54-1.59,1.09-3.2V117c1-.82,1.09-2.62,1.17-4.38-.1-2.27-.33-4.62,1-6.93v5.91c.09,1.56.09,3.18.85,4.32.61-.86.21-2.21.43-3.24a12.55,12.55,0,0,0,1.42-4.5c-.18,3.19.73,5.87.75,8.82,1.06-2.63.24-5.78.61-8.59-.51-2.29.28-3.88,1.15-4s.2,2.08.51,3.1c.71,2.3.5,4.78.42,7.23.17.82-.07,2.66.53,2.3,1.06-.62.49-2.9.73-4.4a41.74,41.74,0,0,1,.35-9c1.05,3.38.6,6.26.61,9,.28,2.52.57,5,.87,7.76,1.46-4.24.62-8.82,1-13.07v-6.72c1.81,4.4,2,9.31,2.2,14.23.35.72.7,1.41,1.06,2.12,0-1.78.06-3.57.09-5.35a33.71,33.71,0,0,1,.28-7.8c-.86,6,2.17,6.83,3.45,10.3,0-1.54.08-2.95.12-4.34.29,3.09,3,3.53,2.68,7.15,1.06,0,1.06,0,1.28-3.17a16.78,16.78,0,0,1,.44-5.79c-.34,4.8,1.44,6.82,1.72,10.1h.52c.11-3.11,1.44-2.41,2.33-2.39s1.14,1.71,1,3.4a7.15,7.15,0,0,0,1.7,3.23c.42-1.44.83-2.86,1.25-4.29v-4.74c1.48,1,.91,3,.95,4.74,0,.35.06.73.08,1.1,1.08-2.53,1.49,0,2.09.91l0,0a.64.64,0,0,0,.13.18h.52c1.07-3.8,2.18-2.75,3.29-.08.35,1.62.92,2.07,1.73,1.14.86-3.81,1.73-1,2.59-.19a0,0,0,0,1,0,0,.83.83,0,0,0,.21.15h0v-.05c1.67,1.65,3.35-.24,5,0,9.07,1.52,18.16,1.16,27.25,1.07.59-1.64,1.45-.85,2.22-.87h2.89c.94.07,2-.92,2.77.79a2.32,2.32,0,0,1,2.75-.76c5,.24,10,.5,15,.75v0c6.31.59,12.55-2,18.85-1h1.79c.72,0,1.44,0,2.16,0l6.15-.22c.91-1.72,0-4.67,1.17-6.23l1.08-3.19v5.17c1-.82,1.1-2.62,1.17-4.38-.09-2.27-.33-4.62,1-6.93v5.91c.1,1.55.1,3.18.86,4.32.61-.86.21-2.21.42-3.24a12.42,12.42,0,0,0,1.43-4.5c-.19,3.19.72,5.87.74,8.82,1.08-2.63.25-5.78.62-8.59-.51-2.29.28-3.88,1.15-4s.2,2.08.51,3.1c.7,2.29.5,4.78.42,7.23.16.82-.07,2.66.53,2.3,1.07-.62.48-2.9.73-4.4a41.74,41.74,0,0,1,.35-9c1.06,3.38.6,6.26.61,9,.28,2.52.56,5,.87,7.75,1.45-4.23.61-8.81,1-13.07v-6.7c1.82,4.39,2,9.29,2.2,14.21.35.73.71,1.42,1.07,2.13,0-1.78.06-3.57.08-5.34a34.29,34.29,0,0,1,.29-7.8c-.85,6,2.18,6.82,3.45,10.29,0-1.54.08-3,.11-4.34.3,3.09,3,3.52,2.68,7.15,1.07,0,1.07,0,1.28-3.18a16.79,16.79,0,0,1,.45-5.78c-.34,4.8,1.44,6.82,1.72,10.1H575c.12-3.11,1.43-2.41,2.32-2.39s1.15,1.71,1,3.4a7.25,7.25,0,0,0,1.7,3.23c.42-1.43.83-2.86,1.25-4.29V113c1.49,1,.92,3,1,4.74,0,.36.06.73.08,1.1,1.07-2.53,1.48,0,2.1.91,0,0,0,0,0,0a.48.48,0,0,0,.13.17H585c1.08-3.79,2.18-2.74,3.3-.08.35,1.62.91,2.07,1.73,1.15.85-3.81,1.72-1,2.58-.19h0a.86.86,0,0,0,.22.15h0v0c1.67,1.65,3.35-.24,5,0,9.07,1.52,18.15,1.16,27.24,1.07.6-1.64,1.46-.86,2.23-.87h2.88c1,.08,2-.92,2.78.79a2.31,2.31,0,0,1,2.74-.76l13.27.66c5.14-.28,10.26-1.86,15.42-1.06h1.79l2.16,0,6.14-.23c.91-1.71,0-4.67,1.18-6.23.26-.79.53-1.59,1.08-3.19v5.16c1-.8,1.09-2.6,1.17-4.37-.1-2.28-.34-4.62,1-6.93V111c.11,1.55.11,3.18.86,4.33.62-.87.21-2.22.43-3.25a13,13,0,0,0,1.43-4.49c-.2,3.17.72,5.86.74,8.8,1.06-2.63.24-5.76.61-8.58-.51-2.29.29-3.88,1.16-4s.19,2.09.51,3.11c.69,2.29.48,4.77.41,7.23.17.82-.06,2.65.53,2.3,1.07-.62.49-2.9.74-4.4a40.52,40.52,0,0,1,.35-9c1,3.38.59,6.25.6,9,.29,2.52.57,5,.87,7.75,1.46-4.24.62-8.81,1-13.06V100c1.82,4.39,2,9.31,2.2,14.22l1,2.13c0-1.78.07-3.57.09-5.35a34.2,34.2,0,0,1,.3-7.79c-.86,6,2.16,6.81,3.44,10.29,0-1.53.08-3,.11-4.34.3,3.08,3,3.52,2.69,7.16,1.05,0,1.05,0,1.28-3.19a16.07,16.07,0,0,1,.45-5.78c-.34,4.8,1.43,6.82,1.72,10.1H703c.1-3.11,1.42-2.42,2.31-2.39s1.15,1.72,1,3.39a7.24,7.24,0,0,0,1.7,3.24c.42-1.44.83-2.86,1.24-4.3v-4.73c1.49,1,.93,3,1,4.73,0,.37,0,.74.08,1.11,1.07-2.53,1.47,0,2.09.91,0,0,0,0,0,0a.59.59,0,0,0,.13.17H713c1.08-3.79,2.17-2.74,3.29-.07.36,1.61.92,2.06,1.72,1.15.87-3.82,1.73-1,2.59-.2h0a.78.78,0,0,0,.22.15.15.15,0,0,1,0-.06c1.67,1.65,3.34-.23,5,.05,9.07,1.52,18.14,1.15,27.23,1.07.61-1.64,1.47-.86,2.24-.87h2.88c.94.08,2-.92,2.77.8a2.31,2.31,0,0,1,2.75-.76C769.2,121.12,774.61,121.38,780,121.66Z"/><path class="cls-10" d="M796.81,50c-3.08,0-6.45-.36-6.45-4.28V38c0-4.3,3.8-4.37,6.48-4.37l3.27.31v1.67h-3.2c-2.8,0-2.92.82-2.92,2.44V45.6c0,1.6,0,2.37,2.92,2.37h3.2v1.67Z"/><path class="cls-10" d="M805.28,49.78h-3V32.88c2.89,0,3,.19,3,3.94Z"/><path class="cls-10" d="M813.75,50c-3.85,0-5.5-1.38-5.5-4.33v-8.8c2.9,0,3.14.22,3.14,4.28v4.52c0,1.75.69,2.47,2.43,2.47h2.56V36.82h3.11V49.55Z"/><path class="cls-10" d="M827.58,50c-3.63,0-5.28-1.12-5.28-4.3V36.92c1.67-.24,1.93-.93,2-2.22h1.07v2.12H830v1.56l-4.57.38V45.7c0,1.69.5,2.43,2.3,2.43H830v1.56Z"/><path class="cls-10" d="M837.1,50c-3.13,0-5.74-.6-5.74-4.33V41c0-4.35,3.4-4.4,5.74-4.4l3.09.31V38.5h-2.92c-2.29,0-2.72.4-2.72,2.46v4.69c0,2.05.43,2.46,2.72,2.46h2.92v1.56Z"/><path class="cls-10" d="M853.44,49.78c-3.13,0-3.08,0-3.08-3.29V41.06c0-1.72-.53-2.44-2.39-2.44h-2.61V49.78h-3V32.88c3,0,3,.07,3,4.23,1.36-.09,2.8-.24,4.16-.33,1.74,0,3.92,1,3.92,4.28Z"/><path class="cls-10" d="M861.2,50c-3.76,0-5.31-1.37-5.31-4.33v-.43c0-2.9,1.67-4.21,4-4.12,1.36.08,2.82.2,4.18.27v-1c0-1.15-.66-1.7-3.58-1.7h-3.85V37.09l4.14-.43c4.82,0,6.36,1.31,6.36,4.49v8.4Zm2.86-7.22h-2.82c-1.72,0-2.22.66-2.22,2.46v.52c0,1.77.53,2.47,2.3,2.47h2.74Z"/><path class="cls-10" d="M875.05,50c-3.64,0-5.29-1.12-5.29-4.3V36.92c1.68-.24,1.94-.93,2-2.22h1.08v2.12h4.57v1.56l-4.57.38V45.7c0,1.69.5,2.43,2.29,2.43h2.28v1.56Z"/><path class="cls-11" d="M799.06,139.82a90.92,90.92,0,0,1,7-29c3.44-8.44,7.6-17.06,14.17-23.67,3.19-3.2,7-6.17,11.7-6.85s8.86,1.13,12.34,3.85c7.41,5.8,12,14.31,15.76,22.61a100.13,100.13,0,0,1,8.16,27.73,38,38,0,0,1,.08,11.95,31.89,31.89,0,0,1-3.69,10.1A35.57,35.57,0,0,1,848.81,171a35.09,35.09,0,0,1-21.54,2.73,35.78,35.78,0,0,1-17.45-9,34.07,34.07,0,0,1-10.2-19A37,37,0,0,1,799.06,139.82Z"/><path class="cls-12" d="M813.64,129.12h-1.41a.25.25,0,0,1-.25-.33l.29-1.44a.43.43,0,0,1,.39-.32h1.42a.26.26,0,0,1,.25.32l-.3,1.44A.42.42,0,0,1,813.64,129.12Z"/><path class="cls-12" d="M816.38,129.12H815a.26.26,0,0,1-.25-.33l.3-1.44a.42.42,0,0,1,.38-.32h1.42a.25.25,0,0,1,.25.32l-.29,1.44A.42.42,0,0,1,816.38,129.12Z"/><path class="cls-12" d="M823.68,121.86l-3.15,15.2a.48.48,0,0,1-.45.38h-1.3a.29.29,0,0,1-.3-.38l3.14-15.2a.5.5,0,0,1,.46-.38h1.3A.3.3,0,0,1,823.68,121.86Z"/><path class="cls-12" d="M850.32,127.41l-.85,4.1a.5.5,0,0,1-.46.38h-1.3a.3.3,0,0,1-.3-.38l.85-4.1a.5.5,0,0,1,.46-.38H850A.3.3,0,0,1,850.32,127.41Z"/><path class="cls-12" d="M827.56,116.31l-4.87,23.53a.49.49,0,0,1-.45.38h-1.3a.3.3,0,0,1-.3-.38l4.87-23.53a.5.5,0,0,1,.45-.39h1.31A.3.3,0,0,1,827.56,116.31Z"/><path class="cls-12" d="M830.87,113.53l-6,29.09a.5.5,0,0,1-.46.38h-1.3a.3.3,0,0,1-.3-.38l6-29.09a.49.49,0,0,1,.46-.38h1.3A.29.29,0,0,1,830.87,113.53Z"/><path class="cls-12" d="M840.13,121.86l-2.57,12.43a.49.49,0,0,1-.46.38h-1.3a.29.29,0,0,1-.29-.38l2.57-12.43a.49.49,0,0,1,.45-.38h1.3A.3.3,0,0,1,840.13,121.86Z"/><path class="cls-12" d="M835.23,119.08l-4.29,20.76a.5.5,0,0,1-.46.38h-1.3a.3.3,0,0,1-.3-.38l4.3-20.76a.49.49,0,0,1,.45-.38h1.3A.3.3,0,0,1,835.23,119.08Z"/><path class="cls-12" d="M842.4,124.64,841,131.51a.48.48,0,0,1-.44.38h-1.31a.3.3,0,0,1-.3-.38l1.42-6.87a.51.51,0,0,1,.46-.39h1.31A.31.31,0,0,1,842.4,124.64Z"/><path class="cls-12" d="M837.39,121.86l-3.14,15.2a.49.49,0,0,1-.46.38h-1.3a.3.3,0,0,1-.3-.38l3.15-15.2a.49.49,0,0,1,.45-.38h1.3A.29.29,0,0,1,837.39,121.86Z"/><path class="cls-12" d="M831.89,121.86l-2.57,12.43a.5.5,0,0,1-.46.38h-1.3a.29.29,0,0,1-.29-.38l2.57-12.43a.49.49,0,0,1,.45-.38h1.3A.3.3,0,0,1,831.89,121.86Z"/><path class="cls-12" d="M844.13,129.12h-1.42a.26.26,0,0,1-.25-.33l.3-1.44a.42.42,0,0,1,.38-.32h1.42a.25.25,0,0,1,.25.32l-.29,1.44A.42.42,0,0,1,844.13,129.12Z"/><path class="cls-12" d="M846.86,129.12h-1.42a.26.26,0,0,1-.25-.33l.3-1.44a.41.41,0,0,1,.38-.32h1.42a.25.25,0,0,1,.25.32l-.3,1.44A.41.41,0,0,1,846.86,129.12Z"/><path class="cls-12" d="M852.38,129.12H851a.26.26,0,0,1-.25-.33l.3-1.44a.42.42,0,0,1,.38-.32h1.42a.25.25,0,0,1,.25.32l-.29,1.44A.42.42,0,0,1,852.38,129.12Z"/><path class="cls-12" d="M855.12,129.12H853.7a.26.26,0,0,1-.25-.33l.3-1.44a.42.42,0,0,1,.38-.32h1.42a.25.25,0,0,1,.25.32l-.3,1.44A.41.41,0,0,1,855.12,129.12Z"/><path class="cls-12" d="M820.36,124.64l-1.42,6.87a.49.49,0,0,1-.45.38h-1.3a.3.3,0,0,1-.3-.38l1.42-6.87a.5.5,0,0,1,.46-.39h1.3A.3.3,0,0,1,820.36,124.64Z"/><polygon class="cls-12" points="826.89 84.5 826.89 84.51 826.89 84.51 826.89 84.5"/><path class="cls-13" d="M833.13,75.67c-22.44,0-40.63,19.73-40.63,44.07V136h2V129.3c.2,6.27,1.28,11,2.57,11h8.7a1.75,1.75,0,0,0,1.73-1.77V115.66a1.75,1.75,0,0,0-1.73-1.76h-4.29a32.49,32.49,0,0,1,63.23,0h-4.23a1.75,1.75,0,0,0-1.74,1.76v22.73a33.15,33.15,0,0,1-9.85,4.52,32.22,32.22,0,0,1-11.14,1.43l-.39-1.4a1.2,1.2,0,0,0-1.48-.83l-1.64.49a1.21,1.21,0,0,0-.82,1.49l1.6,5.66a1.2,1.2,0,0,0,1.48.83l1.64-.48a1.22,1.22,0,0,0,.86-1.29c3,.82,8,.5,13.38-1.06,6.23-1.81,11.16-4.77,12.76-7.4h4c1.22,0,2.22-4.16,2.52-9.82V136h2V119.74C873.75,95.4,855.56,75.67,833.13,75.67Zm16.75,70.65a32.2,32.2,0,0,1-11.13,1.44l-.67-2.36c3,.81,8,.49,13.37-1.07a35,35,0,0,0,9.08-4h1C859.24,142.57,855,144.84,849.88,146.32Zm21.84-22.6c-.3-5.65-1.3-9.82-2.52-9.82h-3.5c0-.26,0-.51,0-.77a32.59,32.59,0,1,0-65.17,0c0,.26,0,.51,0,.77H797.1c-1.29,0-2.37,4.78-2.57,11v-5.21c0-23.13,17.28-41.87,38.6-41.87s38.59,18.74,38.59,41.87Z"/><path class="cls-14" d="M783,200.5v4h4.57v-4h1.23V210h-1.23v-4.43H783V210h-1.22V200.5Z"/><path class="cls-14" d="M794.59,210l-.1-.85h0a2.54,2.54,0,0,1-2.08,1,1.93,1.93,0,0,1-2.07-1.94c0-1.64,1.46-2.54,4.08-2.53v-.14a1.4,1.4,0,0,0-1.55-1.57,3.36,3.36,0,0,0-1.76.51l-.28-.81A4.15,4.15,0,0,1,793,203c2.07,0,2.58,1.42,2.58,2.78v2.53a9,9,0,0,0,.11,1.63Zm-.19-3.46c-1.34,0-2.87.21-2.87,1.53a1.09,1.09,0,0,0,1.16,1.17,1.68,1.68,0,0,0,1.64-1.13,1.11,1.11,0,0,0,.07-.39Z"/><path class="cls-14" d="M799,201.22v1.95h1.77v.94H799v3.65c0,.84.24,1.32.92,1.32a2.91,2.91,0,0,0,.72-.08l.05.92a2.91,2.91,0,0,1-1.09.17,1.69,1.69,0,0,1-1.33-.52,2.5,2.5,0,0,1-.48-1.76v-3.7h-1v-.94h1v-1.63Z"/><path class="cls-14" d="M806.93,209.7a4.57,4.57,0,0,1-1.95.39,3.22,3.22,0,0,1-3.38-3.46,3.44,3.44,0,0,1,3.64-3.6,4.07,4.07,0,0,1,1.71.35l-.28,1a2.81,2.81,0,0,0-1.43-.32,2.56,2.56,0,0,0,0,5.1,3.45,3.45,0,0,0,1.52-.34Z"/><path class="cls-14" d="M808.37,200h1.24v4.23h0a2.33,2.33,0,0,1,.89-.87,2.53,2.53,0,0,1,1.26-.35c.91,0,2.37.56,2.37,2.9v4h-1.24v-3.9c0-1.09-.4-2-1.57-2a1.76,1.76,0,0,0-1.65,1.23,1.51,1.51,0,0,0-.08.59V210h-1.24Z"/><path class="cls-14" d="M817.53,201.26a.77.77,0,0,1-1.53,0,.75.75,0,0,1,.77-.77A.74.74,0,0,1,817.53,201.26ZM816.15,210v-6.78h1.24V210Z"/><path class="cls-14" d="M819.44,205c0-.7,0-1.27-.06-1.83h1.09l.07,1.12h0a2.49,2.49,0,0,1,2.24-1.28c.94,0,2.4.56,2.4,2.89v4H824V206c0-1.09-.41-2-1.57-2a1.75,1.75,0,0,0-1.66,1.26,1.91,1.91,0,0,0-.08.57V210h-1.23Z"/><path class="cls-14" d="M833.06,203.17c0,.49,0,1,0,1.86V209a3.91,3.91,0,0,1-1,3.1,3.63,3.63,0,0,1-2.47.81,4.39,4.39,0,0,1-2.25-.56l.3-.94a3.84,3.84,0,0,0,2,.53c1.27,0,2.19-.66,2.19-2.37v-.75h0a2.41,2.41,0,0,1-2.16,1.13,3,3,0,0,1-2.88-3.31c0-2.29,1.5-3.6,3-3.6a2.27,2.27,0,0,1,2.12,1.18h0l.05-1Zm-1.27,2.67a2,2,0,0,0-.07-.56A1.79,1.79,0,0,0,830,204c-1.17,0-2,1-2,2.56,0,1.34.68,2.44,2,2.44a1.8,1.8,0,0,0,1.71-1.26,2.16,2.16,0,0,0,.1-.66Z"/><path class="cls-14" d="M838,200h1.23V210H838Z"/><path class="cls-14" d="M845.09,210l-.09-.85h0a2.5,2.5,0,0,1-2.07,1,1.93,1.93,0,0,1-2.07-1.94c0-1.64,1.45-2.54,4.07-2.53v-.14a1.4,1.4,0,0,0-1.54-1.57,3.33,3.33,0,0,0-1.76.51l-.28-.81a4.14,4.14,0,0,1,2.22-.61c2.08,0,2.58,1.42,2.58,2.78v2.53a9,9,0,0,0,.12,1.63Zm-.18-3.46c-1.34,0-2.87.21-2.87,1.53a1.09,1.09,0,0,0,1.16,1.17,1.69,1.69,0,0,0,1.64-1.13,1.4,1.4,0,0,0,.07-.39Z"/><path class="cls-14" d="M849.53,201.22v1.95h1.76v.94h-1.76v3.65c0,.84.23,1.32.92,1.32a3,3,0,0,0,.72-.08l.05.92a3,3,0,0,1-1.09.17,1.68,1.68,0,0,1-1.33-.52,2.5,2.5,0,0,1-.48-1.76v-3.7h-1.05v-.94h1.05v-1.63Z"/><path class="cls-14" d="M853.28,206.78a2.18,2.18,0,0,0,2.33,2.36,4.57,4.57,0,0,0,1.88-.35l.21.88a5.43,5.43,0,0,1-2.26.42,3.14,3.14,0,0,1-3.33-3.42c0-2,1.2-3.66,3.18-3.66,2.21,0,2.8,2,2.8,3.2a5.55,5.55,0,0,1,0,.57Zm3.62-.88a1.76,1.76,0,0,0-1.71-2,2,2,0,0,0-1.89,2Z"/><path class="cls-14" d="M862.2,210v-.76l1-.94c2.33-2.21,3.38-3.39,3.39-4.76a1.62,1.62,0,0,0-1.81-1.78,3.11,3.11,0,0,0-1.93.77l-.39-.87a4,4,0,0,1,2.58-.92,2.56,2.56,0,0,1,2.79,2.65c0,1.68-1.22,3-3.14,4.89l-.73.67v0H868v1Z"/><path class="cls-14" d="M875.45,205.3c0,3.09-1.15,4.8-3.17,4.8-1.78,0-3-1.66-3-4.68s1.32-4.73,3.17-4.73S875.45,202.4,875.45,205.3Zm-5,.14c0,2.37.73,3.71,1.85,3.71s1.87-1.47,1.87-3.8-.58-3.71-1.85-3.71C871.29,201.64,870.5,203,870.5,205.44Z"/><path class="cls-14" d="M879.27,202h0l-1.58.85-.24-.93,2-1.07h1.05V210h-1.19Z"/><path class="cls-14" d="M883.67,207.64a2.61,2.61,0,0,1,1.81-2.44l0,0a2.27,2.27,0,0,1-1.44-2,2.55,2.55,0,0,1,2.82-2.42,2.35,2.35,0,0,1,2.65,2.24,2.31,2.31,0,0,1-1.5,2.13v0a2.53,2.53,0,0,1,1.83,2.36c0,1.58-1.36,2.64-3.09,2.64C884.82,210.1,883.67,209,883.67,207.64Zm4.91-.06c0-1.11-.77-1.64-2-2a2,2,0,0,0-1.64,1.88,1.69,1.69,0,0,0,1.82,1.74A1.66,1.66,0,0,0,888.58,207.58ZM885.19,203c0,.91.68,1.4,1.73,1.68a1.8,1.8,0,0,0,1.39-1.66,1.41,1.41,0,0,0-1.54-1.48A1.45,1.45,0,0,0,885.19,203Z"/><path class="cls-2" d="M12.63,177.08v3.54h3.08V182H12.63v5.28H10V175.74h6.52v1.34Z"/><path class="cls-2" d="M25.54,181.14c0,2.32-.59,3-2.89,3l-3-.26v1c0,.54.26,1.18,1.64,1.18h3.89v1.07l-4.06.27c-2.56,0-3.7-1-3.7-3.13v-3.39c0-2.09,1.38-3.13,3.75-3.13h.62c2.46,0,3.76,1,3.76,3.13Zm-2.27-.36c0-1.25-.38-1.77-1.64-1.77h-.35c-1.21,0-1.64.57-1.64,1.77v2.14h1.64a3,3,0,0,0,1.47-.24c.4-.29.52-.78.52-1.54Z"/><path class="cls-2" d="M35.57,184.29c0,2.09-1.33,3.09-3.75,3.09H31.2c-2.44,0-3.75-1-3.75-3.09V175c2,0,2.19.09,2.19,2.72v.43l3-.3a2.8,2.8,0,0,1,2.92,3.08Zm-2.26-3.36c0-1.24-.45-1.74-1.71-1.74h-2v5.18c0,1.23.49,1.77,1.71,1.77h.32c1.24,0,1.64-.54,1.64-1.77Z"/><path class="cls-2" d="M44.3,181.37H42.74c0-1.75-.67-2.24-1.92-2.24H39.68v8.12h-2.2V178l3.81-.33c1.81,0,3.49,1,3.18,2.77Z"/><path class="cls-2" d="M50,187.37c-2.78,0-4-1-4-3.13v-6.37c2.1,0,2.27.16,2.27,3.1v3.27c0,1.26.5,1.78,1.76,1.78h1.85v-8.15h2.25v9.2Z"/><path class="cls-2" d="M59.91,187.38c-2.71,0-3.84-1-3.84-3.13v-.31c0-2.09,1.21-3,2.89-3,1,.05,2,.14,3,.19v-.75c0-.83-.49-1.22-2.6-1.22H56.61v-1.13l3-.31c3.49,0,4.6.95,4.6,3.25v6.07ZM62,182.16H60c-1.25,0-1.61.49-1.61,1.78v.38c0,1.28.38,1.78,1.66,1.78h2Z"/><path class="cls-2" d="M73,181.37H71.49c0-1.75-.68-2.24-1.92-2.24H68.43v8.12h-2.2V178L70,177.7c1.81,0,3.49,1,3.18,2.77Z"/><path class="cls-2" d="M82.93,187.51c0,1.76-.89,2.61-3.53,2.61l-4.74-.3v-1h4.69c1.14,0,1.38-.52,1.38-.78v-.94l-3,.28c-1.47,0-2.84-.64-2.84-3.08v-6.4c2.23,0,2.23,0,2.23,2.37v4c0,1.3.21,1.75,1.73,1.75h1.89v-8.15h2.2Z"/><path class="cls-2" d="M96.15,180.17l-4.74,5.74h4.88v1.34H88.45v-1.47l5.16-6.35v0A2.08,2.08,0,0,0,91.34,177H88.56v-1.21l3.27-.23c3.51,0,4.58,1.46,4.58,2.89A7.5,7.5,0,0,1,96.15,180.17Z"/><path class="cls-2" d="M107.17,184.24c0,3.23-3.47,3.09-4.93,3.09-2.64,0-4.23-.91-4.23-3.09v-5.49c0-2.18,1.57-3.09,4.23-3.09H103c2.65,0,4.22.91,4.22,3.09Zm-2.63-5.57c0-1.3-.58-1.77-1.88-1.77h-.12c-1.3,0-1.91.47-1.91,1.77v5.65c0,1.28.61,1.75,1.91,1.75h.12c1.3,0,1.88-.47,1.88-1.75Z"/><path class="cls-2" d="M110.07,187.25V177l-1.73-.22v-1.06h4.39v11.51Z"/><path class="cls-2" d="M123.8,184.36c0,2.09-1.36,3-4.25,3h-.68c-2.88,0-4.23-.93-4.23-3V184a2.28,2.28,0,0,1,1.88-2.61,2.18,2.18,0,0,1-1.88-2.56v-.17c0-2.06,1.26-3.05,4.15-3.05h.85c2.88,0,4.16,1,4.16,3.05v.17a2.26,2.26,0,0,1-2.21,2.55c1.33.22,2.21.63,2.21,2.62Zm-2.68-5.73c0-1.29-.5-1.76-1.85-1.76h-.21c-1.34,0-1.85.47-1.85,1.76v.75a1.38,1.38,0,0,0,1.53,1.31h.9a1.37,1.37,0,0,0,1.48-1.31Zm0,4.78a1.36,1.36,0,0,0-1.48-1.44h-.9a1.4,1.4,0,0,0-1.53,1.44v1c0,1.27.51,1.77,1.91,1.77h.1c1.4,0,1.92-.49,1.9-1.77Z"/><text class="cls-15" transform="translate(10 208.27)">-Clu<tspan class="cls-16" x="18.66" y="0">t</tspan><tspan x="22.52" y="0">chat Initialization</tspan><tspan x="0" y="24">-Whi</tspan><tspan class="cls-17" x="23.27" y="24">t</tspan><tspan class="cls-18" x="27.13" y="24">epaper D</tspan><tspan class="cls-19" x="69.41" y="24">r</tspan><tspan x="74.23" y="24">a</tspan><tspan class="cls-17" x="79.96" y="24">f</tspan><tspan x="83.33" y="24">t</tspan></text><path class="cls-2" d="M155.75,187.23V177h-.68v-.05l-3.49,10.31h-1.79l-3.59-10.31V177h-.63v10.26H144v-11.5h4.43l2.87,8.59c.83-2.59,1.92-6,2.73-8.59h4.38v11.5Z"/><path class="cls-2" d="M164.14,187.37c-2.71,0-3.84-1-3.84-3.13v-.31c0-2.1,1.21-3.05,2.89-3,1,.05,2,.14,3,.19v-.74c0-.83-.49-1.23-2.6-1.23h-2.78V178l3-.31c3.5,0,4.6,1,4.6,3.26v6.07Zm2.08-5.23h-2c-1.25,0-1.61.49-1.61,1.79v.38c0,1.28.38,1.78,1.66,1.78h2Z"/><path class="cls-2" d="M177.28,181.35h-1.56c0-1.75-.67-2.23-1.92-2.23h-1.14v8.11h-2.2V178l3.81-.33c1.81,0,3.49,1,3.18,2.77Z"/><path class="cls-2" d="M182.92,187.37c-2.27,0-4.15-.43-4.15-3.13V180.9c0-3.15,2.46-3.18,4.15-3.18l2.23.22v1.12H183c-1.66,0-2,.3-2,1.79v3.39c0,1.48.31,1.78,2,1.78h2.11v1.12Z"/><path class="cls-2" d="M194.74,187.23c-2.27,0-2.23,0-2.23-2.39v-3.92c0-1.25-.38-1.77-1.73-1.77h-1.89v8.08H186.7V175c2.16,0,2.19.05,2.19,3.06l3-.24a2.76,2.76,0,0,1,2.84,3.1Z"/><path class="cls-2" d="M207.82,180.15l-4.74,5.75H208v1.33h-7.83v-1.47l5.15-6.35v.05A2.08,2.08,0,0,0,203,177h-2.78v-1.21l3.27-.22c3.51,0,4.58,1.45,4.58,2.89A7.49,7.49,0,0,1,207.82,180.15Z"/><path class="cls-2" d="M218.85,184.22c0,3.23-3.48,3.1-4.93,3.1-2.65,0-4.24-.92-4.24-3.1v-5.48c0-2.18,1.57-3.1,4.24-3.1h.71c2.64,0,4.22.92,4.22,3.1Zm-2.63-5.57c0-1.3-.59-1.76-1.89-1.76h-.12c-1.3,0-1.9.46-1.9,1.76v5.66c0,1.28.6,1.74,1.9,1.74h.12c1.3,0,1.89-.46,1.89-1.74Z"/><path class="cls-2" d="M221.74,187.23V177l-1.73-.23v-1.05h4.4v11.5Z"/><path class="cls-2" d="M235.48,184.34c0,2.09-1.37,3-4.26,3h-.67c-2.89,0-4.24-.94-4.24-3V184a2.27,2.27,0,0,1,1.89-2.61,2.19,2.19,0,0,1-1.89-2.56v-.18c0-2.06,1.26-3,4.15-3h.85c2.89,0,4.17,1,4.17,3v.18c0,1.86-1,2.31-2.22,2.54,1.34.22,2.22.64,2.22,2.63Zm-2.68-5.72c0-1.3-.5-1.77-1.85-1.77h-.21c-1.35,0-1.85.47-1.85,1.77v.74a1.37,1.37,0,0,0,1.52,1.31h.9a1.37,1.37,0,0,0,1.49-1.31Zm0,4.77a1.37,1.37,0,0,0-1.49-1.44h-.9a1.39,1.39,0,0,0-1.52,1.44v1c0,1.26.5,1.76,1.9,1.76h.11c1.4,0,1.91-.48,1.9-1.76Z"/><text class="cls-15" transform="translate(144 208.27)">-Cluchat Alpha<tspan x="0" y="24">-Bounty R</tspan><tspan class="cls-19" x="47.67" y="24">e</tspan><tspan class="cls-20" x="53.21" y="24">w</tspan><tspan x="62.3" y="24">ards Begin</tspan></text><path class="cls-2" d="M277.4,187.39l-.59-2.65v.07h-4.18v-.07c-.19.85-.43,1.8-.62,2.65h-2l2.94-11.51h4.13l3.17,11.51Zm-2.25-10.26h-.9l-1.33,6.35h3.64Z"/><path class="cls-2" d="M289.64,184.31a2.81,2.81,0,0,1-2.93,3.08l-3-.28v.17a6.57,6.57,0,0,1-.24,2.35c-.31.57-.86.61-1.95.61V178.17l4.37-.33c2.34,0,3.76,1,3.76,3.08Zm-2.25-3.26c0-1.21-.47-1.73-1.71-1.73h-1.92v6.73h2c1.26,0,1.64-.5,1.64-1.74Z"/><path class="cls-2" d="M298.36,181.5H296.8c0-1.74-.67-2.23-1.92-2.23h-1.14v8.12h-2.19v-9.22l3.8-.33c1.82,0,3.5,1,3.18,2.76Z"/><path class="cls-2" d="M302.6,176.37c0,.27-.24.58-1.17.58h-.28c-.95,0-1.18-.31-1.18-.58v-.76c0-.28.25-.61,1.18-.61h.28c.93,0,1.17.33,1.17.61Zm-2.4,11V178h2.2v9.38Z"/><path class="cls-2" d="M306.81,187.39h-2.2V175.16c2.1,0,2.2.13,2.2,2.85Z"/><path class="cls-2" d="M320,180.31l-4.74,5.74h4.88v1.34h-7.84v-1.48l5.16-6.34v.05a2.09,2.09,0,0,0-2.27-2.44h-2.78V176l3.26-.23c3.52,0,4.59,1.46,4.59,2.89A7.5,7.5,0,0,1,320,180.31Z"/><path class="cls-2" d="M331.05,184.38c0,3.23-3.47,3.09-4.93,3.09-2.64,0-4.23-.92-4.23-3.09v-5.49c0-2.18,1.57-3.09,4.23-3.09h.71c2.65,0,4.22.91,4.22,3.09Zm-2.63-5.57c0-1.3-.58-1.77-1.88-1.77h-.12c-1.3,0-1.91.47-1.91,1.77v5.65c0,1.28.61,1.75,1.91,1.75h.12c1.3,0,1.88-.47,1.88-1.75Z"/><path class="cls-2" d="M334,187.39V177.16l-1.73-.22v-1.06h4.39v11.51Z"/><path class="cls-2" d="M347.68,184.5c0,2.09-1.36,3-4.25,3h-.68c-2.88,0-4.23-.93-4.23-3v-.37a2.28,2.28,0,0,1,1.88-2.61,2.18,2.18,0,0,1-1.88-2.56v-.17c0-2.06,1.26-3,4.15-3h.85c2.88,0,4.16,1,4.16,3V179a2.24,2.24,0,0,1-2.21,2.54c1.33.23,2.21.64,2.21,2.63ZM345,178.77c0-1.3-.5-1.76-1.85-1.76h-.21c-1.34,0-1.85.46-1.85,1.76v.74a1.38,1.38,0,0,0,1.53,1.32h.9a1.37,1.37,0,0,0,1.48-1.32Zm0,4.78a1.36,1.36,0,0,0-1.48-1.44h-.9a1.39,1.39,0,0,0-1.53,1.44v1c0,1.27.51,1.77,1.91,1.77h.1c1.4,0,1.92-.49,1.9-1.77Z"/><text class="cls-15" transform="translate(270 208.27)">-Moment of <tspan class="cls-21" x="59.03" y="0">T</tspan><tspan class="cls-18" x="63.18" y="0">o</tspan><tspan class="cls-17" x="68.84" y="0">k</tspan><tspan x="74.15" y="0">enization</tspan></text><path class="cls-2" d="M411.54,186.44V176.36h-.66v-.05l-3.43,10.13h-1.76l-3.53-10.13v.05h-.61v10.08H400v-11.3h4.35l2.82,8.44c.82-2.55,1.89-5.89,2.69-8.44h4.3v11.3Z"/><path class="cls-2" d="M419.79,186.58c-2.67,0-3.78-1-3.78-3.08v-.31c0-2.05,1.19-3,2.84-2.92,1,0,2,.14,3,.19v-.73c0-.82-.48-1.21-2.55-1.21h-2.74v-1.11l2.94-.3c3.44,0,4.52.93,4.52,3.19v6Zm2-5.14h-2c-1.22,0-1.58.48-1.58,1.75v.38c0,1.26.38,1.75,1.63,1.75h2Z"/><path class="cls-2" d="M434,186.69c0,1.74-.87,2.57-3.47,2.57l-4.66-.29v-1h4.61c1.12,0,1.36-.51,1.36-.76v-.92l-3,.27c-1.44,0-2.78-.63-2.78-3v-6.29c2.19,0,2.19,0,2.19,2.33v4c0,1.27.2,1.71,1.7,1.71h1.85v-8H434Z"/><path class="cls-2" d="M447,179.49l-4.66,5.64h4.79v1.31h-7.7V185l5.07-6.24v.05a2.05,2.05,0,0,0-2.23-2.4h-2.74v-1.19l3.22-.22c3.45,0,4.5,1.43,4.5,2.84A7.48,7.48,0,0,1,447,179.49Z"/><path class="cls-2" d="M457.82,183.48c0,3.18-3.42,3-4.85,3-2.6,0-4.16-.9-4.16-3v-5.39c0-2.14,1.54-3,4.16-3h.7c2.6,0,4.15.9,4.15,3ZM455.23,178c0-1.28-.58-1.74-1.85-1.74h-.12c-1.27,0-1.87.46-1.87,1.74v5.56c0,1.26.6,1.71,1.87,1.71h.12c1.27,0,1.85-.45,1.85-1.71Z"/><path class="cls-2" d="M460.66,186.44V176.39l-1.7-.22v-1h4.31v11.3Z"/><path class="cls-2" d="M474.15,183.6c0,2.06-1.34,3-4.18,3h-.66c-2.84,0-4.17-.92-4.17-3v-.36a2.24,2.24,0,0,1,1.86-2.56,2.15,2.15,0,0,1-1.86-2.52V178c0-2,1.24-3,4.08-3h.84c2.83,0,4.09,1,4.09,3v.17a2.21,2.21,0,0,1-2.17,2.5c1.31.22,2.17.63,2.17,2.58ZM471.52,178c0-1.27-.5-1.73-1.82-1.73h-.21c-1.32,0-1.81.46-1.81,1.73v.74a1.35,1.35,0,0,0,1.49,1.29h.89a1.35,1.35,0,0,0,1.46-1.29Zm0,4.7a1.34,1.34,0,0,0-1.46-1.41h-.89a1.36,1.36,0,0,0-1.49,1.41v1c0,1.24.49,1.73,1.87,1.73h.1c1.37,0,1.88-.47,1.87-1.73Z"/><text class="cls-15" transform="translate(400 208.27)">-Clu<tspan class="cls-22" x="18.66" y="0">t</tspan><tspan class="cls-23" x="22.52" y="0">chat Closed Be</tspan><tspan class="cls-22" x="88.27" y="0">t</tspan><tspan x="92.13" y="0">a</tspan><tspan x="0" y="24">-Whi</tspan><tspan class="cls-22" x="23.27" y="24">t</tspan><tspan x="27.13" y="24">epaper Final</tspan></text><path class="cls-2" d="M676.24,184.19c0,3.11-2.73,3.16-4.67,3.16l-1.57-.22V185.9h1.5c1.89,0,2.1-.59,2.12-1.65,0-2.57,0-5.95,0-8.52h2.66Z"/><path class="cls-2" d="M682.25,187.35c-2.78,0-4-1-4-3.13v-6.37c2.09,0,2.27.16,2.27,3.1v3.27c0,1.26.5,1.78,1.76,1.78h1.85v-8.15h2.25v9.21Z"/><path class="cls-2" d="M690.75,187.23h-2.2V175c2.1,0,2.2.14,2.2,2.85Z"/><path class="cls-2" d="M701,187.49c0,1.76-.88,2.61-3.53,2.61l-4.74-.29v-1h4.69c1.14,0,1.39-.52,1.39-.78v-.93l-3,.27c-1.47,0-2.84-.64-2.84-3.08v-6.4c2.23,0,2.23,0,2.23,2.37v4c0,1.3.21,1.75,1.73,1.75h1.89v-8.15H701Z"/><path class="cls-2" d="M714.27,180.15l-4.74,5.75h4.87v1.33h-7.83v-1.47l5.15-6.35v.05a2.08,2.08,0,0,0-2.26-2.44h-2.79v-1.21l3.27-.22c3.51,0,4.59,1.45,4.59,2.89A7.49,7.49,0,0,1,714.27,180.15Z"/><path class="cls-2" d="M725.29,184.22c0,3.23-3.48,3.1-4.93,3.1-2.65,0-4.24-.92-4.24-3.1v-5.48c0-2.18,1.58-3.1,4.24-3.1h.71c2.65,0,4.22.92,4.22,3.1Zm-2.63-5.57c0-1.3-.59-1.76-1.89-1.76h-.12c-1.29,0-1.9.46-1.9,1.76v5.66c0,1.28.61,1.74,1.9,1.74h.12c1.3,0,1.89-.46,1.89-1.74Z"/><path class="cls-2" d="M728.18,187.23V177l-1.73-.23v-1.05h4.4v11.5Z"/><path class="cls-2" d="M741.92,184.34c0,2.09-1.37,3-4.25,3H737c-2.89,0-4.24-.94-4.24-3V184a2.28,2.28,0,0,1,1.89-2.61,2.19,2.19,0,0,1-1.89-2.56v-.18c0-2.06,1.27-3,4.16-3h.84c2.89,0,4.17,1,4.17,3v.18c0,1.86-1,2.31-2.21,2.54,1.33.22,2.21.64,2.21,2.63Zm-2.68-5.72c0-1.3-.5-1.77-1.85-1.77h-.21c-1.35,0-1.85.47-1.85,1.77v.74a1.37,1.37,0,0,0,1.52,1.31h.9a1.37,1.37,0,0,0,1.49-1.31Zm0,4.77a1.37,1.37,0,0,0-1.49-1.44h-.9a1.39,1.39,0,0,0-1.52,1.44v1c0,1.26.5,1.76,1.9,1.76h.11c1.4,0,1.92-.48,1.9-1.76Z"/><text class="cls-15" transform="translate(670 207.9)">-Clu<tspan class="cls-16" x="18.66" y="0">t</tspan><tspan class="cls-23" x="22.52" y="0">chat Open Be</tspan><tspan class="cls-22" x="82.73" y="0">t</tspan><tspan x="86.59" y="0">a</tspan><tspan x="0" y="24">-Bounty Redemtion</tspan><tspan x="0" y="36" xml:space="preserve">   Period</tspan></text><path class="cls-2" d="M536.24,183.6c0,3.11-2.73,3.16-4.67,3.16l-1.57-.22v-1.23h1.5c1.89,0,2.1-.59,2.12-1.64,0-2.58,0-5.95,0-8.53h2.66Z"/><path class="cls-2" d="M542.25,186.76c-2.78,0-4-1-4-3.13v-6.36c2.1,0,2.27.15,2.27,3.09v3.27c0,1.26.5,1.78,1.76,1.78h1.85v-8.14h2.25v9.2Z"/><path class="cls-2" d="M554.43,184.24v-3.88c0-1.24-.39-1.78-1.64-1.78h-2v8.06h-2.25v-9.17l4.43-.32c2.39,0,3.7,1,3.7,3.13v6.36C554.42,186.64,554.43,186.61,554.43,184.24Z"/><path class="cls-2" d="M566.7,180.54c0,2.31-.59,3-2.89,3l-3-.26v1c0,.54.26,1.18,1.65,1.18h3.89v1.07l-4.06.28c-2.57,0-3.71-1-3.71-3.13v-3.39c0-2.09,1.39-3.13,3.76-3.13H563c2.46,0,3.75,1,3.75,3.13Zm-2.26-.37c0-1.24-.38-1.76-1.65-1.76h-.34c-1.21,0-1.65.57-1.65,1.76v2.15h1.65a3,3,0,0,0,1.47-.25c.4-.29.52-.77.52-1.53Z"/><path class="cls-2" d="M579.68,179.57l-4.74,5.74h4.88v1.33H572v-1.47l5.15-6.35v.05a2.07,2.07,0,0,0-2.26-2.43h-2.79v-1.21l3.27-.23c3.51,0,4.58,1.45,4.58,2.89A7.6,7.6,0,0,1,579.68,179.57Z"/><path class="cls-2" d="M590.71,183.63c0,3.24-3.48,3.1-4.93,3.1-2.65,0-4.24-.92-4.24-3.1v-5.48c0-2.18,1.57-3.1,4.24-3.1h.71c2.64,0,4.22.92,4.22,3.1Zm-2.63-5.57c0-1.3-.59-1.76-1.89-1.76h-.12c-1.3,0-1.9.46-1.9,1.76v5.66c0,1.28.6,1.75,1.9,1.75h.12c1.3,0,1.89-.47,1.89-1.75Z"/><path class="cls-2" d="M593.6,186.64V176.42l-1.73-.23v-1.05h4.4v11.5Z"/><path class="cls-2" d="M607.34,183.75c0,2.1-1.37,3-4.26,3h-.67c-2.89,0-4.24-.93-4.24-3v-.36a2.27,2.27,0,0,1,1.89-2.61,2.19,2.19,0,0,1-1.89-2.56V178c0-2,1.26-3,4.15-3h.85c2.89,0,4.17,1,4.17,3v.18a2.25,2.25,0,0,1-2.22,2.54c1.34.23,2.22.64,2.22,2.63ZM604.66,178c0-1.3-.5-1.77-1.85-1.77h-.21c-1.35,0-1.85.47-1.85,1.77v.74a1.37,1.37,0,0,0,1.52,1.32h.9a1.38,1.38,0,0,0,1.49-1.32Zm0,4.77a1.36,1.36,0,0,0-1.49-1.43h-.9a1.39,1.39,0,0,0-1.52,1.43v1c0,1.26.5,1.76,1.9,1.76h.11c1.4,0,1.92-.48,1.9-1.76Z"/><text class="cls-15" transform="translate(530 208.27)">-Se<tspan class="cls-19" x="16.32" y="0">c</tspan><tspan x="20.64" y="0">ond-</tspan><tspan class="cls-20" x="43.41" y="0">w</tspan><tspan class="cls-24" x="52.5" y="0">a</tspan><tspan class="cls-25" x="58.11" y="0">v</tspan><tspan class="cls-26" x="63.34" y="0">e </tspan><tspan class="cls-27" x="71.3" y="0">T</tspan><tspan x="75.45" y="0">o</tspan><tspan class="cls-22" x="81.11" y="0">k</tspan><tspan class="cls-26" x="86.42" y="0">enization</tspan></text></svg>