<svg id="Layer_1" data-name="Layer 1" xmlns="http://www.w3.org/2000/svg" viewBox="0 0 150 150"><defs><style>.cls-1{fill:#f5712e;}</style></defs><title>favicon-origional</title><rect width="150" height="150" rx="12" ry="12"/><path class="cls-1" d="M138.42,80.86l-.81,2.83a2.07,2.07,0,0,1-2.19,1.48c1.39,5.21.85,13.82-1.8,23.06-3.06,10.73-8.08,19.22-12.53,22v6.95c0,2.09-7.06,3.83-16.63,4.34h9.31V145H86.18C44.93,145,11.5,113.66,11.5,75S44.93,5,86.18,5h27.59V8.5h-11.4c10.62.35,18.72,2.2,18.72,4.43v15a3,3,0,0,1-3,3H79.26a3,3,0,0,1-3-3V20.53a56.2,56.2,0,0,0,0,109v-7.29a3,3,0,0,1,3-3h38.5a57.39,57.39,0,0,0,7.66-17c2.07-7.22,2.86-14.06,2.44-19.19l-2.38-.68a2.06,2.06,0,0,1-1.4-2.54L124.9,77a2,2,0,0,1,2.53-1.41L137,78.32A2.06,2.06,0,0,1,138.42,80.86Z"/></svg>